<?xml version="1.0" encoding="utf-8" ?>
<svg baseProfile="full" height="360" version="1.1" width="360" xmlns="http://www.w3.org/2000/svg" xmlns:ev="http://www.w3.org/2001/xml-events" xmlns:xlink="http://www.w3.org/1999/xlink"><defs /><rect fill="white" height="360" stroke="black" stroke-width="2" width="360" x="0" y="0" /><line stroke="black" stroke-width="1" x1="40" x2="40" y1="0" y2="40" /><line stroke="black" stroke-width="1" x1="0" x2="40" y1="40" y2="40" /><text font-family="Arial" font-size="35" x="10" y="30"> </text><line stroke="black" stroke-width="1" x1="80" x2="80" y1="0" y2="40" /><line stroke="black" stroke-width="1" x1="40" x2="80" y1="40" y2="40" /><text font-family="Arial" font-size="35" x="50" y="30">4</text><line stroke="black" stroke-width="1" x1="120" x2="120" y1="0" y2="40" /><line stroke="black" stroke-width="1" x1="80" x2="120" y1="40" y2="40" /><text font-family="Arial" font-size="35" x="90" y="30"> </text><line stroke="black" stroke-width="3" x1="120" x2="120" y1="0" y2="40" /><line stroke="black" stroke-width="1" x1="160" x2="160" y1="0" y2="40" /><line stroke="black" stroke-width="1" x1="120" x2="160" y1="40" y2="40" /><text font-family="Arial" font-size="35" x="130" y="30">1</text><line stroke="black" stroke-width="1" x1="200" x2="200" y1="0" y2="40" /><line stroke="black" stroke-width="1" x1="160" x2="200" y1="40" y2="40" /><text font-family="Arial" font-size="35" x="170" y="30"> </text><line stroke="black" stroke-width="1" x1="240" x2="240" y1="0" y2="40" /><line stroke="black" stroke-width="1" x1="200" x2="240" y1="40" y2="40" /><text font-family="Arial" font-size="35" x="210" y="30">7</text><line stroke="black" stroke-width="3" x1="240" x2="240" y1="0" y2="40" /><line stroke="black" stroke-width="1" x1="280" x2="280" y1="0" y2="40" /><line stroke="black" stroke-width="1" x1="240" x2="280" y1="40" y2="40" /><text font-family="Arial" font-size="35" x="250" y="30"> </text><line stroke="black" stroke-width="1" x1="320" x2="320" y1="0" y2="40" /><line stroke="black" stroke-width="1" x1="280" x2="320" y1="40" y2="40" /><text font-family="Arial" font-size="35" x="290" y="30"> </text><line stroke="black" stroke-width="1" x1="360" x2="360" y1="0" y2="40" /><line stroke="black" stroke-width="1" x1="320" x2="360" y1="40" y2="40" /><text font-family="Arial" font-size="35" x="330" y="30"> </text><line stroke="black" stroke-width="1" x1="40" x2="40" y1="40" y2="80" /><line stroke="black" stroke-width="1" x1="0" x2="40" y1="80" y2="80" /><text font-family="Arial" font-size="35" x="10" y="70"> </text><line stroke="black" stroke-width="1" x1="80" x2="80" y1="40" y2="80" /><line stroke="black" stroke-width="1" x1="40" x2="80" y1="80" y2="80" /><text font-family="Arial" font-size="35" x="50" y="70"> </text><line stroke="black" stroke-width="1" x1="120" x2="120" y1="40" y2="80" /><line stroke="black" stroke-width="1" x1="80" x2="120" y1="80" y2="80" /><text font-family="Arial" font-size="35" x="90" y="70"> </text><line stroke="black" stroke-width="3" x1="120" x2="120" y1="40" y2="80" /><line stroke="black" stroke-width="1" x1="160" x2="160" y1="40" y2="80" /><line stroke="black" stroke-width="1" x1="120" x2="160" y1="80" y2="80" /><text font-family="Arial" font-size="35" x="130" y="70"> </text><line stroke="black" stroke-width="1" x1="200" x2="200" y1="40" y2="80" /><line stroke="black" stroke-width="1" x1="160" x2="200" y1="80" y2="80" /><text font-family="Arial" font-size="35" x="170" y="70"> </text><line stroke="black" stroke-width="1" x1="240" x2="240" y1="40" y2="80" /><line stroke="black" stroke-width="1" x1="200" x2="240" y1="80" y2="80" /><text font-family="Arial" font-size="35" x="210" y="70"> </text><line stroke="black" stroke-width="3" x1="240" x2="240" y1="40" y2="80" /><line stroke="black" stroke-width="1" x1="280" x2="280" y1="40" y2="80" /><line stroke="black" stroke-width="1" x1="240" x2="280" y1="80" y2="80" /><text font-family="Arial" font-size="35" x="250" y="70">1</text><line stroke="black" stroke-width="1" x1="320" x2="320" y1="40" y2="80" /><line stroke="black" stroke-width="1" x1="280" x2="320" y1="80" y2="80" /><text font-family="Arial" font-size="35" x="290" y="70"> </text><line stroke="black" stroke-width="1" x1="360" x2="360" y1="40" y2="80" /><line stroke="black" stroke-width="1" x1="320" x2="360" y1="80" y2="80" /><text font-family="Arial" font-size="35" x="330" y="70"> </text><line stroke="black" stroke-width="1" x1="40" x2="40" y1="80" y2="120" /><line stroke="black" stroke-width="1" x1="0" x2="40" y1="120" y2="120" /><text font-family="Arial" font-size="35" x="10" y="110">1</text><line stroke="black" stroke-width="1" x1="80" x2="80" y1="80" y2="120" /><line stroke="black" stroke-width="1" x1="40" x2="80" y1="120" y2="120" /><text font-family="Arial" font-size="35" x="50" y="110"> </text><line stroke="black" stroke-width="1" x1="120" x2="120" y1="80" y2="120" /><line stroke="black" stroke-width="1" x1="80" x2="120" y1="120" y2="120" /><text font-family="Arial" font-size="35" x="90" y="110"> </text><line stroke="black" stroke-width="3" x1="120" x2="120" y1="80" y2="120" /><line stroke="black" stroke-width="1" x1="160" x2="160" y1="80" y2="120" /><line stroke="black" stroke-width="1" x1="120" x2="160" y1="120" y2="120" /><text font-family="Arial" font-size="35" x="130" y="110">8</text><line stroke="black" stroke-width="1" x1="200" x2="200" y1="80" y2="120" /><line stroke="black" stroke-width="1" x1="160" x2="200" y1="120" y2="120" /><text font-family="Arial" font-size="35" x="170" y="110"> </text><line stroke="black" stroke-width="1" x1="240" x2="240" y1="80" y2="120" /><line stroke="black" stroke-width="1" x1="200" x2="240" y1="120" y2="120" /><text font-family="Arial" font-size="35" x="210" y="110"> </text><line stroke="black" stroke-width="3" x1="240" x2="240" y1="80" y2="120" /><line stroke="black" stroke-width="1" x1="280" x2="280" y1="80" y2="120" /><line stroke="black" stroke-width="1" x1="240" x2="280" y1="120" y2="120" /><text font-family="Arial" font-size="35" x="250" y="110">2</text><line stroke="black" stroke-width="1" x1="320" x2="320" y1="80" y2="120" /><line stroke="black" stroke-width="1" x1="280" x2="320" y1="120" y2="120" /><text font-family="Arial" font-size="35" x="290" y="110"> </text><line stroke="black" stroke-width="1" x1="360" x2="360" y1="80" y2="120" /><line stroke="black" stroke-width="1" x1="320" x2="360" y1="120" y2="120" /><text font-family="Arial" font-size="35" x="330" y="110"> </text><line stroke="black" stroke-width="3" x1="0" x2="40" y1="120" y2="120" /><line stroke="black" stroke-width="1" x1="40" x2="40" y1="120" y2="160" /><line stroke="black" stroke-width="1" x1="0" x2="40" y1="160" y2="160" /><text font-family="Arial" font-size="35" x="10" y="150"> </text><line stroke="black" stroke-width="3" x1="40" x2="80" y1="120" y2="120" /><line stroke="black" stroke-width="1" x1="80" x2="80" y1="120" y2="160" /><line stroke="black" stroke-width="1" x1="40" x2="80" y1="160" y2="160" /><text font-family="Arial" font-size="35" x="50" y="150"> </text><line stroke="black" stroke-width="3" x1="80" x2="120" y1="120" y2="120" /><line stroke="black" stroke-width="1" x1="120" x2="120" y1="120" y2="160" /><line stroke="black" stroke-width="1" x1="80" x2="120" y1="160" y2="160" /><text font-family="Arial" font-size="35" x="90" y="150">4</text><line stroke="black" stroke-width="3" x1="120" x2="160" y1="120" y2="120" /><line stroke="black" stroke-width="3" x1="120" x2="120" y1="120" y2="160" /><line stroke="black" stroke-width="1" x1="160" x2="160" y1="120" y2="160" /><line stroke="black" stroke-width="1" x1="120" x2="160" y1="160" y2="160" /><text font-family="Arial" font-size="35" x="130" y="150"> </text><line stroke="black" stroke-width="3" x1="160" x2="200" y1="120" y2="120" /><line stroke="black" stroke-width="1" x1="200" x2="200" y1="120" y2="160" /><line stroke="black" stroke-width="1" x1="160" x2="200" y1="160" y2="160" /><text font-family="Arial" font-size="35" x="170" y="150"> </text><line stroke="black" stroke-width="3" x1="200" x2="240" y1="120" y2="120" /><line stroke="black" stroke-width="1" x1="240" x2="240" y1="120" y2="160" /><line stroke="black" stroke-width="1" x1="200" x2="240" y1="160" y2="160" /><text font-family="Arial" font-size="35" x="210" y="150"> </text><line stroke="black" stroke-width="3" x1="240" x2="280" y1="120" y2="120" /><line stroke="black" stroke-width="3" x1="240" x2="240" y1="120" y2="160" /><line stroke="black" stroke-width="1" x1="280" x2="280" y1="120" y2="160" /><line stroke="black" stroke-width="1" x1="240" x2="280" y1="160" y2="160" /><text font-family="Arial" font-size="35" x="250" y="150"> </text><line stroke="black" stroke-width="3" x1="280" x2="320" y1="120" y2="120" /><line stroke="black" stroke-width="1" x1="320" x2="320" y1="120" y2="160" /><line stroke="black" stroke-width="1" x1="280" x2="320" y1="160" y2="160" /><text font-family="Arial" font-size="35" x="290" y="150"> </text><line stroke="black" stroke-width="3" x1="320" x2="360" y1="120" y2="120" /><line stroke="black" stroke-width="1" x1="360" x2="360" y1="120" y2="160" /><line stroke="black" stroke-width="1" x1="320" x2="360" y1="160" y2="160" /><text font-family="Arial" font-size="35" x="330" y="150">3</text><line stroke="black" stroke-width="1" x1="40" x2="40" y1="160" y2="200" /><line stroke="black" stroke-width="1" x1="0" x2="40" y1="200" y2="200" /><text font-family="Arial" font-size="35" x="10" y="190"> </text><line stroke="black" stroke-width="1" x1="80" x2="80" y1="160" y2="200" /><line stroke="black" stroke-width="1" x1="40" x2="80" y1="200" y2="200" /><text font-family="Arial" font-size="35" x="50" y="190"> </text><line stroke="black" stroke-width="1" x1="120" x2="120" y1="160" y2="200" /><line stroke="black" stroke-width="1" x1="80" x2="120" y1="200" y2="200" /><text font-family="Arial" font-size="35" x="90" y="190"> </text><line stroke="black" stroke-width="3" x1="120" x2="120" y1="160" y2="200" /><line stroke="black" stroke-width="1" x1="160" x2="160" y1="160" y2="200" /><line stroke="black" stroke-width="1" x1="120" x2="160" y1="200" y2="200" /><text font-family="Arial" font-size="35" x="130" y="190">2</text><line stroke="black" stroke-width="1" x1="200" x2="200" y1="160" y2="200" /><line stroke="black" stroke-width="1" x1="160" x2="200" y1="200" y2="200" /><text font-family="Arial" font-size="35" x="170" y="190"> </text><line stroke="black" stroke-width="1" x1="240" x2="240" y1="160" y2="200" /><line stroke="black" stroke-width="1" x1="200" x2="240" y1="200" y2="200" /><text font-family="Arial" font-size="35" x="210" y="190"> </text><line stroke="black" stroke-width="3" x1="240" x2="240" y1="160" y2="200" /><line stroke="black" stroke-width="1" x1="280" x2="280" y1="160" y2="200" /><line stroke="black" stroke-width="1" x1="240" x2="280" y1="200" y2="200" /><text font-family="Arial" font-size="35" x="250" y="190"> </text><line stroke="black" stroke-width="1" x1="320" x2="320" y1="160" y2="200" /><line stroke="black" stroke-width="1" x1="280" x2="320" y1="200" y2="200" /><text font-family="Arial" font-size="35" x="290" y="190"> </text><line stroke="black" stroke-width="1" x1="360" x2="360" y1="160" y2="200" /><line stroke="black" stroke-width="1" x1="320" x2="360" y1="200" y2="200" /><text font-family="Arial" font-size="35" x="330" y="190"> </text><line stroke="black" stroke-width="1" x1="40" x2="40" y1="200" y2="240" /><line stroke="black" stroke-width="1" x1="0" x2="40" y1="240" y2="240" /><text font-family="Arial" font-size="35" x="10" y="230"> </text><line stroke="black" stroke-width="1" x1="80" x2="80" y1="200" y2="240" /><line stroke="black" stroke-width="1" x1="40" x2="80" y1="240" y2="240" /><text font-family="Arial" font-size="35" x="50" y="230"> </text><line stroke="black" stroke-width="1" x1="120" x2="120" y1="200" y2="240" /><line stroke="black" stroke-width="1" x1="80" x2="120" y1="240" y2="240" /><text font-family="Arial" font-size="35" x="90" y="230"> </text><line stroke="black" stroke-width="3" x1="120" x2="120" y1="200" y2="240" /><line stroke="black" stroke-width="1" x1="160" x2="160" y1="200" y2="240" /><line stroke="black" stroke-width="1" x1="120" x2="160" y1="240" y2="240" /><text font-family="Arial" font-size="35" x="130" y="230"> </text><line stroke="black" stroke-width="1" x1="200" x2="200" y1="200" y2="240" /><line stroke="black" stroke-width="1" x1="160" x2="200" y1="240" y2="240" /><text font-family="Arial" font-size="35" x="170" y="230"> </text><line stroke="black" stroke-width="1" x1="240" x2="240" y1="200" y2="240" /><line stroke="black" stroke-width="1" x1="200" x2="240" y1="240" y2="240" /><text font-family="Arial" font-size="35" x="210" y="230"> </text><line stroke="black" stroke-width="3" x1="240" x2="240" y1="200" y2="240" /><line stroke="black" stroke-width="1" x1="280" x2="280" y1="200" y2="240" /><line stroke="black" stroke-width="1" x1="240" x2="280" y1="240" y2="240" /><text font-family="Arial" font-size="35" x="250" y="230">9</text><line stroke="black" stroke-width="1" x1="320" x2="320" y1="200" y2="240" /><line stroke="black" stroke-width="1" x1="280" x2="320" y1="240" y2="240" /><text font-family="Arial" font-size="35" x="290" y="230"> </text><line stroke="black" stroke-width="1" x1="360" x2="360" y1="200" y2="240" /><line stroke="black" stroke-width="1" x1="320" x2="360" y1="240" y2="240" /><text font-family="Arial" font-size="35" x="330" y="230"> </text><line stroke="black" stroke-width="3" x1="0" x2="40" y1="240" y2="240" /><line stroke="black" stroke-width="1" x1="40" x2="40" y1="240" y2="280" /><line stroke="black" stroke-width="1" x1="0" x2="40" y1="280" y2="280" /><text font-family="Arial" font-size="35" x="10" y="270"> </text><line stroke="black" stroke-width="3" x1="40" x2="80" y1="240" y2="240" /><line stroke="black" stroke-width="1" x1="80" x2="80" y1="240" y2="280" /><line stroke="black" stroke-width="1" x1="40" x2="80" y1="280" y2="280" /><text font-family="Arial" font-size="35" x="50" y="270">6</text><line stroke="black" stroke-width="3" x1="80" x2="120" y1="240" y2="240" /><line stroke="black" stroke-width="1" x1="120" x2="120" y1="240" y2="280" /><line stroke="black" stroke-width="1" x1="80" x2="120" y1="280" y2="280" /><text font-family="Arial" font-size="35" x="90" y="270"> </text><line stroke="black" stroke-width="3" x1="120" x2="160" y1="240" y2="240" /><line stroke="black" stroke-width="3" x1="120" x2="120" y1="240" y2="280" /><line stroke="black" stroke-width="1" x1="160" x2="160" y1="240" y2="280" /><line stroke="black" stroke-width="1" x1="120" x2="160" y1="280" y2="280" /><text font-family="Arial" font-size="35" x="130" y="270"> </text><line stroke="black" stroke-width="3" x1="160" x2="200" y1="240" y2="240" /><line stroke="black" stroke-width="1" x1="200" x2="200" y1="240" y2="280" /><line stroke="black" stroke-width="1" x1="160" x2="200" y1="280" y2="280" /><text font-family="Arial" font-size="35" x="170" y="270"> </text><line stroke="black" stroke-width="3" x1="200" x2="240" y1="240" y2="240" /><line stroke="black" stroke-width="1" x1="240" x2="240" y1="240" y2="280" /><line stroke="black" stroke-width="1" x1="200" x2="240" y1="280" y2="280" /><text font-family="Arial" font-size="35" x="210" y="270"> </text><line stroke="black" stroke-width="3" x1="240" x2="280" y1="240" y2="240" /><line stroke="black" stroke-width="3" x1="240" x2="240" y1="240" y2="280" /><line stroke="black" stroke-width="1" x1="280" x2="280" y1="240" y2="280" /><line stroke="black" stroke-width="1" x1="240" x2="280" y1="280" y2="280" /><text font-family="Arial" font-size="35" x="250" y="270">3</text><line stroke="black" stroke-width="3" x1="280" x2="320" y1="240" y2="240" /><line stroke="black" stroke-width="1" x1="320" x2="320" y1="240" y2="280" /><line stroke="black" stroke-width="1" x1="280" x2="320" y1="280" y2="280" /><text font-family="Arial" font-size="35" x="290" y="270"> </text><line stroke="black" stroke-width="3" x1="320" x2="360" y1="240" y2="240" /><line stroke="black" stroke-width="1" x1="360" x2="360" y1="240" y2="280" /><line stroke="black" stroke-width="1" x1="320" x2="360" y1="280" y2="280" /><text font-family="Arial" font-size="35" x="330" y="270"> </text><line stroke="black" stroke-width="1" x1="40" x2="40" y1="280" y2="320" /><line stroke="black" stroke-width="1" x1="0" x2="40" y1="320" y2="320" /><text font-family="Arial" font-size="35" x="10" y="310">2</text><line stroke="black" stroke-width="1" x1="80" x2="80" y1="280" y2="320" /><line stroke="black" stroke-width="1" x1="40" x2="80" y1="320" y2="320" /><text font-family="Arial" font-size="35" x="50" y="310"> </text><line stroke="black" stroke-width="1" x1="120" x2="120" y1="280" y2="320" /><line stroke="black" stroke-width="1" x1="80" x2="120" y1="320" y2="320" /><text font-family="Arial" font-size="35" x="90" y="310"> </text><line stroke="black" stroke-width="3" x1="120" x2="120" y1="280" y2="320" /><line stroke="black" stroke-width="1" x1="160" x2="160" y1="280" y2="320" /><line stroke="black" stroke-width="1" x1="120" x2="160" y1="320" y2="320" /><text font-family="Arial" font-size="35" x="130" y="310"> </text><line stroke="black" stroke-width="1" x1="200" x2="200" y1="280" y2="320" /><line stroke="black" stroke-width="1" x1="160" x2="200" y1="320" y2="320" /><text font-family="Arial" font-size="35" x="170" y="310"> </text><line stroke="black" stroke-width="1" x1="240" x2="240" y1="280" y2="320" /><line stroke="black" stroke-width="1" x1="200" x2="240" y1="320" y2="320" /><text font-family="Arial" font-size="35" x="210" y="310">6</text><line stroke="black" stroke-width="3" x1="240" x2="240" y1="280" y2="320" /><line stroke="black" stroke-width="1" x1="280" x2="280" y1="280" y2="320" /><line stroke="black" stroke-width="1" x1="240" x2="280" y1="320" y2="320" /><text font-family="Arial" font-size="35" x="250" y="310">7</text><line stroke="black" stroke-width="1" x1="320" x2="320" y1="280" y2="320" /><line stroke="black" stroke-width="1" x1="280" x2="320" y1="320" y2="320" /><text font-family="Arial" font-size="35" x="290" y="310"> </text><line stroke="black" stroke-width="1" x1="360" x2="360" y1="280" y2="320" /><line stroke="black" stroke-width="1" x1="320" x2="360" y1="320" y2="320" /><text font-family="Arial" font-size="35" x="330" y="310"> </text><line stroke="black" stroke-width="1" x1="40" x2="40" y1="320" y2="360" /><line stroke="black" stroke-width="1" x1="0" x2="40" y1="360" y2="360" /><text font-family="Arial" font-size="35" x="10" y="350"> </text><line stroke="black" stroke-width="1" x1="80" x2="80" y1="320" y2="360" /><line stroke="black" stroke-width="1" x1="40" x2="80" y1="360" y2="360" /><text font-family="Arial" font-size="35" x="50" y="350">8</text><line stroke="black" stroke-width="1" x1="120" x2="120" y1="320" y2="360" /><line stroke="black" stroke-width="1" x1="80" x2="120" y1="360" y2="360" /><text font-family="Arial" font-size="35" x="90" y="350"> </text><line stroke="black" stroke-width="3" x1="120" x2="120" y1="320" y2="360" /><line stroke="black" stroke-width="1" x1="160" x2="160" y1="320" y2="360" /><line stroke="black" stroke-width="1" x1="120" x2="160" y1="360" y2="360" /><text font-family="Arial" font-size="35" x="130" y="350"> </text><line stroke="black" stroke-width="1" x1="200" x2="200" y1="320" y2="360" /><line stroke="black" stroke-width="1" x1="160" x2="200" y1="360" y2="360" /><text font-family="Arial" font-size="35" x="170" y="350"> </text><line stroke="black" stroke-width="1" x1="240" x2="240" y1="320" y2="360" /><line stroke="black" stroke-width="1" x1="200" x2="240" y1="360" y2="360" /><text font-family="Arial" font-size="35" x="210" y="350"> </text><line stroke="black" stroke-width="3" x1="240" x2="240" y1="320" y2="360" /><line stroke="black" stroke-width="1" x1="280" x2="280" y1="320" y2="360" /><line stroke="black" stroke-width="1" x1="240" x2="280" y1="360" y2="360" /><text font-family="Arial" font-size="35" x="250" y="350"> </text><line stroke="black" stroke-width="1" x1="320" x2="320" y1="320" y2="360" /><line stroke="black" stroke-width="1" x1="280" x2="320" y1="360" y2="360" /><text font-family="Arial" font-size="35" x="290" y="350">4</text><line stroke="black" stroke-width="1" x1="360" x2="360" y1="320" y2="360" /><line stroke="black" stroke-width="1" x1="320" x2="360" y1="360" y2="360" /><text font-family="Arial" font-size="35" x="330" y="350"> </text></svg>