<?xml version="1.0" encoding="utf-8" ?>
<svg baseProfile="full" height="1000" version="1.1" width="1000" xmlns="http://www.w3.org/2000/svg" xmlns:ev="http://www.w3.org/2001/xml-events" xmlns:xlink="http://www.w3.org/1999/xlink"><defs /><rect fill="white" height="1000" stroke="black" stroke-width="2" width="1000" x="0" y="0" /><text font-family="Arial" font-size="20" x="10" y="30"> </text><text font-family="Arial" font-size="20" x="50" y="30"> </text><text font-family="Arial" font-size="20" x="90" y="30"> </text><text font-family="Arial" font-size="20" x="130" y="30"> </text><text font-family="Arial" font-size="20" x="170" y="30"> </text><text font-family="Arial" font-size="20" x="210" y="30"> </text><text font-family="Arial" font-size="20" x="250" y="30"> </text><text font-family="Arial" font-size="20" x="290" y="30"> </text><text font-family="Arial" font-size="20" x="330" y="30"> </text><text font-family="Arial" font-size="20" x="370" y="30"> </text><text font-family="Arial" font-size="20" x="410" y="30"> </text><text font-family="Arial" font-size="20" x="450" y="30"> </text><text font-family="Arial" font-size="20" x="490" y="30"> </text><text font-family="Arial" font-size="20" x="530" y="30"> </text><text font-family="Arial" font-size="20" x="570" y="30"> </text><text font-family="Arial" font-size="20" x="610" y="30"> </text><text font-family="Arial" font-size="20" x="650" y="30"> </text><text font-family="Arial" font-size="20" x="690" y="30"> </text><text font-family="Arial" font-size="20" x="730" y="30"> </text><text font-family="Arial" font-size="20" x="770" y="30"> </text><text font-family="Arial" font-size="20" x="810" y="30"> </text><text font-family="Arial" font-size="20" x="850" y="30"> </text><text font-family="Arial" font-size="20" x="890" y="30"> </text><text font-family="Arial" font-size="20" x="930" y="30"> </text><text font-family="Arial" font-size="20" x="970" y="30"> </text><text font-family="Arial" font-size="20" x="10" y="70"> </text><text font-family="Arial" font-size="20" x="50" y="70"> </text><text font-family="Arial" font-size="20" x="90" y="70"> </text><text font-family="Arial" font-size="20" x="130" y="70"> </text><text font-family="Arial" font-size="20" x="170" y="70"> </text><text font-family="Arial" font-size="20" x="210" y="70"> </text><text font-family="Arial" font-size="20" x="250" y="70"> </text><text font-family="Arial" font-size="20" x="290" y="70"> </text><text font-family="Arial" font-size="20" x="330" y="70"> </text><text font-family="Arial" font-size="20" x="370" y="70"> </text><text font-family="Arial" font-size="20" x="410" y="70"> </text><text font-family="Arial" font-size="20" x="450" y="70"> </text><text font-family="Arial" font-size="20" x="490" y="70"> </text><text font-family="Arial" font-size="20" x="530" y="70"> </text><text font-family="Arial" font-size="20" x="570" y="70"> </text><text font-family="Arial" font-size="20" x="610" y="70"> </text><text font-family="Arial" font-size="20" x="650" y="70"> </text><text font-family="Arial" font-size="20" x="690" y="70"> </text><text font-family="Arial" font-size="20" x="730" y="70"> </text><text font-family="Arial" font-size="20" x="770" y="70"> </text><text font-family="Arial" font-size="20" x="810" y="70"> </text><text font-family="Arial" font-size="20" x="850" y="70"> </text><text font-family="Arial" font-size="20" x="890" y="70"> </text><text font-family="Arial" font-size="20" x="930" y="70"> </text><text font-family="Arial" font-size="20" x="970" y="70"> </text><text font-family="Arial" font-size="20" x="10" y="110"> </text><text font-family="Arial" font-size="20" x="50" y="110"> </text><text font-family="Arial" font-size="20" x="90" y="110"> </text><text font-family="Arial" font-size="20" x="130" y="110"> </text><text font-family="Arial" font-size="20" x="170" y="110"> </text><text font-family="Arial" font-size="20" x="210" y="110"> </text><text font-family="Arial" font-size="20" x="250" y="110"> </text><text font-family="Arial" font-size="20" x="290" y="110"> </text><text font-family="Arial" font-size="20" x="330" y="110"> </text><text font-family="Arial" font-size="20" x="370" y="110"> </text><text font-family="Arial" font-size="20" x="410" y="110"> </text><text font-family="Arial" font-size="20" x="450" y="110"> </text><text font-family="Arial" font-size="20" x="490" y="110"> </text><text font-family="Arial" font-size="20" x="530" y="110"> </text><text font-family="Arial" font-size="20" x="570" y="110"> </text><text font-family="Arial" font-size="20" x="610" y="110"> </text><text font-family="Arial" font-size="20" x="650" y="110"> </text><text font-family="Arial" font-size="20" x="690" y="110"> </text><text font-family="Arial" font-size="20" x="730" y="110"> </text><text font-family="Arial" font-size="20" x="770" y="110"> </text><text font-family="Arial" font-size="20" x="810" y="110"> </text><text font-family="Arial" font-size="20" x="850" y="110"> </text><text font-family="Arial" font-size="20" x="890" y="110"> </text><text font-family="Arial" font-size="20" x="930" y="110"> </text><text font-family="Arial" font-size="20" x="970" y="110"> </text><text font-family="Arial" font-size="20" x="10" y="150"> </text><text font-family="Arial" font-size="20" x="50" y="150"> </text><text font-family="Arial" font-size="20" x="90" y="150"> </text><text font-family="Arial" font-size="20" x="130" y="150"> </text><text font-family="Arial" font-size="20" x="170" y="150"> </text><text font-family="Arial" font-size="20" x="210" y="150"> </text><text font-family="Arial" font-size="20" x="250" y="150"> </text><text font-family="Arial" font-size="20" x="290" y="150"> </text><text font-family="Arial" font-size="20" x="330" y="150"> </text><text font-family="Arial" font-size="20" x="370" y="150"> </text><text font-family="Arial" font-size="20" x="410" y="150"> </text><text font-family="Arial" font-size="20" x="450" y="150"> </text><text font-family="Arial" font-size="20" x="490" y="150"> </text><text font-family="Arial" font-size="20" x="530" y="150"> </text><text font-family="Arial" font-size="20" x="570" y="150"> </text><text font-family="Arial" font-size="20" x="610" y="150"> </text><text font-family="Arial" font-size="20" x="650" y="150"> </text><text font-family="Arial" font-size="20" x="690" y="150"> </text><text font-family="Arial" font-size="20" x="730" y="150"> </text><text font-family="Arial" font-size="20" x="770" y="150"> </text><text font-family="Arial" font-size="20" x="810" y="150"> </text><text font-family="Arial" font-size="20" x="850" y="150"> </text><text font-family="Arial" font-size="20" x="890" y="150"> </text><text font-family="Arial" font-size="20" x="930" y="150"> </text><text font-family="Arial" font-size="20" x="970" y="150"> </text><text font-family="Arial" font-size="20" x="10" y="190"> </text><text font-family="Arial" font-size="20" x="50" y="190"> </text><text font-family="Arial" font-size="20" x="90" y="190"> </text><text font-family="Arial" font-size="20" x="130" y="190"> </text><text font-family="Arial" font-size="20" x="170" y="190"> </text><text font-family="Arial" font-size="20" x="210" y="190"> </text><text font-family="Arial" font-size="20" x="250" y="190"> </text><text font-family="Arial" font-size="20" x="290" y="190"> </text><text font-family="Arial" font-size="20" x="330" y="190"> </text><text font-family="Arial" font-size="20" x="370" y="190"> </text><text font-family="Arial" font-size="20" x="410" y="190"> </text><text font-family="Arial" font-size="20" x="450" y="190"> </text><text font-family="Arial" font-size="20" x="490" y="190"> </text><text font-family="Arial" font-size="20" x="530" y="190"> </text><text font-family="Arial" font-size="20" x="570" y="190"> </text><text font-family="Arial" font-size="20" x="610" y="190"> </text><text font-family="Arial" font-size="20" x="650" y="190"> </text><text font-family="Arial" font-size="20" x="690" y="190"> </text><text font-family="Arial" font-size="20" x="730" y="190"> </text><text font-family="Arial" font-size="20" x="770" y="190"> </text><text font-family="Arial" font-size="20" x="810" y="190"> </text><text font-family="Arial" font-size="20" x="850" y="190"> </text><text font-family="Arial" font-size="20" x="890" y="190"> </text><text font-family="Arial" font-size="20" x="930" y="190"> </text><text font-family="Arial" font-size="20" x="970" y="190"> </text><text font-family="Arial" font-size="20" x="10" y="230"> </text><text font-family="Arial" font-size="20" x="50" y="230"> </text><text font-family="Arial" font-size="20" x="90" y="230"> </text><text font-family="Arial" font-size="20" x="130" y="230"> </text><text font-family="Arial" font-size="20" x="170" y="230"> </text><text font-family="Arial" font-size="20" x="210" y="230"> </text><text font-family="Arial" font-size="20" x="250" y="230"> </text><text font-family="Arial" font-size="20" x="290" y="230"> </text><text font-family="Arial" font-size="20" x="330" y="230"> </text><text font-family="Arial" font-size="20" x="370" y="230"> </text><text font-family="Arial" font-size="20" x="410" y="230"> </text><text font-family="Arial" font-size="20" x="450" y="230"> </text><text font-family="Arial" font-size="20" x="490" y="230"> </text><text font-family="Arial" font-size="20" x="530" y="230"> </text><text font-family="Arial" font-size="20" x="570" y="230"> </text><text font-family="Arial" font-size="20" x="610" y="230"> </text><text font-family="Arial" font-size="20" x="650" y="230"> </text><text font-family="Arial" font-size="20" x="690" y="230"> </text><text font-family="Arial" font-size="20" x="730" y="230"> </text><text font-family="Arial" font-size="20" x="770" y="230"> </text><text font-family="Arial" font-size="20" x="810" y="230"> </text><text font-family="Arial" font-size="20" x="850" y="230"> </text><text font-family="Arial" font-size="20" x="890" y="230"> </text><text font-family="Arial" font-size="20" x="930" y="230"> </text><text font-family="Arial" font-size="20" x="970" y="230"> </text><text font-family="Arial" font-size="20" x="10" y="270"> </text><text font-family="Arial" font-size="20" x="50" y="270"> </text><text font-family="Arial" font-size="20" x="90" y="270"> </text><text font-family="Arial" font-size="20" x="130" y="270"> </text><text font-family="Arial" font-size="20" x="170" y="270"> </text><text font-family="Arial" font-size="20" x="210" y="270"> </text><text font-family="Arial" font-size="20" x="250" y="270"> </text><text font-family="Arial" font-size="20" x="290" y="270"> </text><text font-family="Arial" font-size="20" x="330" y="270"> </text><text font-family="Arial" font-size="20" x="370" y="270"> </text><text font-family="Arial" font-size="20" x="410" y="270"> </text><text font-family="Arial" font-size="20" x="450" y="270"> </text><text font-family="Arial" font-size="20" x="490" y="270"> </text><text font-family="Arial" font-size="20" x="530" y="270"> </text><text font-family="Arial" font-size="20" x="570" y="270"> </text><text font-family="Arial" font-size="20" x="610" y="270"> </text><text font-family="Arial" font-size="20" x="650" y="270"> </text><text font-family="Arial" font-size="20" x="690" y="270"> </text><text font-family="Arial" font-size="20" x="730" y="270"> </text><text font-family="Arial" font-size="20" x="770" y="270"> </text><text font-family="Arial" font-size="20" x="810" y="270">D</text><text font-family="Arial" font-size="20" x="850" y="270"> </text><text font-family="Arial" font-size="20" x="890" y="270"> </text><text font-family="Arial" font-size="20" x="930" y="270"> </text><text font-family="Arial" font-size="20" x="970" y="270"> </text><text font-family="Arial" font-size="20" x="10" y="310"> </text><text font-family="Arial" font-size="20" x="50" y="310"> </text><text font-family="Arial" font-size="20" x="90" y="310"> </text><text font-family="Arial" font-size="20" x="130" y="310"> </text><text font-family="Arial" font-size="20" x="170" y="310"> </text><text font-family="Arial" font-size="20" x="210" y="310"> </text><text font-family="Arial" font-size="20" x="250" y="310">V</text><text font-family="Arial" font-size="20" x="290" y="310"> </text><text font-family="Arial" font-size="20" x="330" y="310"> </text><text font-family="Arial" font-size="20" x="370" y="310"> </text><text font-family="Arial" font-size="20" x="410" y="310"> </text><text font-family="Arial" font-size="20" x="450" y="310"> </text><text font-family="Arial" font-size="20" x="490" y="310"> </text><text font-family="Arial" font-size="20" x="530" y="310"> </text><text font-family="Arial" font-size="20" x="570" y="310"> </text><text font-family="Arial" font-size="20" x="610" y="310"> </text><text font-family="Arial" font-size="20" x="650" y="310"> </text><text font-family="Arial" font-size="20" x="690" y="310"> </text><text font-family="Arial" font-size="20" x="730" y="310"> </text><text font-family="Arial" font-size="20" x="770" y="310"> </text><text font-family="Arial" font-size="20" x="810" y="310">O</text><text font-family="Arial" font-size="20" x="850" y="310"> </text><text font-family="Arial" font-size="20" x="890" y="310"> </text><text font-family="Arial" font-size="20" x="930" y="310"> </text><text font-family="Arial" font-size="20" x="970" y="310"> </text><text font-family="Arial" font-size="20" x="10" y="350"> </text><text font-family="Arial" font-size="20" x="50" y="350"> </text><text font-family="Arial" font-size="20" x="90" y="350"> </text><text font-family="Arial" font-size="20" x="130" y="350"> </text><text font-family="Arial" font-size="20" x="170" y="350"> </text><text font-family="Arial" font-size="20" x="210" y="350"> </text><text font-family="Arial" font-size="20" x="250" y="350"> </text><text font-family="Arial" font-size="20" x="290" y="350">E</text><text font-family="Arial" font-size="20" x="330" y="350"> </text><text font-family="Arial" font-size="20" x="370" y="350"> </text><text font-family="Arial" font-size="20" x="410" y="350"> </text><text font-family="Arial" font-size="20" x="450" y="350"> </text><text font-family="Arial" font-size="20" x="490" y="350"> </text><text font-family="Arial" font-size="20" x="530" y="350"> </text><text font-family="Arial" font-size="20" x="570" y="350"> </text><text font-family="Arial" font-size="20" x="610" y="350"> </text><text font-family="Arial" font-size="20" x="650" y="350"> </text><text font-family="Arial" font-size="20" x="690" y="350"> </text><text font-family="Arial" font-size="20" x="730" y="350"> </text><text font-family="Arial" font-size="20" x="770" y="350"> </text><text font-family="Arial" font-size="20" x="810" y="350">L</text><text font-family="Arial" font-size="20" x="850" y="350"> </text><text font-family="Arial" font-size="20" x="890" y="350"> </text><text font-family="Arial" font-size="20" x="930" y="350"> </text><text font-family="Arial" font-size="20" x="970" y="350"> </text><text font-family="Arial" font-size="20" x="10" y="390"> </text><text font-family="Arial" font-size="20" x="50" y="390"> </text><text font-family="Arial" font-size="20" x="90" y="390"> </text><text font-family="Arial" font-size="20" x="130" y="390"> </text><text font-family="Arial" font-size="20" x="170" y="390"> </text><text font-family="Arial" font-size="20" x="210" y="390"> </text><text font-family="Arial" font-size="20" x="250" y="390"> </text><text font-family="Arial" font-size="20" x="290" y="390"> </text><text font-family="Arial" font-size="20" x="330" y="390">S</text><text font-family="Arial" font-size="20" x="370" y="390"> </text><text font-family="Arial" font-size="20" x="410" y="390"> </text><text font-family="Arial" font-size="20" x="450" y="390"> </text><text font-family="Arial" font-size="20" x="490" y="390"> </text><text font-family="Arial" font-size="20" x="530" y="390"> </text><text font-family="Arial" font-size="20" x="570" y="390"> </text><text font-family="Arial" font-size="20" x="610" y="390"> </text><text font-family="Arial" font-size="20" x="650" y="390"> </text><text font-family="Arial" font-size="20" x="690" y="390"> </text><text font-family="Arial" font-size="20" x="730" y="390"> </text><text font-family="Arial" font-size="20" x="770" y="390"> </text><text font-family="Arial" font-size="20" x="810" y="390">O</text><text font-family="Arial" font-size="20" x="850" y="390"> </text><text font-family="Arial" font-size="20" x="890" y="390"> </text><text font-family="Arial" font-size="20" x="930" y="390"> </text><text font-family="Arial" font-size="20" x="970" y="390"> </text><text font-family="Arial" font-size="20" x="10" y="430"> </text><text font-family="Arial" font-size="20" x="50" y="430"> </text><text font-family="Arial" font-size="20" x="90" y="430"> </text><text font-family="Arial" font-size="20" x="130" y="430"> </text><text font-family="Arial" font-size="20" x="170" y="430"> </text><text font-family="Arial" font-size="20" x="210" y="430"> </text><text font-family="Arial" font-size="20" x="250" y="430"> </text><text font-family="Arial" font-size="20" x="290" y="430"> </text><text font-family="Arial" font-size="20" x="330" y="430"> </text><text font-family="Arial" font-size="20" x="370" y="430">U</text><text font-family="Arial" font-size="20" x="410" y="430"> </text><text font-family="Arial" font-size="20" x="450" y="430"> </text><text font-family="Arial" font-size="20" x="490" y="430"> </text><text font-family="Arial" font-size="20" x="530" y="430"> </text><text font-family="Arial" font-size="20" x="570" y="430"> </text><text font-family="Arial" font-size="20" x="610" y="430"> </text><text font-family="Arial" font-size="20" x="650" y="430"> </text><text font-family="Arial" font-size="20" x="690" y="430"> </text><text font-family="Arial" font-size="20" x="730" y="430"> </text><text font-family="Arial" font-size="20" x="770" y="430"> </text><text font-family="Arial" font-size="20" x="810" y="430">M</text><text font-family="Arial" font-size="20" x="850" y="430"> </text><text font-family="Arial" font-size="20" x="890" y="430"> </text><text font-family="Arial" font-size="20" x="930" y="430"> </text><text font-family="Arial" font-size="20" x="970" y="430"> </text><text font-family="Arial" font-size="20" x="10" y="470"> </text><text font-family="Arial" font-size="20" x="50" y="470"> </text><text font-family="Arial" font-size="20" x="90" y="470"> </text><text font-family="Arial" font-size="20" x="130" y="470"> </text><text font-family="Arial" font-size="20" x="170" y="470"> </text><text font-family="Arial" font-size="20" x="210" y="470"> </text><text font-family="Arial" font-size="20" x="250" y="470"> </text><text font-family="Arial" font-size="20" x="290" y="470"> </text><text font-family="Arial" font-size="20" x="330" y="470"> </text><text font-family="Arial" font-size="20" x="370" y="470"> </text><text font-family="Arial" font-size="20" x="410" y="470">V</text><text font-family="Arial" font-size="20" x="450" y="470"> </text><text font-family="Arial" font-size="20" x="490" y="470"> </text><text font-family="Arial" font-size="20" x="530" y="470"> </text><text font-family="Arial" font-size="20" x="570" y="470"> </text><text font-family="Arial" font-size="20" x="610" y="470"> </text><text font-family="Arial" font-size="20" x="650" y="470"> </text><text font-family="Arial" font-size="20" x="690" y="470"> </text><text font-family="Arial" font-size="20" x="730" y="470"> </text><text font-family="Arial" font-size="20" x="770" y="470"> </text><text font-family="Arial" font-size="20" x="810" y="470">I</text><text font-family="Arial" font-size="20" x="850" y="470"> </text><text font-family="Arial" font-size="20" x="890" y="470"> </text><text font-family="Arial" font-size="20" x="930" y="470"> </text><text font-family="Arial" font-size="20" x="970" y="470"> </text><text font-family="Arial" font-size="20" x="10" y="510"> </text><text font-family="Arial" font-size="20" x="50" y="510"> </text><text font-family="Arial" font-size="20" x="90" y="510"> </text><text font-family="Arial" font-size="20" x="130" y="510"> </text><text font-family="Arial" font-size="20" x="170" y="510"> </text><text font-family="Arial" font-size="20" x="210" y="510"> </text><text font-family="Arial" font-size="20" x="250" y="510"> </text><text font-family="Arial" font-size="20" x="290" y="510"> </text><text font-family="Arial" font-size="20" x="330" y="510"> </text><text font-family="Arial" font-size="20" x="370" y="510"> </text><text font-family="Arial" font-size="20" x="410" y="510"> </text><text font-family="Arial" font-size="20" x="450" y="510">I</text><text font-family="Arial" font-size="20" x="490" y="510"> </text><text font-family="Arial" font-size="20" x="530" y="510"> </text><text font-family="Arial" font-size="20" x="570" y="510"> </text><text font-family="Arial" font-size="20" x="610" y="510"> </text><text font-family="Arial" font-size="20" x="650" y="510"> </text><text font-family="Arial" font-size="20" x="690" y="510"> </text><text font-family="Arial" font-size="20" x="730" y="510"> </text><text font-family="Arial" font-size="20" x="770" y="510"> </text><text font-family="Arial" font-size="20" x="810" y="510">T</text><text font-family="Arial" font-size="20" x="850" y="510"> </text><text font-family="Arial" font-size="20" x="890" y="510"> </text><text font-family="Arial" font-size="20" x="930" y="510"> </text><text font-family="Arial" font-size="20" x="970" y="510"> </text><text font-family="Arial" font-size="20" x="10" y="550"> </text><text font-family="Arial" font-size="20" x="50" y="550"> </text><text font-family="Arial" font-size="20" x="90" y="550"> </text><text font-family="Arial" font-size="20" x="130" y="550"> </text><text font-family="Arial" font-size="20" x="170" y="550"> </text><text font-family="Arial" font-size="20" x="210" y="550"> </text><text font-family="Arial" font-size="20" x="250" y="550"> </text><text font-family="Arial" font-size="20" x="290" y="550"> </text><text font-family="Arial" font-size="20" x="330" y="550"> </text><text font-family="Arial" font-size="20" x="370" y="550"> </text><text font-family="Arial" font-size="20" x="410" y="550"> </text><text font-family="Arial" font-size="20" x="450" y="550"> </text><text font-family="Arial" font-size="20" x="490" y="550">U</text><text font-family="Arial" font-size="20" x="530" y="550"> </text><text font-family="Arial" font-size="20" x="570" y="550"> </text><text font-family="Arial" font-size="20" x="610" y="550"> </text><text font-family="Arial" font-size="20" x="650" y="550"> </text><text font-family="Arial" font-size="20" x="690" y="550"> </text><text font-family="Arial" font-size="20" x="730" y="550"> </text><text font-family="Arial" font-size="20" x="770" y="550"> </text><text font-family="Arial" font-size="20" x="810" y="550">E</text><text font-family="Arial" font-size="20" x="850" y="550"> </text><text font-family="Arial" font-size="20" x="890" y="550"> </text><text font-family="Arial" font-size="20" x="930" y="550"> </text><text font-family="Arial" font-size="20" x="970" y="550"> </text><text font-family="Arial" font-size="20" x="10" y="590"> </text><text font-family="Arial" font-size="20" x="50" y="590"> </text><text font-family="Arial" font-size="20" x="90" y="590"> </text><text font-family="Arial" font-size="20" x="130" y="590"> </text><text font-family="Arial" font-size="20" x="170" y="590"> </text><text font-family="Arial" font-size="20" x="210" y="590"> </text><text font-family="Arial" font-size="20" x="250" y="590"> </text><text font-family="Arial" font-size="20" x="290" y="590"> </text><text font-family="Arial" font-size="20" x="330" y="590"> </text><text font-family="Arial" font-size="20" x="370" y="590"> </text><text font-family="Arial" font-size="20" x="410" y="590"> </text><text font-family="Arial" font-size="20" x="450" y="590"> </text><text font-family="Arial" font-size="20" x="490" y="590"> </text><text font-family="Arial" font-size="20" x="530" y="590">S</text><text font-family="Arial" font-size="20" x="570" y="590"> </text><text font-family="Arial" font-size="20" x="610" y="590"> </text><text font-family="Arial" font-size="20" x="650" y="590"> </text><text font-family="Arial" font-size="20" x="690" y="590"> </text><text font-family="Arial" font-size="20" x="730" y="590"> </text><text font-family="Arial" font-size="20" x="770" y="590"> </text><text font-family="Arial" font-size="20" x="810" y="590">S</text><text font-family="Arial" font-size="20" x="850" y="590"> </text><text font-family="Arial" font-size="20" x="890" y="590"> </text><text font-family="Arial" font-size="20" x="930" y="590"> </text><text font-family="Arial" font-size="20" x="970" y="590"> </text><text font-family="Arial" font-size="20" x="10" y="630"> </text><text font-family="Arial" font-size="20" x="50" y="630"> </text><text font-family="Arial" font-size="20" x="90" y="630"> </text><text font-family="Arial" font-size="20" x="130" y="630"> </text><text font-family="Arial" font-size="20" x="170" y="630"> </text><text font-family="Arial" font-size="20" x="210" y="630"> </text><text font-family="Arial" font-size="20" x="250" y="630"> </text><text font-family="Arial" font-size="20" x="290" y="630"> </text><text font-family="Arial" font-size="20" x="330" y="630"> </text><text font-family="Arial" font-size="20" x="370" y="630"> </text><text font-family="Arial" font-size="20" x="410" y="630"> </text><text font-family="Arial" font-size="20" x="450" y="630"> </text><text font-family="Arial" font-size="20" x="490" y="630"> </text><text font-family="Arial" font-size="20" x="530" y="630"> </text><text font-family="Arial" font-size="20" x="570" y="630"> </text><text font-family="Arial" font-size="20" x="610" y="630"> </text><text font-family="Arial" font-size="20" x="650" y="630"> </text><text font-family="Arial" font-size="20" x="690" y="630"> </text><text font-family="Arial" font-size="20" x="730" y="630"> </text><text font-family="Arial" font-size="20" x="770" y="630"> </text><text font-family="Arial" font-size="20" x="810" y="630"> </text><text font-family="Arial" font-size="20" x="850" y="630"> </text><text font-family="Arial" font-size="20" x="890" y="630"> </text><text font-family="Arial" font-size="20" x="930" y="630"> </text><text font-family="Arial" font-size="20" x="970" y="630"> </text><text font-family="Arial" font-size="20" x="10" y="670"> </text><text font-family="Arial" font-size="20" x="50" y="670"> </text><text font-family="Arial" font-size="20" x="90" y="670"> </text><text font-family="Arial" font-size="20" x="130" y="670"> </text><text font-family="Arial" font-size="20" x="170" y="670"> </text><text font-family="Arial" font-size="20" x="210" y="670"> </text><text font-family="Arial" font-size="20" x="250" y="670"> </text><text font-family="Arial" font-size="20" x="290" y="670"> </text><text font-family="Arial" font-size="20" x="330" y="670"> </text><text font-family="Arial" font-size="20" x="370" y="670"> </text><text font-family="Arial" font-size="20" x="410" y="670"> </text><text font-family="Arial" font-size="20" x="450" y="670"> </text><text font-family="Arial" font-size="20" x="490" y="670"> </text><text font-family="Arial" font-size="20" x="530" y="670"> </text><text font-family="Arial" font-size="20" x="570" y="670"> </text><text font-family="Arial" font-size="20" x="610" y="670"> </text><text font-family="Arial" font-size="20" x="650" y="670"> </text><text font-family="Arial" font-size="20" x="690" y="670"> </text><text font-family="Arial" font-size="20" x="730" y="670"> </text><text font-family="Arial" font-size="20" x="770" y="670"> </text><text font-family="Arial" font-size="20" x="810" y="670"> </text><text font-family="Arial" font-size="20" x="850" y="670"> </text><text font-family="Arial" font-size="20" x="890" y="670"> </text><text font-family="Arial" font-size="20" x="930" y="670"> </text><text font-family="Arial" font-size="20" x="970" y="670"> </text><text font-family="Arial" font-size="20" x="10" y="710"> </text><text font-family="Arial" font-size="20" x="50" y="710"> </text><text font-family="Arial" font-size="20" x="90" y="710"> </text><text font-family="Arial" font-size="20" x="130" y="710"> </text><text font-family="Arial" font-size="20" x="170" y="710"> </text><text font-family="Arial" font-size="20" x="210" y="710"> </text><text font-family="Arial" font-size="20" x="250" y="710"> </text><text font-family="Arial" font-size="20" x="290" y="710"> </text><text font-family="Arial" font-size="20" x="330" y="710"> </text><text font-family="Arial" font-size="20" x="370" y="710"> </text><text font-family="Arial" font-size="20" x="410" y="710"> </text><text font-family="Arial" font-size="20" x="450" y="710"> </text><text font-family="Arial" font-size="20" x="490" y="710"> </text><text font-family="Arial" font-size="20" x="530" y="710"> </text><text font-family="Arial" font-size="20" x="570" y="710"> </text><text font-family="Arial" font-size="20" x="610" y="710"> </text><text font-family="Arial" font-size="20" x="650" y="710"> </text><text font-family="Arial" font-size="20" x="690" y="710"> </text><text font-family="Arial" font-size="20" x="730" y="710"> </text><text font-family="Arial" font-size="20" x="770" y="710"> </text><text font-family="Arial" font-size="20" x="810" y="710"> </text><text font-family="Arial" font-size="20" x="850" y="710"> </text><text font-family="Arial" font-size="20" x="890" y="710"> </text><text font-family="Arial" font-size="20" x="930" y="710"> </text><text font-family="Arial" font-size="20" x="970" y="710"> </text><text font-family="Arial" font-size="20" x="10" y="750"> </text><text font-family="Arial" font-size="20" x="50" y="750"> </text><text font-family="Arial" font-size="20" x="90" y="750"> </text><text font-family="Arial" font-size="20" x="130" y="750"> </text><text font-family="Arial" font-size="20" x="170" y="750"> </text><text font-family="Arial" font-size="20" x="210" y="750"> </text><text font-family="Arial" font-size="20" x="250" y="750"> </text><text font-family="Arial" font-size="20" x="290" y="750"> </text><text font-family="Arial" font-size="20" x="330" y="750"> </text><text font-family="Arial" font-size="20" x="370" y="750"> </text><text font-family="Arial" font-size="20" x="410" y="750"> </text><text font-family="Arial" font-size="20" x="450" y="750"> </text><text font-family="Arial" font-size="20" x="490" y="750"> </text><text font-family="Arial" font-size="20" x="530" y="750"> </text><text font-family="Arial" font-size="20" x="570" y="750"> </text><text font-family="Arial" font-size="20" x="610" y="750"> </text><text font-family="Arial" font-size="20" x="650" y="750"> </text><text font-family="Arial" font-size="20" x="690" y="750"> </text><text font-family="Arial" font-size="20" x="730" y="750"> </text><text font-family="Arial" font-size="20" x="770" y="750"> </text><text font-family="Arial" font-size="20" x="810" y="750"> </text><text font-family="Arial" font-size="20" x="850" y="750"> </text><text font-family="Arial" font-size="20" x="890" y="750"> </text><text font-family="Arial" font-size="20" x="930" y="750"> </text><text font-family="Arial" font-size="20" x="970" y="750"> </text><text font-family="Arial" font-size="20" x="10" y="790"> </text><text font-family="Arial" font-size="20" x="50" y="790"> </text><text font-family="Arial" font-size="20" x="90" y="790"> </text><text font-family="Arial" font-size="20" x="130" y="790"> </text><text font-family="Arial" font-size="20" x="170" y="790"> </text><text font-family="Arial" font-size="20" x="210" y="790"> </text><text font-family="Arial" font-size="20" x="250" y="790"> </text><text font-family="Arial" font-size="20" x="290" y="790"> </text><text font-family="Arial" font-size="20" x="330" y="790"> </text><text font-family="Arial" font-size="20" x="370" y="790"> </text><text font-family="Arial" font-size="20" x="410" y="790"> </text><text font-family="Arial" font-size="20" x="450" y="790"> </text><text font-family="Arial" font-size="20" x="490" y="790"> </text><text font-family="Arial" font-size="20" x="530" y="790"> </text><text font-family="Arial" font-size="20" x="570" y="790"> </text><text font-family="Arial" font-size="20" x="610" y="790"> </text><text font-family="Arial" font-size="20" x="650" y="790"> </text><text font-family="Arial" font-size="20" x="690" y="790"> </text><text font-family="Arial" font-size="20" x="730" y="790"> </text><text font-family="Arial" font-size="20" x="770" y="790"> </text><text font-family="Arial" font-size="20" x="810" y="790"> </text><text font-family="Arial" font-size="20" x="850" y="790"> </text><text font-family="Arial" font-size="20" x="890" y="790"> </text><text font-family="Arial" font-size="20" x="930" y="790"> </text><text font-family="Arial" font-size="20" x="970" y="790"> </text><text font-family="Arial" font-size="20" x="10" y="830"> </text><text font-family="Arial" font-size="20" x="50" y="830"> </text><text font-family="Arial" font-size="20" x="90" y="830"> </text><text font-family="Arial" font-size="20" x="130" y="830"> </text><text font-family="Arial" font-size="20" x="170" y="830"> </text><text font-family="Arial" font-size="20" x="210" y="830"> </text><text font-family="Arial" font-size="20" x="250" y="830"> </text><text font-family="Arial" font-size="20" x="290" y="830"> </text><text font-family="Arial" font-size="20" x="330" y="830"> </text><text font-family="Arial" font-size="20" x="370" y="830"> </text><text font-family="Arial" font-size="20" x="410" y="830"> </text><text font-family="Arial" font-size="20" x="450" y="830"> </text><text font-family="Arial" font-size="20" x="490" y="830"> </text><text font-family="Arial" font-size="20" x="530" y="830"> </text><text font-family="Arial" font-size="20" x="570" y="830"> </text><text font-family="Arial" font-size="20" x="610" y="830"> </text><text font-family="Arial" font-size="20" x="650" y="830"> </text><text font-family="Arial" font-size="20" x="690" y="830"> </text><text font-family="Arial" font-size="20" x="730" y="830"> </text><text font-family="Arial" font-size="20" x="770" y="830"> </text><text font-family="Arial" font-size="20" x="810" y="830"> </text><text font-family="Arial" font-size="20" x="850" y="830"> </text><text font-family="Arial" font-size="20" x="890" y="830"> </text><text font-family="Arial" font-size="20" x="930" y="830"> </text><text font-family="Arial" font-size="20" x="970" y="830"> </text><text font-family="Arial" font-size="20" x="10" y="870"> </text><text font-family="Arial" font-size="20" x="50" y="870"> </text><text font-family="Arial" font-size="20" x="90" y="870"> </text><text font-family="Arial" font-size="20" x="130" y="870"> </text><text font-family="Arial" font-size="20" x="170" y="870"> </text><text font-family="Arial" font-size="20" x="210" y="870"> </text><text font-family="Arial" font-size="20" x="250" y="870"> </text><text font-family="Arial" font-size="20" x="290" y="870"> </text><text font-family="Arial" font-size="20" x="330" y="870"> </text><text font-family="Arial" font-size="20" x="370" y="870"> </text><text font-family="Arial" font-size="20" x="410" y="870"> </text><text font-family="Arial" font-size="20" x="450" y="870"> </text><text font-family="Arial" font-size="20" x="490" y="870"> </text><text font-family="Arial" font-size="20" x="530" y="870"> </text><text font-family="Arial" font-size="20" x="570" y="870"> </text><text font-family="Arial" font-size="20" x="610" y="870"> </text><text font-family="Arial" font-size="20" x="650" y="870"> </text><text font-family="Arial" font-size="20" x="690" y="870"> </text><text font-family="Arial" font-size="20" x="730" y="870"> </text><text font-family="Arial" font-size="20" x="770" y="870"> </text><text font-family="Arial" font-size="20" x="810" y="870"> </text><text font-family="Arial" font-size="20" x="850" y="870"> </text><text font-family="Arial" font-size="20" x="890" y="870"> </text><text font-family="Arial" font-size="20" x="930" y="870"> </text><text font-family="Arial" font-size="20" x="970" y="870"> </text><text font-family="Arial" font-size="20" x="10" y="910"> </text><text font-family="Arial" font-size="20" x="50" y="910"> </text><text font-family="Arial" font-size="20" x="90" y="910"> </text><text font-family="Arial" font-size="20" x="130" y="910"> </text><text font-family="Arial" font-size="20" x="170" y="910"> </text><text font-family="Arial" font-size="20" x="210" y="910"> </text><text font-family="Arial" font-size="20" x="250" y="910"> </text><text font-family="Arial" font-size="20" x="290" y="910"> </text><text font-family="Arial" font-size="20" x="330" y="910"> </text><text font-family="Arial" font-size="20" x="370" y="910"> </text><text font-family="Arial" font-size="20" x="410" y="910"> </text><text font-family="Arial" font-size="20" x="450" y="910"> </text><text font-family="Arial" font-size="20" x="490" y="910"> </text><text font-family="Arial" font-size="20" x="530" y="910"> </text><text font-family="Arial" font-size="20" x="570" y="910"> </text><text font-family="Arial" font-size="20" x="610" y="910"> </text><text font-family="Arial" font-size="20" x="650" y="910"> </text><text font-family="Arial" font-size="20" x="690" y="910"> </text><text font-family="Arial" font-size="20" x="730" y="910"> </text><text font-family="Arial" font-size="20" x="770" y="910"> </text><text font-family="Arial" font-size="20" x="810" y="910"> </text><text font-family="Arial" font-size="20" x="850" y="910"> </text><text font-family="Arial" font-size="20" x="890" y="910"> </text><text font-family="Arial" font-size="20" x="930" y="910"> </text><text font-family="Arial" font-size="20" x="970" y="910"> </text><text font-family="Arial" font-size="20" x="10" y="950"> </text><text font-family="Arial" font-size="20" x="50" y="950"> </text><text font-family="Arial" font-size="20" x="90" y="950"> </text><text font-family="Arial" font-size="20" x="130" y="950"> </text><text font-family="Arial" font-size="20" x="170" y="950"> </text><text font-family="Arial" font-size="20" x="210" y="950"> </text><text font-family="Arial" font-size="20" x="250" y="950"> </text><text font-family="Arial" font-size="20" x="290" y="950"> </text><text font-family="Arial" font-size="20" x="330" y="950"> </text><text font-family="Arial" font-size="20" x="370" y="950"> </text><text font-family="Arial" font-size="20" x="410" y="950"> </text><text font-family="Arial" font-size="20" x="450" y="950"> </text><text font-family="Arial" font-size="20" x="490" y="950"> </text><text font-family="Arial" font-size="20" x="530" y="950"> </text><text font-family="Arial" font-size="20" x="570" y="950"> </text><text font-family="Arial" font-size="20" x="610" y="950"> </text><text font-family="Arial" font-size="20" x="650" y="950"> </text><text font-family="Arial" font-size="20" x="690" y="950"> </text><text font-family="Arial" font-size="20" x="730" y="950"> </text><text font-family="Arial" font-size="20" x="770" y="950"> </text><text font-family="Arial" font-size="20" x="810" y="950"> </text><text font-family="Arial" font-size="20" x="850" y="950"> </text><text font-family="Arial" font-size="20" x="890" y="950"> </text><text font-family="Arial" font-size="20" x="930" y="950"> </text><text font-family="Arial" font-size="20" x="970" y="950"> </text><text font-family="Arial" font-size="20" x="10" y="990"> </text><text font-family="Arial" font-size="20" x="50" y="990"> </text><text font-family="Arial" font-size="20" x="90" y="990"> </text><text font-family="Arial" font-size="20" x="130" y="990"> </text><text font-family="Arial" font-size="20" x="170" y="990"> </text><text font-family="Arial" font-size="20" x="210" y="990"> </text><text font-family="Arial" font-size="20" x="250" y="990"> </text><text font-family="Arial" font-size="20" x="290" y="990"> </text><text font-family="Arial" font-size="20" x="330" y="990"> </text><text font-family="Arial" font-size="20" x="370" y="990"> </text><text font-family="Arial" font-size="20" x="410" y="990"> </text><text font-family="Arial" font-size="20" x="450" y="990"> </text><text font-family="Arial" font-size="20" x="490" y="990"> </text><text font-family="Arial" font-size="20" x="530" y="990"> </text><text font-family="Arial" font-size="20" x="570" y="990"> </text><text font-family="Arial" font-size="20" x="610" y="990"> </text><text font-family="Arial" font-size="20" x="650" y="990"> </text><text font-family="Arial" font-size="20" x="690" y="990"> </text><text font-family="Arial" font-size="20" x="730" y="990"> </text><text font-family="Arial" font-size="20" x="770" y="990"> </text><text font-family="Arial" font-size="20" x="810" y="990"> </text><text font-family="Arial" font-size="20" x="850" y="990"> </text><text font-family="Arial" font-size="20" x="890" y="990"> </text><text font-family="Arial" font-size="20" x="930" y="990"> </text><text font-family="Arial" font-size="20" x="970" y="990"> </text></svg>