<?xml version="1.0" encoding="utf-8" ?>
<svg baseProfile="full" height="1780" version="1.1" width="1000" xmlns="http://www.w3.org/2000/svg" xmlns:ev="http://www.w3.org/2001/xml-events" xmlns:xlink="http://www.w3.org/1999/xlink"><defs /><rect fill="white" height="1000" stroke="black" stroke-width="2" width="1000" x="0" y="0" /><text font-family="Arial" font-size="35" x="10" y="30">K</text><text font-family="Arial" font-size="35" x="50" y="30">D</text><text font-family="Arial" font-size="35" x="90" y="30">N</text><text font-family="Arial" font-size="35" x="130" y="30">C</text><text font-family="Arial" font-size="35" x="170" y="30">X</text><text font-family="Arial" font-size="35" x="210" y="30">X</text><text font-family="Arial" font-size="35" x="250" y="30">K</text><text font-family="Arial" font-size="35" x="290" y="30">O</text><text font-family="Arial" font-size="35" x="330" y="30">V</text><text font-family="Arial" font-size="35" x="370" y="30">M</text><text font-family="Arial" font-size="35" x="410" y="30">H</text><text font-family="Arial" font-size="35" x="450" y="30">K</text><text font-family="Arial" font-size="35" x="490" y="30">K</text><text font-family="Arial" font-size="35" x="530" y="30">O</text><text font-family="Arial" font-size="35" x="570" y="30">V</text><text font-family="Arial" font-size="35" x="610" y="30">O</text><text font-family="Arial" font-size="35" x="650" y="30">L</text><text font-family="Arial" font-size="35" x="690" y="30">H</text><text font-family="Arial" font-size="35" x="730" y="30">C</text><text font-family="Arial" font-size="35" x="770" y="30">T</text><text font-family="Arial" font-size="35" x="810" y="30">D</text><text font-family="Arial" font-size="35" x="850" y="30">B</text><text font-family="Arial" font-size="35" x="890" y="30">U</text><text font-family="Arial" font-size="35" x="930" y="30">X</text><text font-family="Arial" font-size="35" x="970" y="30">C</text><text font-family="Arial" font-size="35" x="10" y="70">O</text><text font-family="Arial" font-size="35" x="50" y="70">Z</text><text font-family="Arial" font-size="35" x="90" y="70">R</text><text font-family="Arial" font-size="35" x="130" y="70">A</text><text font-family="Arial" font-size="35" x="170" y="70">E</text><text font-family="Arial" font-size="35" x="210" y="70">N</text><text font-family="Arial" font-size="35" x="250" y="70">W</text><text font-family="Arial" font-size="35" x="290" y="70">J</text><text font-family="Arial" font-size="35" x="330" y="70">Q</text><text font-family="Arial" font-size="35" x="370" y="70">S</text><text font-family="Arial" font-size="35" x="410" y="70">I</text><text font-family="Arial" font-size="35" x="450" y="70">V</text><text font-family="Arial" font-size="35" x="490" y="70">Y</text><text font-family="Arial" font-size="35" x="530" y="70">U</text><text font-family="Arial" font-size="35" x="570" y="70">S</text><text font-family="Arial" font-size="35" x="610" y="70">D</text><text font-family="Arial" font-size="35" x="650" y="70">P</text><text font-family="Arial" font-size="35" x="690" y="70">G</text><text font-family="Arial" font-size="35" x="730" y="70">G</text><text font-family="Arial" font-size="35" x="770" y="70">U</text><text font-family="Arial" font-size="35" x="810" y="70">O</text><text font-family="Arial" font-size="35" x="850" y="70">Y</text><text font-family="Arial" font-size="35" x="890" y="70">Y</text><text font-family="Arial" font-size="35" x="930" y="70">W</text><text font-family="Arial" font-size="35" x="970" y="70">F</text><text font-family="Arial" font-size="35" x="10" y="110">P</text><text font-family="Arial" font-size="35" x="50" y="110">G</text><text font-family="Arial" font-size="35" x="90" y="110">P</text><text font-family="Arial" font-size="35" x="130" y="110">B</text><text font-family="Arial" font-size="35" x="170" y="110">K</text><text font-family="Arial" font-size="35" x="210" y="110">C</text><text font-family="Arial" font-size="35" x="250" y="110">X</text><text font-family="Arial" font-size="35" x="290" y="110">N</text><text font-family="Arial" font-size="35" x="330" y="110">J</text><text font-family="Arial" font-size="35" x="370" y="110">V</text><text font-family="Arial" font-size="35" x="410" y="110">G</text><text font-family="Arial" font-size="35" x="450" y="110">V</text><text font-family="Arial" font-size="35" x="490" y="110">R</text><text font-family="Arial" font-size="35" x="530" y="110">E</text><text font-family="Arial" font-size="35" x="570" y="110">J</text><text font-family="Arial" font-size="35" x="610" y="110">J</text><text font-family="Arial" font-size="35" x="650" y="110">M</text><text font-family="Arial" font-size="35" x="690" y="110">S</text><text font-family="Arial" font-size="35" x="730" y="110">I</text><text font-family="Arial" font-size="35" x="770" y="110">C</text><text font-family="Arial" font-size="35" x="810" y="110">I</text><text font-family="Arial" font-size="35" x="850" y="110">L</text><text font-family="Arial" font-size="35" x="890" y="110">I</text><text font-family="Arial" font-size="35" x="930" y="110">A</text><text font-family="Arial" font-size="35" x="970" y="110">N</text><text font-family="Arial" font-size="35" x="10" y="150">A</text><text font-family="Arial" font-size="35" x="50" y="150">Z</text><text font-family="Arial" font-size="35" x="90" y="150">O</text><text font-family="Arial" font-size="35" x="130" y="150">R</text><text font-family="Arial" font-size="35" x="170" y="150">Z</text><text font-family="Arial" font-size="35" x="210" y="150">X</text><text font-family="Arial" font-size="35" x="250" y="150">R</text><text font-family="Arial" font-size="35" x="290" y="150">C</text><text font-family="Arial" font-size="35" x="330" y="150">Z</text><text font-family="Arial" font-size="35" x="370" y="150">L</text><text font-family="Arial" font-size="35" x="410" y="150">Y</text><text font-family="Arial" font-size="35" x="450" y="150">X</text><text font-family="Arial" font-size="35" x="490" y="150">H</text><text font-family="Arial" font-size="35" x="530" y="150">O</text><text font-family="Arial" font-size="35" x="570" y="150">Z</text><text font-family="Arial" font-size="35" x="610" y="150">G</text><text font-family="Arial" font-size="35" x="650" y="150">B</text><text font-family="Arial" font-size="35" x="690" y="150">U</text><text font-family="Arial" font-size="35" x="730" y="150">S</text><text font-family="Arial" font-size="35" x="770" y="150">Y</text><text font-family="Arial" font-size="35" x="810" y="150">B</text><text font-family="Arial" font-size="35" x="850" y="150">I</text><text font-family="Arial" font-size="35" x="890" y="150">M</text><text font-family="Arial" font-size="35" x="930" y="150">L</text><text font-family="Arial" font-size="35" x="970" y="150">A</text><text font-family="Arial" font-size="35" x="10" y="190">D</text><text font-family="Arial" font-size="35" x="50" y="190">W</text><text font-family="Arial" font-size="35" x="90" y="190">V</text><text font-family="Arial" font-size="35" x="130" y="190">U</text><text font-family="Arial" font-size="35" x="170" y="190">Z</text><text font-family="Arial" font-size="35" x="210" y="190">R</text><text font-family="Arial" font-size="35" x="250" y="190">T</text><text font-family="Arial" font-size="35" x="290" y="190">F</text><text font-family="Arial" font-size="35" x="330" y="190">M</text><text font-family="Arial" font-size="35" x="370" y="190">P</text><text font-family="Arial" font-size="35" x="410" y="190">D</text><text font-family="Arial" font-size="35" x="450" y="190">C</text><text font-family="Arial" font-size="35" x="490" y="190">B</text><text font-family="Arial" font-size="35" x="530" y="190">D</text><text font-family="Arial" font-size="35" x="570" y="190">C</text><text font-family="Arial" font-size="35" x="610" y="190">Y</text><text font-family="Arial" font-size="35" x="650" y="190">Y</text><text font-family="Arial" font-size="35" x="690" y="190">E</text><text font-family="Arial" font-size="35" x="730" y="190">P</text><text font-family="Arial" font-size="35" x="770" y="190">S</text><text font-family="Arial" font-size="35" x="810" y="190">K</text><text font-family="Arial" font-size="35" x="850" y="190">J</text><text font-family="Arial" font-size="35" x="890" y="190">I</text><text font-family="Arial" font-size="35" x="930" y="190">K</text><text font-family="Arial" font-size="35" x="970" y="190">D</text><text font-family="Arial" font-size="35" x="10" y="230">D</text><text font-family="Arial" font-size="35" x="50" y="230">K</text><text font-family="Arial" font-size="35" x="90" y="230">T</text><text font-family="Arial" font-size="35" x="130" y="230">Z</text><text font-family="Arial" font-size="35" x="170" y="230">W</text><text font-family="Arial" font-size="35" x="210" y="230">U</text><text font-family="Arial" font-size="35" x="250" y="230">G</text><text font-family="Arial" font-size="35" x="290" y="230">L</text><text font-family="Arial" font-size="35" x="330" y="230">R</text><text font-family="Arial" font-size="35" x="370" y="230">S</text><text font-family="Arial" font-size="35" x="410" y="230">D</text><text font-family="Arial" font-size="35" x="450" y="230">K</text><text font-family="Arial" font-size="35" x="490" y="230">P</text><text font-family="Arial" font-size="35" x="530" y="230">H</text><text font-family="Arial" font-size="35" x="570" y="230">N</text><text font-family="Arial" font-size="35" x="610" y="230">A</text><text font-family="Arial" font-size="35" x="650" y="230">A</text><text font-family="Arial" font-size="35" x="690" y="230">C</text><text font-family="Arial" font-size="35" x="730" y="230">O</text><text font-family="Arial" font-size="35" x="770" y="230">Z</text><text font-family="Arial" font-size="35" x="810" y="230">J</text><text font-family="Arial" font-size="35" x="850" y="230">D</text><text font-family="Arial" font-size="35" x="890" y="230">L</text><text font-family="Arial" font-size="35" x="930" y="230">S</text><text font-family="Arial" font-size="35" x="970" y="230">O</text><text font-family="Arial" font-size="35" x="10" y="270">J</text><text font-family="Arial" font-size="35" x="50" y="270">J</text><text font-family="Arial" font-size="35" x="90" y="270">W</text><text font-family="Arial" font-size="35" x="130" y="270">Z</text><text font-family="Arial" font-size="35" x="170" y="270">L</text><text font-family="Arial" font-size="35" x="210" y="270">U</text><text font-family="Arial" font-size="35" x="250" y="270">M</text><text font-family="Arial" font-size="35" x="290" y="270">O</text><text font-family="Arial" font-size="35" x="330" y="270">Y</text><text font-family="Arial" font-size="35" x="370" y="270">G</text><text font-family="Arial" font-size="35" x="410" y="270">I</text><text font-family="Arial" font-size="35" x="450" y="270">C</text><text font-family="Arial" font-size="35" x="490" y="270">R</text><text font-family="Arial" font-size="35" x="530" y="270">G</text><text font-family="Arial" font-size="35" x="570" y="270">K</text><text font-family="Arial" font-size="35" x="610" y="270">E</text><text font-family="Arial" font-size="35" x="650" y="270">L</text><text font-family="Arial" font-size="35" x="690" y="270">R</text><text font-family="Arial" font-size="35" x="730" y="270">S</text><text font-family="Arial" font-size="35" x="770" y="270">M</text><text font-family="Arial" font-size="35" x="810" y="270">B</text><text font-family="Arial" font-size="35" x="850" y="270">X</text><text font-family="Arial" font-size="35" x="890" y="270">A</text><text font-family="Arial" font-size="35" x="930" y="270">I</text><text font-family="Arial" font-size="35" x="970" y="270">L</text><text font-family="Arial" font-size="35" x="10" y="310">N</text><text font-family="Arial" font-size="35" x="50" y="310">E</text><text font-family="Arial" font-size="35" x="90" y="310">I</text><text font-family="Arial" font-size="35" x="130" y="310">O</text><text font-family="Arial" font-size="35" x="170" y="310">C</text><text font-family="Arial" font-size="35" x="210" y="310">G</text><text font-family="Arial" font-size="35" x="250" y="310">U</text><text font-family="Arial" font-size="35" x="290" y="310">R</text><text font-family="Arial" font-size="35" x="330" y="310">Z</text><text font-family="Arial" font-size="35" x="370" y="310">T</text><text font-family="Arial" font-size="35" x="410" y="310">U</text><text font-family="Arial" font-size="35" x="450" y="310">S</text><text font-family="Arial" font-size="35" x="490" y="310">C</text><text font-family="Arial" font-size="35" x="530" y="310">A</text><text font-family="Arial" font-size="35" x="570" y="310">N</text><text font-family="Arial" font-size="35" x="610" y="310">E</text><text font-family="Arial" font-size="35" x="650" y="310">K</text><text font-family="Arial" font-size="35" x="690" y="310">A</text><text font-family="Arial" font-size="35" x="730" y="310">Z</text><text font-family="Arial" font-size="35" x="770" y="310">C</text><text font-family="Arial" font-size="35" x="810" y="310">W</text><text font-family="Arial" font-size="35" x="850" y="310">V</text><text font-family="Arial" font-size="35" x="890" y="310">N</text><text font-family="Arial" font-size="35" x="930" y="310">A</text><text font-family="Arial" font-size="35" x="970" y="310">O</text><text font-family="Arial" font-size="35" x="10" y="350">C</text><text font-family="Arial" font-size="35" x="50" y="350">D</text><text font-family="Arial" font-size="35" x="90" y="350">J</text><text font-family="Arial" font-size="35" x="130" y="350">C</text><text font-family="Arial" font-size="35" x="170" y="350">V</text><text font-family="Arial" font-size="35" x="210" y="350">W</text><text font-family="Arial" font-size="35" x="250" y="350">E</text><text font-family="Arial" font-size="35" x="290" y="350">E</text><text font-family="Arial" font-size="35" x="330" y="350">L</text><text font-family="Arial" font-size="35" x="370" y="350">M</text><text font-family="Arial" font-size="35" x="410" y="350">K</text><text font-family="Arial" font-size="35" x="450" y="350">K</text><text font-family="Arial" font-size="35" x="490" y="350">U</text><text font-family="Arial" font-size="35" x="530" y="350">S</text><text font-family="Arial" font-size="35" x="570" y="350">Z</text><text font-family="Arial" font-size="35" x="610" y="350">N</text><text font-family="Arial" font-size="35" x="650" y="350">C</text><text font-family="Arial" font-size="35" x="690" y="350">C</text><text font-family="Arial" font-size="35" x="730" y="350">B</text><text font-family="Arial" font-size="35" x="770" y="350">M</text><text font-family="Arial" font-size="35" x="810" y="350">P</text><text font-family="Arial" font-size="35" x="850" y="350">G</text><text font-family="Arial" font-size="35" x="890" y="350">E</text><text font-family="Arial" font-size="35" x="930" y="350">X</text><text font-family="Arial" font-size="35" x="970" y="350">M</text><text font-family="Arial" font-size="35" x="10" y="390">J</text><text font-family="Arial" font-size="35" x="50" y="390">E</text><text font-family="Arial" font-size="35" x="90" y="390">G</text><text font-family="Arial" font-size="35" x="130" y="390">H</text><text font-family="Arial" font-size="35" x="170" y="390">S</text><text font-family="Arial" font-size="35" x="210" y="390">Z</text><text font-family="Arial" font-size="35" x="250" y="390">A</text><text font-family="Arial" font-size="35" x="290" y="390">N</text><text font-family="Arial" font-size="35" x="330" y="390">F</text><text font-family="Arial" font-size="35" x="370" y="390">I</text><text font-family="Arial" font-size="35" x="410" y="390">A</text><text font-family="Arial" font-size="35" x="450" y="390">B</text><text font-family="Arial" font-size="35" x="490" y="390">M</text><text font-family="Arial" font-size="35" x="530" y="390">K</text><text font-family="Arial" font-size="35" x="570" y="390">V</text><text font-family="Arial" font-size="35" x="610" y="390">J</text><text font-family="Arial" font-size="35" x="650" y="390">J</text><text font-family="Arial" font-size="35" x="690" y="390">E</text><text font-family="Arial" font-size="35" x="730" y="390">T</text><text font-family="Arial" font-size="35" x="770" y="390">R</text><text font-family="Arial" font-size="35" x="810" y="390">H</text><text font-family="Arial" font-size="35" x="850" y="390">K</text><text font-family="Arial" font-size="35" x="890" y="390">S</text><text font-family="Arial" font-size="35" x="930" y="390">Q</text><text font-family="Arial" font-size="35" x="970" y="390">I</text><text font-family="Arial" font-size="35" x="10" y="430">J</text><text font-family="Arial" font-size="35" x="50" y="430">S</text><text font-family="Arial" font-size="35" x="90" y="430">I</text><text font-family="Arial" font-size="35" x="130" y="430">Q</text><text font-family="Arial" font-size="35" x="170" y="430">Y</text><text font-family="Arial" font-size="35" x="210" y="430">V</text><text font-family="Arial" font-size="35" x="250" y="430">Y</text><text font-family="Arial" font-size="35" x="290" y="430">T</text><text font-family="Arial" font-size="35" x="330" y="430">F</text><text font-family="Arial" font-size="35" x="370" y="430">R</text><text font-family="Arial" font-size="35" x="410" y="430">G</text><text font-family="Arial" font-size="35" x="450" y="430">R</text><text font-family="Arial" font-size="35" x="490" y="430">Q</text><text font-family="Arial" font-size="35" x="530" y="430">D</text><text font-family="Arial" font-size="35" x="570" y="430">M</text><text font-family="Arial" font-size="35" x="610" y="430">T</text><text font-family="Arial" font-size="35" x="650" y="430">Y</text><text font-family="Arial" font-size="35" x="690" y="430">K</text><text font-family="Arial" font-size="35" x="730" y="430">M</text><text font-family="Arial" font-size="35" x="770" y="430">D</text><text font-family="Arial" font-size="35" x="810" y="430">I</text><text font-family="Arial" font-size="35" x="850" y="430">P</text><text font-family="Arial" font-size="35" x="890" y="430">E</text><text font-family="Arial" font-size="35" x="930" y="430">Y</text><text font-family="Arial" font-size="35" x="970" y="430">T</text><text font-family="Arial" font-size="35" x="10" y="470">L</text><text font-family="Arial" font-size="35" x="50" y="470">F</text><text font-family="Arial" font-size="35" x="90" y="470">W</text><text font-family="Arial" font-size="35" x="130" y="470">T</text><text font-family="Arial" font-size="35" x="170" y="470">M</text><text font-family="Arial" font-size="35" x="210" y="470">M</text><text font-family="Arial" font-size="35" x="250" y="470">E</text><text font-family="Arial" font-size="35" x="290" y="470">I</text><text font-family="Arial" font-size="35" x="330" y="470">P</text><text font-family="Arial" font-size="35" x="370" y="470">P</text><text font-family="Arial" font-size="35" x="410" y="470">I</text><text font-family="Arial" font-size="35" x="450" y="470">U</text><text font-family="Arial" font-size="35" x="490" y="470">C</text><text font-family="Arial" font-size="35" x="530" y="470">S</text><text font-family="Arial" font-size="35" x="570" y="470">O</text><text font-family="Arial" font-size="35" x="610" y="470">H</text><text font-family="Arial" font-size="35" x="650" y="470">M</text><text font-family="Arial" font-size="35" x="690" y="470">M</text><text font-family="Arial" font-size="35" x="730" y="470">U</text><text font-family="Arial" font-size="35" x="770" y="470">Z</text><text font-family="Arial" font-size="35" x="810" y="470">X</text><text font-family="Arial" font-size="35" x="850" y="470">A</text><text font-family="Arial" font-size="35" x="890" y="470">R</text><text font-family="Arial" font-size="35" x="930" y="470">X</text><text font-family="Arial" font-size="35" x="970" y="470">E</text><text font-family="Arial" font-size="35" x="10" y="510">Z</text><text font-family="Arial" font-size="35" x="50" y="510">M</text><text font-family="Arial" font-size="35" x="90" y="510">J</text><text font-family="Arial" font-size="35" x="130" y="510">A</text><text font-family="Arial" font-size="35" x="170" y="510">W</text><text font-family="Arial" font-size="35" x="210" y="510">P</text><text font-family="Arial" font-size="35" x="250" y="510">C</text><text font-family="Arial" font-size="35" x="290" y="510">N</text><text font-family="Arial" font-size="35" x="330" y="510">V</text><text font-family="Arial" font-size="35" x="370" y="510">T</text><text font-family="Arial" font-size="35" x="410" y="510">Z</text><text font-family="Arial" font-size="35" x="450" y="510">U</text><text font-family="Arial" font-size="35" x="490" y="510">R</text><text font-family="Arial" font-size="35" x="530" y="510">H</text><text font-family="Arial" font-size="35" x="570" y="510">K</text><text font-family="Arial" font-size="35" x="610" y="510">E</text><text font-family="Arial" font-size="35" x="650" y="510">C</text><text font-family="Arial" font-size="35" x="690" y="510">U</text><text font-family="Arial" font-size="35" x="730" y="510">Q</text><text font-family="Arial" font-size="35" x="770" y="510">L</text><text font-family="Arial" font-size="35" x="810" y="510">B</text><text font-family="Arial" font-size="35" x="850" y="510">M</text><text font-family="Arial" font-size="35" x="890" y="510">L</text><text font-family="Arial" font-size="35" x="930" y="510">B</text><text font-family="Arial" font-size="35" x="970" y="510">S</text><text font-family="Arial" font-size="35" x="10" y="550">Z</text><text font-family="Arial" font-size="35" x="50" y="550">T</text><text font-family="Arial" font-size="35" x="90" y="550">O</text><text font-family="Arial" font-size="35" x="130" y="550">F</text><text font-family="Arial" font-size="35" x="170" y="550">D</text><text font-family="Arial" font-size="35" x="210" y="550">Q</text><text font-family="Arial" font-size="35" x="250" y="550">I</text><text font-family="Arial" font-size="35" x="290" y="550">E</text><text font-family="Arial" font-size="35" x="330" y="550">E</text><text font-family="Arial" font-size="35" x="370" y="550">D</text><text font-family="Arial" font-size="35" x="410" y="550">V</text><text font-family="Arial" font-size="35" x="450" y="550">F</text><text font-family="Arial" font-size="35" x="490" y="550">L</text><text font-family="Arial" font-size="35" x="530" y="550">I</text><text font-family="Arial" font-size="35" x="570" y="550">E</text><text font-family="Arial" font-size="35" x="610" y="550">B</text><text font-family="Arial" font-size="35" x="650" y="550">N</text><text font-family="Arial" font-size="35" x="690" y="550">H</text><text font-family="Arial" font-size="35" x="730" y="550">Z</text><text font-family="Arial" font-size="35" x="770" y="550">Z</text><text font-family="Arial" font-size="35" x="810" y="550">E</text><text font-family="Arial" font-size="35" x="850" y="550">T</text><text font-family="Arial" font-size="35" x="890" y="550">O</text><text font-family="Arial" font-size="35" x="930" y="550">X</text><text font-family="Arial" font-size="35" x="970" y="550">A</text><text font-family="Arial" font-size="35" x="10" y="590">C</text><text font-family="Arial" font-size="35" x="50" y="590">O</text><text font-family="Arial" font-size="35" x="90" y="590">U</text><text font-family="Arial" font-size="35" x="130" y="590">O</text><text font-family="Arial" font-size="35" x="170" y="590">O</text><text font-family="Arial" font-size="35" x="210" y="590">Y</text><text font-family="Arial" font-size="35" x="250" y="590">G</text><text font-family="Arial" font-size="35" x="290" y="590">E</text><text font-family="Arial" font-size="35" x="330" y="590">S</text><text font-family="Arial" font-size="35" x="370" y="590">T</text><text font-family="Arial" font-size="35" x="410" y="590">Z</text><text font-family="Arial" font-size="35" x="450" y="590">Z</text><text font-family="Arial" font-size="35" x="490" y="590">Y</text><text font-family="Arial" font-size="35" x="530" y="590">I</text><text font-family="Arial" font-size="35" x="570" y="590">A</text><text font-family="Arial" font-size="35" x="610" y="590">N</text><text font-family="Arial" font-size="35" x="650" y="590">L</text><text font-family="Arial" font-size="35" x="690" y="590">C</text><text font-family="Arial" font-size="35" x="730" y="590">V</text><text font-family="Arial" font-size="35" x="770" y="590">D</text><text font-family="Arial" font-size="35" x="810" y="590">R</text><text font-family="Arial" font-size="35" x="850" y="590">W</text><text font-family="Arial" font-size="35" x="890" y="590">M</text><text font-family="Arial" font-size="35" x="930" y="590">W</text><text font-family="Arial" font-size="35" x="970" y="590">N</text><text font-family="Arial" font-size="35" x="10" y="630">F</text><text font-family="Arial" font-size="35" x="50" y="630">T</text><text font-family="Arial" font-size="35" x="90" y="630">O</text><text font-family="Arial" font-size="35" x="130" y="630">V</text><text font-family="Arial" font-size="35" x="170" y="630">J</text><text font-family="Arial" font-size="35" x="210" y="630">P</text><text font-family="Arial" font-size="35" x="250" y="630">W</text><text font-family="Arial" font-size="35" x="290" y="630">N</text><text font-family="Arial" font-size="35" x="330" y="630">D</text><text font-family="Arial" font-size="35" x="370" y="630">D</text><text font-family="Arial" font-size="35" x="410" y="630">O</text><text font-family="Arial" font-size="35" x="450" y="630">R</text><text font-family="Arial" font-size="35" x="490" y="630">G</text><text font-family="Arial" font-size="35" x="530" y="630">N</text><text font-family="Arial" font-size="35" x="570" y="630">L</text><text font-family="Arial" font-size="35" x="610" y="630">N</text><text font-family="Arial" font-size="35" x="650" y="630">Z</text><text font-family="Arial" font-size="35" x="690" y="630">Y</text><text font-family="Arial" font-size="35" x="730" y="630">W</text><text font-family="Arial" font-size="35" x="770" y="630">O</text><text font-family="Arial" font-size="35" x="810" y="630">A</text><text font-family="Arial" font-size="35" x="850" y="630">B</text><text font-family="Arial" font-size="35" x="890" y="630">B</text><text font-family="Arial" font-size="35" x="930" y="630">I</text><text font-family="Arial" font-size="35" x="970" y="630">I</text><text font-family="Arial" font-size="35" x="10" y="670">A</text><text font-family="Arial" font-size="35" x="50" y="670">E</text><text font-family="Arial" font-size="35" x="90" y="670">F</text><text font-family="Arial" font-size="35" x="130" y="670">V</text><text font-family="Arial" font-size="35" x="170" y="670">B</text><text font-family="Arial" font-size="35" x="210" y="670">J</text><text font-family="Arial" font-size="35" x="250" y="670">G</text><text font-family="Arial" font-size="35" x="290" y="670">I</text><text font-family="Arial" font-size="35" x="330" y="670">E</text><text font-family="Arial" font-size="35" x="370" y="670">M</text><text font-family="Arial" font-size="35" x="410" y="670">I</text><text font-family="Arial" font-size="35" x="450" y="670">N</text><text font-family="Arial" font-size="35" x="490" y="670">E</text><text font-family="Arial" font-size="35" x="530" y="670">A</text><text font-family="Arial" font-size="35" x="570" y="670">P</text><text font-family="Arial" font-size="35" x="610" y="670">O</text><text font-family="Arial" font-size="35" x="650" y="670">L</text><text font-family="Arial" font-size="35" x="690" y="670">I</text><text font-family="Arial" font-size="35" x="730" y="670">T</text><text font-family="Arial" font-size="35" x="770" y="670">A</text><text font-family="Arial" font-size="35" x="810" y="670">N</text><text font-family="Arial" font-size="35" x="850" y="670">K</text><text font-family="Arial" font-size="35" x="890" y="670">A</text><text font-family="Arial" font-size="35" x="930" y="670">Y</text><text font-family="Arial" font-size="35" x="970" y="670">P</text><text font-family="Arial" font-size="35" x="10" y="710">T</text><text font-family="Arial" font-size="35" x="50" y="710">J</text><text font-family="Arial" font-size="35" x="90" y="710">L</text><text font-family="Arial" font-size="35" x="130" y="710">P</text><text font-family="Arial" font-size="35" x="170" y="710">D</text><text font-family="Arial" font-size="35" x="210" y="710">M</text><text font-family="Arial" font-size="35" x="250" y="710">G</text><text font-family="Arial" font-size="35" x="290" y="710">A</text><text font-family="Arial" font-size="35" x="330" y="710">K</text><text font-family="Arial" font-size="35" x="370" y="710">R</text><text font-family="Arial" font-size="35" x="410" y="710">O</text><text font-family="Arial" font-size="35" x="450" y="710">V</text><text font-family="Arial" font-size="35" x="490" y="710">L</text><text font-family="Arial" font-size="35" x="530" y="710">K</text><text font-family="Arial" font-size="35" x="570" y="710">O</text><text font-family="Arial" font-size="35" x="610" y="710">P</text><text font-family="Arial" font-size="35" x="650" y="710">F</text><text font-family="Arial" font-size="35" x="690" y="710">M</text><text font-family="Arial" font-size="35" x="730" y="710">Z</text><text font-family="Arial" font-size="35" x="770" y="710">S</text><text font-family="Arial" font-size="35" x="810" y="710">T</text><text font-family="Arial" font-size="35" x="850" y="710">P</text><text font-family="Arial" font-size="35" x="890" y="710">R</text><text font-family="Arial" font-size="35" x="930" y="710">Q</text><text font-family="Arial" font-size="35" x="970" y="710">P</text><text font-family="Arial" font-size="35" x="10" y="750">L</text><text font-family="Arial" font-size="35" x="50" y="750">L</text><text font-family="Arial" font-size="35" x="90" y="750">M</text><text font-family="Arial" font-size="35" x="130" y="750">T</text><text font-family="Arial" font-size="35" x="170" y="750">Q</text><text font-family="Arial" font-size="35" x="210" y="750">A</text><text font-family="Arial" font-size="35" x="250" y="750">Q</text><text font-family="Arial" font-size="35" x="290" y="750">G</text><text font-family="Arial" font-size="35" x="330" y="750">W</text><text font-family="Arial" font-size="35" x="370" y="750">Q</text><text font-family="Arial" font-size="35" x="410" y="750">H</text><text font-family="Arial" font-size="35" x="450" y="750">N</text><text font-family="Arial" font-size="35" x="490" y="750">Q</text><text font-family="Arial" font-size="35" x="530" y="750">H</text><text font-family="Arial" font-size="35" x="570" y="750">E</text><text font-family="Arial" font-size="35" x="610" y="750">A</text><text font-family="Arial" font-size="35" x="650" y="750">B</text><text font-family="Arial" font-size="35" x="690" y="750">I</text><text font-family="Arial" font-size="35" x="730" y="750">Z</text><text font-family="Arial" font-size="35" x="770" y="750">D</text><text font-family="Arial" font-size="35" x="810" y="750">C</text><text font-family="Arial" font-size="35" x="850" y="750">N</text><text font-family="Arial" font-size="35" x="890" y="750">D</text><text font-family="Arial" font-size="35" x="930" y="750">J</text><text font-family="Arial" font-size="35" x="970" y="750">G</text><text font-family="Arial" font-size="35" x="10" y="790">J</text><text font-family="Arial" font-size="35" x="50" y="790">J</text><text font-family="Arial" font-size="35" x="90" y="790">I</text><text font-family="Arial" font-size="35" x="130" y="790">B</text><text font-family="Arial" font-size="35" x="170" y="790">O</text><text font-family="Arial" font-size="35" x="210" y="790">J</text><text font-family="Arial" font-size="35" x="250" y="790">G</text><text font-family="Arial" font-size="35" x="290" y="790">K</text><text font-family="Arial" font-size="35" x="330" y="790">J</text><text font-family="Arial" font-size="35" x="370" y="790">D</text><text font-family="Arial" font-size="35" x="410" y="790">D</text><text font-family="Arial" font-size="35" x="450" y="790">I</text><text font-family="Arial" font-size="35" x="490" y="790">T</text><text font-family="Arial" font-size="35" x="530" y="790">J</text><text font-family="Arial" font-size="35" x="570" y="790">Z</text><text font-family="Arial" font-size="35" x="610" y="790">X</text><text font-family="Arial" font-size="35" x="650" y="790">I</text><text font-family="Arial" font-size="35" x="690" y="790">B</text><text font-family="Arial" font-size="35" x="730" y="790">Z</text><text font-family="Arial" font-size="35" x="770" y="790">L</text><text font-family="Arial" font-size="35" x="810" y="790">E</text><text font-family="Arial" font-size="35" x="850" y="790">L</text><text font-family="Arial" font-size="35" x="890" y="790">Y</text><text font-family="Arial" font-size="35" x="930" y="790">A</text><text font-family="Arial" font-size="35" x="970" y="790">U</text><text font-family="Arial" font-size="35" x="10" y="830">H</text><text font-family="Arial" font-size="35" x="50" y="830">N</text><text font-family="Arial" font-size="35" x="90" y="830">I</text><text font-family="Arial" font-size="35" x="130" y="830">G</text><text font-family="Arial" font-size="35" x="170" y="830">C</text><text font-family="Arial" font-size="35" x="210" y="830">A</text><text font-family="Arial" font-size="35" x="250" y="830">M</text><text font-family="Arial" font-size="35" x="290" y="830">P</text><text font-family="Arial" font-size="35" x="330" y="830">A</text><text font-family="Arial" font-size="35" x="370" y="830">N</text><text font-family="Arial" font-size="35" x="410" y="830">I</text><text font-family="Arial" font-size="35" x="450" y="830">A</text><text font-family="Arial" font-size="35" x="490" y="830">F</text><text font-family="Arial" font-size="35" x="530" y="830">D</text><text font-family="Arial" font-size="35" x="570" y="830">O</text><text font-family="Arial" font-size="35" x="610" y="830">A</text><text font-family="Arial" font-size="35" x="650" y="830">G</text><text font-family="Arial" font-size="35" x="690" y="830">B</text><text font-family="Arial" font-size="35" x="730" y="830">E</text><text font-family="Arial" font-size="35" x="770" y="830">O</text><text font-family="Arial" font-size="35" x="810" y="830">L</text><text font-family="Arial" font-size="35" x="850" y="830">G</text><text font-family="Arial" font-size="35" x="890" y="830">G</text><text font-family="Arial" font-size="35" x="930" y="830">V</text><text font-family="Arial" font-size="35" x="970" y="830">X</text><text font-family="Arial" font-size="35" x="10" y="870">Q</text><text font-family="Arial" font-size="35" x="50" y="870">P</text><text font-family="Arial" font-size="35" x="90" y="870">E</text><text font-family="Arial" font-size="35" x="130" y="870">F</text><text font-family="Arial" font-size="35" x="170" y="870">U</text><text font-family="Arial" font-size="35" x="210" y="870">B</text><text font-family="Arial" font-size="35" x="250" y="870">G</text><text font-family="Arial" font-size="35" x="290" y="870">A</text><text font-family="Arial" font-size="35" x="330" y="870">R</text><text font-family="Arial" font-size="35" x="370" y="870">G</text><text font-family="Arial" font-size="35" x="410" y="870">G</text><text font-family="Arial" font-size="35" x="450" y="870">A</text><text font-family="Arial" font-size="35" x="490" y="870">E</text><text font-family="Arial" font-size="35" x="530" y="870">D</text><text font-family="Arial" font-size="35" x="570" y="870">O</text><text font-family="Arial" font-size="35" x="610" y="870">E</text><text font-family="Arial" font-size="35" x="650" y="870">I</text><text font-family="Arial" font-size="35" x="690" y="870">J</text><text font-family="Arial" font-size="35" x="730" y="870">O</text><text font-family="Arial" font-size="35" x="770" y="870">M</text><text font-family="Arial" font-size="35" x="810" y="870">C</text><text font-family="Arial" font-size="35" x="850" y="870">C</text><text font-family="Arial" font-size="35" x="890" y="870">Z</text><text font-family="Arial" font-size="35" x="930" y="870">C</text><text font-family="Arial" font-size="35" x="970" y="870">O</text><text font-family="Arial" font-size="35" x="10" y="910">Z</text><text font-family="Arial" font-size="35" x="50" y="910">B</text><text font-family="Arial" font-size="35" x="90" y="910">D</text><text font-family="Arial" font-size="35" x="130" y="910">X</text><text font-family="Arial" font-size="35" x="170" y="910">D</text><text font-family="Arial" font-size="35" x="210" y="910">R</text><text font-family="Arial" font-size="35" x="250" y="910">V</text><text font-family="Arial" font-size="35" x="290" y="910">L</text><text font-family="Arial" font-size="35" x="330" y="910">P</text><text font-family="Arial" font-size="35" x="370" y="910">I</text><text font-family="Arial" font-size="35" x="410" y="910">K</text><text font-family="Arial" font-size="35" x="450" y="910">R</text><text font-family="Arial" font-size="35" x="490" y="910">U</text><text font-family="Arial" font-size="35" x="530" y="910">M</text><text font-family="Arial" font-size="35" x="570" y="910">B</text><text font-family="Arial" font-size="35" x="610" y="910">R</text><text font-family="Arial" font-size="35" x="650" y="910">I</text><text font-family="Arial" font-size="35" x="690" y="910">A</text><text font-family="Arial" font-size="35" x="730" y="910">R</text><text font-family="Arial" font-size="35" x="770" y="910">O</text><text font-family="Arial" font-size="35" x="810" y="910">M</text><text font-family="Arial" font-size="35" x="850" y="910">A</text><text font-family="Arial" font-size="35" x="890" y="910">N</text><text font-family="Arial" font-size="35" x="930" y="910">D</text><text font-family="Arial" font-size="35" x="970" y="910">O</text><text font-family="Arial" font-size="35" x="10" y="950">K</text><text font-family="Arial" font-size="35" x="50" y="950">Z</text><text font-family="Arial" font-size="35" x="90" y="950">U</text><text font-family="Arial" font-size="35" x="130" y="950">L</text><text font-family="Arial" font-size="35" x="170" y="950">P</text><text font-family="Arial" font-size="35" x="210" y="950">N</text><text font-family="Arial" font-size="35" x="250" y="950">I</text><text font-family="Arial" font-size="35" x="290" y="950">U</text><text font-family="Arial" font-size="35" x="330" y="950">M</text><text font-family="Arial" font-size="35" x="370" y="950">V</text><text font-family="Arial" font-size="35" x="410" y="950">N</text><text font-family="Arial" font-size="35" x="450" y="950">G</text><text font-family="Arial" font-size="35" x="490" y="950">H</text><text font-family="Arial" font-size="35" x="530" y="950">J</text><text font-family="Arial" font-size="35" x="570" y="950">Z</text><text font-family="Arial" font-size="35" x="610" y="950">H</text><text font-family="Arial" font-size="35" x="650" y="950">V</text><text font-family="Arial" font-size="35" x="690" y="950">V</text><text font-family="Arial" font-size="35" x="730" y="950">E</text><text font-family="Arial" font-size="35" x="770" y="950">S</text><text font-family="Arial" font-size="35" x="810" y="950">U</text><text font-family="Arial" font-size="35" x="850" y="950">V</text><text font-family="Arial" font-size="35" x="890" y="950">I</text><text font-family="Arial" font-size="35" x="930" y="950">U</text><text font-family="Arial" font-size="35" x="970" y="950">S</text><text font-family="Arial" font-size="35" x="10" y="990">M</text><text font-family="Arial" font-size="35" x="50" y="990">F</text><text font-family="Arial" font-size="35" x="90" y="990">S</text><text font-family="Arial" font-size="35" x="130" y="990">F</text><text font-family="Arial" font-size="35" x="170" y="990">F</text><text font-family="Arial" font-size="35" x="210" y="990">A</text><text font-family="Arial" font-size="35" x="250" y="990">V</text><text font-family="Arial" font-size="35" x="290" y="990">A</text><text font-family="Arial" font-size="35" x="330" y="990">C</text><text font-family="Arial" font-size="35" x="370" y="990">N</text><text font-family="Arial" font-size="35" x="410" y="990">K</text><text font-family="Arial" font-size="35" x="450" y="990">S</text><text font-family="Arial" font-size="35" x="490" y="990">D</text><text font-family="Arial" font-size="35" x="530" y="990">Q</text><text font-family="Arial" font-size="35" x="570" y="990">T</text><text font-family="Arial" font-size="35" x="610" y="990">X</text><text font-family="Arial" font-size="35" x="650" y="990">P</text><text font-family="Arial" font-size="35" x="690" y="990">Q</text><text font-family="Arial" font-size="35" x="730" y="990">J</text><text font-family="Arial" font-size="35" x="770" y="990">M</text><text font-family="Arial" font-size="35" x="810" y="990">W</text><text font-family="Arial" font-size="35" x="850" y="990">G</text><text font-family="Arial" font-size="35" x="890" y="990">Z</text><text font-family="Arial" font-size="35" x="930" y="990">B</text><text font-family="Arial" font-size="35" x="970" y="990">J</text><text font-family="Arial" font-size="35" x="20" y="1050">CALABRIA</text><text font-family="Arial" font-size="35" x="20" y="1090">LIGURIA</text><text font-family="Arial" font-size="35" x="20" y="1130">PIEDMONT</text><text font-family="Arial" font-size="35" x="20" y="1170">VENETO</text><text font-family="Arial" font-size="35" x="20" y="1210">UMBRIA</text><text font-family="Arial" font-size="35" x="20" y="1250">ABRUZZO</text><text font-family="Arial" font-size="35" x="20" y="1290">FRIULI</text><text font-family="Arial" font-size="35" x="302.0" y="1050">MARCHE</text><text font-family="Arial" font-size="35" x="302.0" y="1090">LOMBARDY</text><text font-family="Arial" font-size="35" x="302.0" y="1130">CAMPANIA</text><text font-family="Arial" font-size="35" x="302.0" y="1170">LIGURIAN</text><text font-family="Arial" font-size="35" x="302.0" y="1210">TUSCAN</text><text font-family="Arial" font-size="35" x="302.0" y="1250">ROMAN</text><text font-family="Arial" font-size="35" x="302.0" y="1290">NEAPOLITAN</text><text font-family="Arial" font-size="35" x="629.5" y="1050">SICILIAN</text><text font-family="Arial" font-size="35" x="629.5" y="1090">FLORENTINE</text><text font-family="Arial" font-size="35" x="629.5" y="1130">MILANESE</text><text font-family="Arial" font-size="35" x="629.5" y="1170">DOLOMITES</text><text font-family="Arial" font-size="35" x="629.5" y="1210">VESUVIUS</text></svg>