<?xml version="1.0" encoding="utf-8" ?>
<svg baseProfile="full" height="1070" version="1.1" width="800" xmlns="http://www.w3.org/2000/svg" xmlns:ev="http://www.w3.org/2001/xml-events" xmlns:xlink="http://www.w3.org/1999/xlink"><defs /><rect fill="white" height="800" width="800" x="0" y="0" /><text font-family="Arial" font-size="20" x="10" y="30">M</text><text font-family="Arial" font-size="20" x="50" y="30">A</text><text font-family="Arial" font-size="20" x="90" y="30">P</text><text font-family="Arial" font-size="20" x="130" y="30">C</text><text font-family="Arial" font-size="20" x="170" y="30">J</text><text font-family="Arial" font-size="20" x="210" y="30">N</text><text font-family="Arial" font-size="20" x="250" y="30">C</text><text font-family="Arial" font-size="20" x="290" y="30">A</text><text font-family="Arial" font-size="20" x="330" y="30">N</text><text font-family="Arial" font-size="20" x="370" y="30">N</text><text font-family="Arial" font-size="20" x="410" y="30">E</text><text font-family="Arial" font-size="20" x="450" y="30">L</text><text font-family="Arial" font-size="20" x="490" y="30">L</text><text font-family="Arial" font-size="20" x="530" y="30">O</text><text font-family="Arial" font-size="20" x="570" y="30">N</text><text font-family="Arial" font-size="20" x="610" y="30">I</text><text font-family="Arial" font-size="20" x="650" y="30">T</text><text font-family="Arial" font-size="20" x="690" y="30">Y</text><text font-family="Arial" font-size="20" x="730" y="30">N</text><text font-family="Arial" font-size="20" x="770" y="30">H</text><text font-family="Arial" font-size="20" x="10" y="70">D</text><text font-family="Arial" font-size="20" x="50" y="70">M</text><text font-family="Arial" font-size="20" x="90" y="70">I</text><text font-family="Arial" font-size="20" x="130" y="70">F</text><text font-family="Arial" font-size="20" x="170" y="70">V</text><text font-family="Arial" font-size="20" x="210" y="70">E</text><text font-family="Arial" font-size="20" x="250" y="70">P</text><text font-family="Arial" font-size="20" x="290" y="70">B</text><text font-family="Arial" font-size="20" x="330" y="70">L</text><text font-family="Arial" font-size="20" x="370" y="70">F</text><text font-family="Arial" font-size="20" x="410" y="70">Z</text><text font-family="Arial" font-size="20" x="450" y="70">Z</text><text font-family="Arial" font-size="20" x="490" y="70">O</text><text font-family="Arial" font-size="20" x="530" y="70">Q</text><text font-family="Arial" font-size="20" x="570" y="70">F</text><text font-family="Arial" font-size="20" x="610" y="70">A</text><text font-family="Arial" font-size="20" x="650" y="70">H</text><text font-family="Arial" font-size="20" x="690" y="70">L</text><text font-family="Arial" font-size="20" x="730" y="70">J</text><text font-family="Arial" font-size="20" x="770" y="70">V</text><text font-family="Arial" font-size="20" x="10" y="110">H</text><text font-family="Arial" font-size="20" x="50" y="110">X</text><text font-family="Arial" font-size="20" x="90" y="110">L</text><text font-family="Arial" font-size="20" x="130" y="110">Z</text><text font-family="Arial" font-size="20" x="170" y="110">M</text><text font-family="Arial" font-size="20" x="210" y="110">A</text><text font-family="Arial" font-size="20" x="250" y="110">Q</text><text font-family="Arial" font-size="20" x="290" y="110">R</text><text font-family="Arial" font-size="20" x="330" y="110">P</text><text font-family="Arial" font-size="20" x="370" y="110">X</text><text font-family="Arial" font-size="20" x="410" y="110">B</text><text font-family="Arial" font-size="20" x="450" y="110">K</text><text font-family="Arial" font-size="20" x="490" y="110">C</text><text font-family="Arial" font-size="20" x="530" y="110">P</text><text font-family="Arial" font-size="20" x="570" y="110">R</text><text font-family="Arial" font-size="20" x="610" y="110">B</text><text font-family="Arial" font-size="20" x="650" y="110">Y</text><text font-family="Arial" font-size="20" x="690" y="110">V</text><text font-family="Arial" font-size="20" x="730" y="110">H</text><text font-family="Arial" font-size="20" x="770" y="110">C</text><text font-family="Arial" font-size="20" x="10" y="150">O</text><text font-family="Arial" font-size="20" x="50" y="150">D</text><text font-family="Arial" font-size="20" x="90" y="150">X</text><text font-family="Arial" font-size="20" x="130" y="150">Z</text><text font-family="Arial" font-size="20" x="170" y="150">H</text><text font-family="Arial" font-size="20" x="210" y="150">T</text><text font-family="Arial" font-size="20" x="250" y="150">G</text><text font-family="Arial" font-size="20" x="290" y="150">A</text><text font-family="Arial" font-size="20" x="330" y="150">E</text><text font-family="Arial" font-size="20" x="370" y="150">R</text><text font-family="Arial" font-size="20" x="410" y="150">H</text><text font-family="Arial" font-size="20" x="450" y="150">C</text><text font-family="Arial" font-size="20" x="490" y="150">A</text><text font-family="Arial" font-size="20" x="530" y="150">I</text><text font-family="Arial" font-size="20" x="570" y="150">R</text><text font-family="Arial" font-size="20" x="610" y="150">A</text><text font-family="Arial" font-size="20" x="650" y="150">J</text><text font-family="Arial" font-size="20" x="690" y="150">W</text><text font-family="Arial" font-size="20" x="730" y="150">O</text><text font-family="Arial" font-size="20" x="770" y="150">C</text><text font-family="Arial" font-size="20" x="10" y="190">Z</text><text font-family="Arial" font-size="20" x="50" y="190">H</text><text font-family="Arial" font-size="20" x="90" y="190">T</text><text font-family="Arial" font-size="20" x="130" y="190">V</text><text font-family="Arial" font-size="20" x="170" y="190">D</text><text font-family="Arial" font-size="20" x="210" y="190">W</text><text font-family="Arial" font-size="20" x="250" y="190">F</text><text font-family="Arial" font-size="20" x="290" y="190">L</text><text font-family="Arial" font-size="20" x="330" y="190">C</text><text font-family="Arial" font-size="20" x="370" y="190">M</text><text font-family="Arial" font-size="20" x="410" y="190">O</text><text font-family="Arial" font-size="20" x="450" y="190">E</text><text font-family="Arial" font-size="20" x="490" y="190">T</text><text font-family="Arial" font-size="20" x="530" y="190">X</text><text font-family="Arial" font-size="20" x="570" y="190">Q</text><text font-family="Arial" font-size="20" x="610" y="190">U</text><text font-family="Arial" font-size="20" x="650" y="190">J</text><text font-family="Arial" font-size="20" x="690" y="190">C</text><text font-family="Arial" font-size="20" x="730" y="190">P</text><text font-family="Arial" font-size="20" x="770" y="190">A</text><text font-family="Arial" font-size="20" x="10" y="230">V</text><text font-family="Arial" font-size="20" x="50" y="230">Y</text><text font-family="Arial" font-size="20" x="90" y="230">U</text><text font-family="Arial" font-size="20" x="130" y="230">B</text><text font-family="Arial" font-size="20" x="170" y="230">J</text><text font-family="Arial" font-size="20" x="210" y="230">X</text><text font-family="Arial" font-size="20" x="250" y="230">U</text><text font-family="Arial" font-size="20" x="290" y="230">O</text><text font-family="Arial" font-size="20" x="330" y="230">R</text><text font-family="Arial" font-size="20" x="370" y="230">F</text><text font-family="Arial" font-size="20" x="410" y="230">Z</text><text font-family="Arial" font-size="20" x="450" y="230">S</text><text font-family="Arial" font-size="20" x="490" y="230">F</text><text font-family="Arial" font-size="20" x="530" y="230">M</text><text font-family="Arial" font-size="20" x="570" y="230">E</text><text font-family="Arial" font-size="20" x="610" y="230">X</text><text font-family="Arial" font-size="20" x="650" y="230">R</text><text font-family="Arial" font-size="20" x="690" y="230">S</text><text font-family="Arial" font-size="20" x="730" y="230">P</text><text font-family="Arial" font-size="20" x="770" y="230">P</text><text font-family="Arial" font-size="20" x="10" y="270">B</text><text font-family="Arial" font-size="20" x="50" y="270">J</text><text font-family="Arial" font-size="20" x="90" y="270">W</text><text font-family="Arial" font-size="20" x="130" y="270">B</text><text font-family="Arial" font-size="20" x="170" y="270">U</text><text font-family="Arial" font-size="20" x="210" y="270">F</text><text font-family="Arial" font-size="20" x="250" y="270">M</text><text font-family="Arial" font-size="20" x="290" y="270">X</text><text font-family="Arial" font-size="20" x="330" y="270">Z</text><text font-family="Arial" font-size="20" x="370" y="270">A</text><text font-family="Arial" font-size="20" x="410" y="270">W</text><text font-family="Arial" font-size="20" x="450" y="270">E</text><text font-family="Arial" font-size="20" x="490" y="270">C</text><text font-family="Arial" font-size="20" x="530" y="270">U</text><text font-family="Arial" font-size="20" x="570" y="270">M</text><text font-family="Arial" font-size="20" x="610" y="270">W</text><text font-family="Arial" font-size="20" x="650" y="270">B</text><text font-family="Arial" font-size="20" x="690" y="270">Z</text><text font-family="Arial" font-size="20" x="730" y="270">T</text><text font-family="Arial" font-size="20" x="770" y="270">P</text><text font-family="Arial" font-size="20" x="10" y="310">A</text><text font-family="Arial" font-size="20" x="50" y="310">P</text><text font-family="Arial" font-size="20" x="90" y="310">P</text><text font-family="Arial" font-size="20" x="130" y="310">B</text><text font-family="Arial" font-size="20" x="170" y="310">D</text><text font-family="Arial" font-size="20" x="210" y="310">O</text><text font-family="Arial" font-size="20" x="250" y="310">T</text><text font-family="Arial" font-size="20" x="290" y="310">W</text><text font-family="Arial" font-size="20" x="330" y="310">R</text><text font-family="Arial" font-size="20" x="370" y="310">H</text><text font-family="Arial" font-size="20" x="410" y="310">V</text><text font-family="Arial" font-size="20" x="450" y="310">B</text><text font-family="Arial" font-size="20" x="490" y="310">O</text><text font-family="Arial" font-size="20" x="530" y="310">I</text><text font-family="Arial" font-size="20" x="570" y="310">V</text><text font-family="Arial" font-size="20" x="610" y="310">K</text><text font-family="Arial" font-size="20" x="650" y="310">M</text><text font-family="Arial" font-size="20" x="690" y="310">D</text><text font-family="Arial" font-size="20" x="730" y="310">C</text><text font-family="Arial" font-size="20" x="770" y="310">U</text><text font-family="Arial" font-size="20" x="10" y="350">F</text><text font-family="Arial" font-size="20" x="50" y="350">F</text><text font-family="Arial" font-size="20" x="90" y="350">I</text><text font-family="Arial" font-size="20" x="130" y="350">H</text><text font-family="Arial" font-size="20" x="170" y="350">G</text><text font-family="Arial" font-size="20" x="210" y="350">G</text><text font-family="Arial" font-size="20" x="250" y="350">N</text><text font-family="Arial" font-size="20" x="290" y="350">A</text><text font-family="Arial" font-size="20" x="330" y="350">J</text><text font-family="Arial" font-size="20" x="370" y="350">E</text><text font-family="Arial" font-size="20" x="410" y="350">A</text><text font-family="Arial" font-size="20" x="450" y="350">I</text><text font-family="Arial" font-size="20" x="490" y="350">K</text><text font-family="Arial" font-size="20" x="530" y="350">I</text><text font-family="Arial" font-size="20" x="570" y="350">U</text><text font-family="Arial" font-size="20" x="610" y="350">O</text><text font-family="Arial" font-size="20" x="650" y="350">A</text><text font-family="Arial" font-size="20" x="690" y="350">Y</text><text font-family="Arial" font-size="20" x="730" y="350">E</text><text font-family="Arial" font-size="20" x="770" y="350">C</text><text font-family="Arial" font-size="20" x="10" y="390">O</text><text font-family="Arial" font-size="20" x="50" y="390">C</text><text font-family="Arial" font-size="20" x="90" y="390">J</text><text font-family="Arial" font-size="20" x="130" y="390">C</text><text font-family="Arial" font-size="20" x="170" y="390">X</text><text font-family="Arial" font-size="20" x="210" y="390">C</text><text font-family="Arial" font-size="20" x="250" y="390">N</text><text font-family="Arial" font-size="20" x="290" y="390">A</text><text font-family="Arial" font-size="20" x="330" y="390">H</text><text font-family="Arial" font-size="20" x="370" y="390">S</text><text font-family="Arial" font-size="20" x="410" y="390">U</text><text font-family="Arial" font-size="20" x="450" y="390">G</text><text font-family="Arial" font-size="20" x="490" y="390">O</text><text font-family="Arial" font-size="20" x="530" y="390">J</text><text font-family="Arial" font-size="20" x="570" y="390">D</text><text font-family="Arial" font-size="20" x="610" y="390">T</text><text font-family="Arial" font-size="20" x="650" y="390">Z</text><text font-family="Arial" font-size="20" x="690" y="390">A</text><text font-family="Arial" font-size="20" x="730" y="390">W</text><text font-family="Arial" font-size="20" x="770" y="390">C</text><text font-family="Arial" font-size="20" x="10" y="430">O</text><text font-family="Arial" font-size="20" x="50" y="430">B</text><text font-family="Arial" font-size="20" x="90" y="430">I</text><text font-family="Arial" font-size="20" x="130" y="430">W</text><text font-family="Arial" font-size="20" x="170" y="430">V</text><text font-family="Arial" font-size="20" x="210" y="430">P</text><text font-family="Arial" font-size="20" x="250" y="430">T</text><text font-family="Arial" font-size="20" x="290" y="430">V</text><text font-family="Arial" font-size="20" x="330" y="430">S</text><text font-family="Arial" font-size="20" x="370" y="430">J</text><text font-family="Arial" font-size="20" x="410" y="430">P</text><text font-family="Arial" font-size="20" x="450" y="430">A</text><text font-family="Arial" font-size="20" x="490" y="430">I</text><text font-family="Arial" font-size="20" x="530" y="430">L</text><text font-family="Arial" font-size="20" x="570" y="430">W</text><text font-family="Arial" font-size="20" x="610" y="430">Y</text><text font-family="Arial" font-size="20" x="650" y="430">T</text><text font-family="Arial" font-size="20" x="690" y="430">E</text><text font-family="Arial" font-size="20" x="730" y="430">B</text><text font-family="Arial" font-size="20" x="770" y="430">I</text><text font-family="Arial" font-size="20" x="10" y="470">R</text><text font-family="Arial" font-size="20" x="50" y="470">U</text><text font-family="Arial" font-size="20" x="90" y="470">A</text><text font-family="Arial" font-size="20" x="130" y="470">A</text><text font-family="Arial" font-size="20" x="170" y="470">C</text><text font-family="Arial" font-size="20" x="210" y="470">J</text><text font-family="Arial" font-size="20" x="250" y="470">F</text><text font-family="Arial" font-size="20" x="290" y="470">Q</text><text font-family="Arial" font-size="20" x="330" y="470">X</text><text font-family="Arial" font-size="20" x="370" y="470">E</text><text font-family="Arial" font-size="20" x="410" y="470">N</text><text font-family="Arial" font-size="20" x="450" y="470">P</text><text font-family="Arial" font-size="20" x="490" y="470">P</text><text font-family="Arial" font-size="20" x="530" y="470">I</text><text font-family="Arial" font-size="20" x="570" y="470">I</text><text font-family="Arial" font-size="20" x="610" y="470">Q</text><text font-family="Arial" font-size="20" x="650" y="470">Z</text><text font-family="Arial" font-size="20" x="690" y="470">O</text><text font-family="Arial" font-size="20" x="730" y="470">U</text><text font-family="Arial" font-size="20" x="770" y="470">N</text><text font-family="Arial" font-size="20" x="10" y="510">M</text><text font-family="Arial" font-size="20" x="50" y="510">O</text><text font-family="Arial" font-size="20" x="90" y="510">I</text><text font-family="Arial" font-size="20" x="130" y="510">N</text><text font-family="Arial" font-size="20" x="170" y="510">O</text><text font-family="Arial" font-size="20" x="210" y="510">U</text><text font-family="Arial" font-size="20" x="250" y="510">S</text><text font-family="Arial" font-size="20" x="290" y="510">C</text><text font-family="Arial" font-size="20" x="330" y="510">V</text><text font-family="Arial" font-size="20" x="370" y="510">Q</text><text font-family="Arial" font-size="20" x="410" y="510">R</text><text font-family="Arial" font-size="20" x="450" y="510">T</text><text font-family="Arial" font-size="20" x="490" y="510">Z</text><text font-family="Arial" font-size="20" x="530" y="510">E</text><text font-family="Arial" font-size="20" x="570" y="510">G</text><text font-family="Arial" font-size="20" x="610" y="510">G</text><text font-family="Arial" font-size="20" x="650" y="510">U</text><text font-family="Arial" font-size="20" x="690" y="510">I</text><text font-family="Arial" font-size="20" x="730" y="510">A</text><text font-family="Arial" font-size="20" x="770" y="510">O</text><text font-family="Arial" font-size="20" x="10" y="550">N</text><text font-family="Arial" font-size="20" x="50" y="550">N</text><text font-family="Arial" font-size="20" x="90" y="550">J</text><text font-family="Arial" font-size="20" x="130" y="550">C</text><text font-family="Arial" font-size="20" x="170" y="550">T</text><text font-family="Arial" font-size="20" x="210" y="550">W</text><text font-family="Arial" font-size="20" x="250" y="550">G</text><text font-family="Arial" font-size="20" x="290" y="550">W</text><text font-family="Arial" font-size="20" x="330" y="550">H</text><text font-family="Arial" font-size="20" x="370" y="550">Q</text><text font-family="Arial" font-size="20" x="410" y="550">M</text><text font-family="Arial" font-size="20" x="450" y="550">A</text><text font-family="Arial" font-size="20" x="490" y="550">L</text><text font-family="Arial" font-size="20" x="530" y="550">U</text><text font-family="Arial" font-size="20" x="570" y="550">R</text><text font-family="Arial" font-size="20" x="610" y="550">O</text><text font-family="Arial" font-size="20" x="650" y="550">J</text><text font-family="Arial" font-size="20" x="690" y="550">E</text><text font-family="Arial" font-size="20" x="730" y="550">E</text><text font-family="Arial" font-size="20" x="770" y="550">F</text><text font-family="Arial" font-size="20" x="10" y="590">S</text><text font-family="Arial" font-size="20" x="50" y="590">G</text><text font-family="Arial" font-size="20" x="90" y="590">S</text><text font-family="Arial" font-size="20" x="130" y="590">A</text><text font-family="Arial" font-size="20" x="170" y="590">E</text><text font-family="Arial" font-size="20" x="210" y="590">J</text><text font-family="Arial" font-size="20" x="250" y="590">Y</text><text font-family="Arial" font-size="20" x="290" y="590">R</text><text font-family="Arial" font-size="20" x="330" y="590">L</text><text font-family="Arial" font-size="20" x="370" y="590">D</text><text font-family="Arial" font-size="20" x="410" y="590">G</text><text font-family="Arial" font-size="20" x="450" y="590">Q</text><text font-family="Arial" font-size="20" x="490" y="590">B</text><text font-family="Arial" font-size="20" x="530" y="590">Z</text><text font-family="Arial" font-size="20" x="570" y="590">W</text><text font-family="Arial" font-size="20" x="610" y="590">I</text><text font-family="Arial" font-size="20" x="650" y="590">G</text><text font-family="Arial" font-size="20" x="690" y="590">B</text><text font-family="Arial" font-size="20" x="730" y="590">K</text><text font-family="Arial" font-size="20" x="770" y="590">U</text><text font-family="Arial" font-size="20" x="10" y="630">Q</text><text font-family="Arial" font-size="20" x="50" y="630">I</text><text font-family="Arial" font-size="20" x="90" y="630">G</text><text font-family="Arial" font-size="20" x="130" y="630">W</text><text font-family="Arial" font-size="20" x="170" y="630">Q</text><text font-family="Arial" font-size="20" x="210" y="630">Q</text><text font-family="Arial" font-size="20" x="250" y="630">C</text><text font-family="Arial" font-size="20" x="290" y="630">T</text><text font-family="Arial" font-size="20" x="330" y="630">W</text><text font-family="Arial" font-size="20" x="370" y="630">W</text><text font-family="Arial" font-size="20" x="410" y="630">O</text><text font-family="Arial" font-size="20" x="450" y="630">B</text><text font-family="Arial" font-size="20" x="490" y="630">L</text><text font-family="Arial" font-size="20" x="530" y="630">A</text><text font-family="Arial" font-size="20" x="570" y="630">Z</text><text font-family="Arial" font-size="20" x="610" y="630">O</text><text font-family="Arial" font-size="20" x="650" y="630">T</text><text font-family="Arial" font-size="20" x="690" y="630">I</text><text font-family="Arial" font-size="20" x="730" y="630">A</text><text font-family="Arial" font-size="20" x="770" y="630">N</text><text font-family="Arial" font-size="20" x="10" y="670">Y</text><text font-family="Arial" font-size="20" x="50" y="670">O</text><text font-family="Arial" font-size="20" x="90" y="670">K</text><text font-family="Arial" font-size="20" x="130" y="670">R</text><text font-family="Arial" font-size="20" x="170" y="670">X</text><text font-family="Arial" font-size="20" x="210" y="670">M</text><text font-family="Arial" font-size="20" x="250" y="670">D</text><text font-family="Arial" font-size="20" x="290" y="670">Q</text><text font-family="Arial" font-size="20" x="330" y="670">W</text><text font-family="Arial" font-size="20" x="370" y="670">Z</text><text font-family="Arial" font-size="20" x="410" y="670">B</text><text font-family="Arial" font-size="20" x="450" y="670">X</text><text font-family="Arial" font-size="20" x="490" y="670">T</text><text font-family="Arial" font-size="20" x="530" y="670">U</text><text font-family="Arial" font-size="20" x="570" y="670">O</text><text font-family="Arial" font-size="20" x="610" y="670">F</text><text font-family="Arial" font-size="20" x="650" y="670">X</text><text font-family="Arial" font-size="20" x="690" y="670">I</text><text font-family="Arial" font-size="20" x="730" y="670">M</text><text font-family="Arial" font-size="20" x="770" y="670">Y</text><text font-family="Arial" font-size="20" x="10" y="710">A</text><text font-family="Arial" font-size="20" x="50" y="710">R</text><text font-family="Arial" font-size="20" x="90" y="710">V</text><text font-family="Arial" font-size="20" x="130" y="710">O</text><text font-family="Arial" font-size="20" x="170" y="710">X</text><text font-family="Arial" font-size="20" x="210" y="710">J</text><text font-family="Arial" font-size="20" x="250" y="710">T</text><text font-family="Arial" font-size="20" x="290" y="710">X</text><text font-family="Arial" font-size="20" x="330" y="710">P</text><text font-family="Arial" font-size="20" x="370" y="710">A</text><text font-family="Arial" font-size="20" x="410" y="710">R</text><text font-family="Arial" font-size="20" x="450" y="710">M</text><text font-family="Arial" font-size="20" x="490" y="710">E</text><text font-family="Arial" font-size="20" x="530" y="710">S</text><text font-family="Arial" font-size="20" x="570" y="710">A</text><text font-family="Arial" font-size="20" x="610" y="710">N</text><text font-family="Arial" font-size="20" x="650" y="710">R</text><text font-family="Arial" font-size="20" x="690" y="710">J</text><text font-family="Arial" font-size="20" x="730" y="710">V</text><text font-family="Arial" font-size="20" x="770" y="710">Z</text><text font-family="Arial" font-size="20" x="10" y="750">X</text><text font-family="Arial" font-size="20" x="50" y="750">N</text><text font-family="Arial" font-size="20" x="90" y="750">Z</text><text font-family="Arial" font-size="20" x="130" y="750">D</text><text font-family="Arial" font-size="20" x="170" y="750">B</text><text font-family="Arial" font-size="20" x="210" y="750">A</text><text font-family="Arial" font-size="20" x="250" y="750">M</text><text font-family="Arial" font-size="20" x="290" y="750">I</text><text font-family="Arial" font-size="20" x="330" y="750">E</text><text font-family="Arial" font-size="20" x="370" y="750">P</text><text font-family="Arial" font-size="20" x="410" y="750">S</text><text font-family="Arial" font-size="20" x="450" y="750">U</text><text font-family="Arial" font-size="20" x="490" y="750">R</text><text font-family="Arial" font-size="20" x="530" y="750">F</text><text font-family="Arial" font-size="20" x="570" y="750">R</text><text font-family="Arial" font-size="20" x="610" y="750">R</text><text font-family="Arial" font-size="20" x="650" y="750">B</text><text font-family="Arial" font-size="20" x="690" y="750">F</text><text font-family="Arial" font-size="20" x="730" y="750">P</text><text font-family="Arial" font-size="20" x="770" y="750">O</text><text font-family="Arial" font-size="20" x="10" y="790">O</text><text font-family="Arial" font-size="20" x="50" y="790">O</text><text font-family="Arial" font-size="20" x="90" y="790">W</text><text font-family="Arial" font-size="20" x="130" y="790">L</text><text font-family="Arial" font-size="20" x="170" y="790">M</text><text font-family="Arial" font-size="20" x="210" y="790">N</text><text font-family="Arial" font-size="20" x="250" y="790">Y</text><text font-family="Arial" font-size="20" x="290" y="790">X</text><text font-family="Arial" font-size="20" x="330" y="790">Z</text><text font-family="Arial" font-size="20" x="370" y="790">R</text><text font-family="Arial" font-size="20" x="410" y="790">F</text><text font-family="Arial" font-size="20" x="450" y="790">E</text><text font-family="Arial" font-size="20" x="490" y="790">T</text><text font-family="Arial" font-size="20" x="530" y="790">T</text><text font-family="Arial" font-size="20" x="570" y="790">U</text><text font-family="Arial" font-size="20" x="610" y="790">C</text><text font-family="Arial" font-size="20" x="650" y="790">C</text><text font-family="Arial" font-size="20" x="690" y="790">I</text><text font-family="Arial" font-size="20" x="730" y="790">N</text><text font-family="Arial" font-size="20" x="770" y="790">E</text><text font-family="Arial" font-size="20" x="10" y="820">PROSCIUTTO</text><text font-family="Arial" font-size="20" x="10" y="845">PARMESAN</text><text font-family="Arial" font-size="20" x="10" y="870">APERITIVO</text><text font-family="Arial" font-size="20" x="10" y="895">CIAO</text><text font-family="Arial" font-size="20" x="10" y="920">BUONGIORNO</text><text font-family="Arial" font-size="20" x="10" y="945">BUONASERA</text><text font-family="Arial" font-size="20" x="10" y="970">CAPPUCCINO</text><text font-family="Arial" font-size="20" x="10" y="995">FETTUCCINE</text><text font-family="Arial" font-size="20" x="10" y="1020">RAVIOLI</text><text font-family="Arial" font-size="20" x="10" y="1045">CANNELLONI</text></svg>