<?xml version="1.0" encoding="utf-8" ?>
<svg baseProfile="full" height="1660" version="1.1" width="800" xmlns="http://www.w3.org/2000/svg" xmlns:ev="http://www.w3.org/2001/xml-events" xmlns:xlink="http://www.w3.org/1999/xlink"><defs /><rect fill="white" height="800" stroke="black" stroke-width="2" width="800" x="0" y="0" /><text font-family="Arial" font-size="35" x="10" y="30">Y</text><text font-family="Arial" font-size="35" x="50" y="30">P</text><text font-family="Arial" font-size="35" x="90" y="30">B</text><text font-family="Arial" font-size="35" x="130" y="30">T</text><text font-family="Arial" font-size="35" x="170" y="30">A</text><text font-family="Arial" font-size="35" x="210" y="30">X</text><text font-family="Arial" font-size="35" x="250" y="30">C</text><text font-family="Arial" font-size="35" x="290" y="30">A</text><text font-family="Arial" font-size="35" x="330" y="30">F</text><text font-family="Arial" font-size="35" x="370" y="30">M</text><text font-family="Arial" font-size="35" x="410" y="30">F</text><text font-family="Arial" font-size="35" x="450" y="30">M</text><text font-family="Arial" font-size="35" x="490" y="30">X</text><text font-family="Arial" font-size="35" x="530" y="30">X</text><text font-family="Arial" font-size="35" x="570" y="30">U</text><text font-family="Arial" font-size="35" x="610" y="30">V</text><text font-family="Arial" font-size="35" x="650" y="30">D</text><text font-family="Arial" font-size="35" x="690" y="30">W</text><text font-family="Arial" font-size="35" x="730" y="30">L</text><text font-family="Arial" font-size="35" x="770" y="30">F</text><text font-family="Arial" font-size="35" x="10" y="70">J</text><text font-family="Arial" font-size="35" x="50" y="70">O</text><text font-family="Arial" font-size="35" x="90" y="70">O</text><text font-family="Arial" font-size="35" x="130" y="70">A</text><text font-family="Arial" font-size="35" x="170" y="70">Q</text><text font-family="Arial" font-size="35" x="210" y="70">Y</text><text font-family="Arial" font-size="35" x="250" y="70">E</text><text font-family="Arial" font-size="35" x="290" y="70">I</text><text font-family="Arial" font-size="35" x="330" y="70">Z</text><text font-family="Arial" font-size="35" x="370" y="70">V</text><text font-family="Arial" font-size="35" x="410" y="70">B</text><text font-family="Arial" font-size="35" x="450" y="70">U</text><text font-family="Arial" font-size="35" x="490" y="70">Y</text><text font-family="Arial" font-size="35" x="530" y="70">J</text><text font-family="Arial" font-size="35" x="570" y="70">Z</text><text font-family="Arial" font-size="35" x="610" y="70">I</text><text font-family="Arial" font-size="35" x="650" y="70">R</text><text font-family="Arial" font-size="35" x="690" y="70">M</text><text font-family="Arial" font-size="35" x="730" y="70">D</text><text font-family="Arial" font-size="35" x="770" y="70">T</text><text font-family="Arial" font-size="35" x="10" y="110">Y</text><text font-family="Arial" font-size="35" x="50" y="110">L</text><text font-family="Arial" font-size="35" x="90" y="110">I</text><text font-family="Arial" font-size="35" x="130" y="110">V</text><text font-family="Arial" font-size="35" x="170" y="110">R</text><text font-family="Arial" font-size="35" x="210" y="110">H</text><text font-family="Arial" font-size="35" x="250" y="110">T</text><text font-family="Arial" font-size="35" x="290" y="110">F</text><text font-family="Arial" font-size="35" x="330" y="110">M</text><text font-family="Arial" font-size="35" x="370" y="110">X</text><text font-family="Arial" font-size="35" x="410" y="110">S</text><text font-family="Arial" font-size="35" x="450" y="110">H</text><text font-family="Arial" font-size="35" x="490" y="110">M</text><text font-family="Arial" font-size="35" x="530" y="110">U</text><text font-family="Arial" font-size="35" x="570" y="110">F</text><text font-family="Arial" font-size="35" x="610" y="110">J</text><text font-family="Arial" font-size="35" x="650" y="110">R</text><text font-family="Arial" font-size="35" x="690" y="110">W</text><text font-family="Arial" font-size="35" x="730" y="110">H</text><text font-family="Arial" font-size="35" x="770" y="110">S</text><text font-family="Arial" font-size="35" x="10" y="150">E</text><text font-family="Arial" font-size="35" x="50" y="150">C</text><text font-family="Arial" font-size="35" x="90" y="150">O</text><text font-family="Arial" font-size="35" x="130" y="150">L</text><text font-family="Arial" font-size="35" x="170" y="150">O</text><text font-family="Arial" font-size="35" x="210" y="150">S</text><text font-family="Arial" font-size="35" x="250" y="150">S</text><text font-family="Arial" font-size="35" x="290" y="150">E</text><text font-family="Arial" font-size="35" x="330" y="150">U</text><text font-family="Arial" font-size="35" x="370" y="150">M</text><text font-family="Arial" font-size="35" x="410" y="150">M</text><text font-family="Arial" font-size="35" x="450" y="150">Q</text><text font-family="Arial" font-size="35" x="490" y="150">I</text><text font-family="Arial" font-size="35" x="530" y="150">Z</text><text font-family="Arial" font-size="35" x="570" y="150">Z</text><text font-family="Arial" font-size="35" x="610" y="150">I</text><text font-family="Arial" font-size="35" x="650" y="150">A</text><text font-family="Arial" font-size="35" x="690" y="150">F</text><text font-family="Arial" font-size="35" x="730" y="150">B</text><text font-family="Arial" font-size="35" x="770" y="150">L</text><text font-family="Arial" font-size="35" x="10" y="190">P</text><text font-family="Arial" font-size="35" x="50" y="190">J</text><text font-family="Arial" font-size="35" x="90" y="190">J</text><text font-family="Arial" font-size="35" x="130" y="190">J</text><text font-family="Arial" font-size="35" x="170" y="190">X</text><text font-family="Arial" font-size="35" x="210" y="190">Z</text><text font-family="Arial" font-size="35" x="250" y="190">G</text><text font-family="Arial" font-size="35" x="290" y="190">G</text><text font-family="Arial" font-size="35" x="330" y="190">M</text><text font-family="Arial" font-size="35" x="370" y="190">H</text><text font-family="Arial" font-size="35" x="410" y="190">O</text><text font-family="Arial" font-size="35" x="450" y="190">O</text><text font-family="Arial" font-size="35" x="490" y="190">L</text><text font-family="Arial" font-size="35" x="530" y="190">Z</text><text font-family="Arial" font-size="35" x="570" y="190">Y</text><text font-family="Arial" font-size="35" x="610" y="190">Y</text><text font-family="Arial" font-size="35" x="650" y="190">B</text><text font-family="Arial" font-size="35" x="690" y="190">A</text><text font-family="Arial" font-size="35" x="730" y="190">N</text><text font-family="Arial" font-size="35" x="770" y="190">Z</text><text font-family="Arial" font-size="35" x="10" y="230">X</text><text font-family="Arial" font-size="35" x="50" y="230">O</text><text font-family="Arial" font-size="35" x="90" y="230">U</text><text font-family="Arial" font-size="35" x="130" y="230">T</text><text font-family="Arial" font-size="35" x="170" y="230">O</text><text font-family="Arial" font-size="35" x="210" y="230">R</text><text font-family="Arial" font-size="35" x="250" y="230">K</text><text font-family="Arial" font-size="35" x="290" y="230">V</text><text font-family="Arial" font-size="35" x="330" y="230">F</text><text font-family="Arial" font-size="35" x="370" y="230">Y</text><text font-family="Arial" font-size="35" x="410" y="230">O</text><text font-family="Arial" font-size="35" x="450" y="230">N</text><text font-family="Arial" font-size="35" x="490" y="230">A</text><text font-family="Arial" font-size="35" x="530" y="230">B</text><text font-family="Arial" font-size="35" x="570" y="230">D</text><text font-family="Arial" font-size="35" x="610" y="230">C</text><text font-family="Arial" font-size="35" x="650" y="230">M</text><text font-family="Arial" font-size="35" x="690" y="230">L</text><text font-family="Arial" font-size="35" x="730" y="230">V</text><text font-family="Arial" font-size="35" x="770" y="230">C</text><text font-family="Arial" font-size="35" x="10" y="270">D</text><text font-family="Arial" font-size="35" x="50" y="270">Z</text><text font-family="Arial" font-size="35" x="90" y="270">M</text><text font-family="Arial" font-size="35" x="130" y="270">T</text><text font-family="Arial" font-size="35" x="170" y="270">I</text><text font-family="Arial" font-size="35" x="210" y="270">C</text><text font-family="Arial" font-size="35" x="250" y="270">G</text><text font-family="Arial" font-size="35" x="290" y="270">M</text><text font-family="Arial" font-size="35" x="330" y="270">Z</text><text font-family="Arial" font-size="35" x="370" y="270">F</text><text font-family="Arial" font-size="35" x="410" y="270">D</text><text font-family="Arial" font-size="35" x="450" y="270">F</text><text font-family="Arial" font-size="35" x="490" y="270">N</text><text font-family="Arial" font-size="35" x="530" y="270">B</text><text font-family="Arial" font-size="35" x="570" y="270">W</text><text font-family="Arial" font-size="35" x="610" y="270">N</text><text font-family="Arial" font-size="35" x="650" y="270">M</text><text font-family="Arial" font-size="35" x="690" y="270">F</text><text font-family="Arial" font-size="35" x="730" y="270">G</text><text font-family="Arial" font-size="35" x="770" y="270">L</text><text font-family="Arial" font-size="35" x="10" y="310">P</text><text font-family="Arial" font-size="35" x="50" y="310">F</text><text font-family="Arial" font-size="35" x="90" y="310">R</text><text font-family="Arial" font-size="35" x="130" y="310">P</text><text font-family="Arial" font-size="35" x="170" y="310">Y</text><text font-family="Arial" font-size="35" x="210" y="310">P</text><text font-family="Arial" font-size="35" x="250" y="310">T</text><text font-family="Arial" font-size="35" x="290" y="310">F</text><text font-family="Arial" font-size="35" x="330" y="310">Z</text><text font-family="Arial" font-size="35" x="370" y="310">M</text><text font-family="Arial" font-size="35" x="410" y="310">M</text><text font-family="Arial" font-size="35" x="450" y="310">S</text><text font-family="Arial" font-size="35" x="490" y="310">L</text><text font-family="Arial" font-size="35" x="530" y="310">O</text><text font-family="Arial" font-size="35" x="570" y="310">C</text><text font-family="Arial" font-size="35" x="610" y="310">D</text><text font-family="Arial" font-size="35" x="650" y="310">R</text><text font-family="Arial" font-size="35" x="690" y="310">H</text><text font-family="Arial" font-size="35" x="730" y="310">V</text><text font-family="Arial" font-size="35" x="770" y="310">G</text><text font-family="Arial" font-size="35" x="10" y="350">S</text><text font-family="Arial" font-size="35" x="50" y="350">K</text><text font-family="Arial" font-size="35" x="90" y="350">F</text><text font-family="Arial" font-size="35" x="130" y="350">V</text><text font-family="Arial" font-size="35" x="170" y="350">E</text><text font-family="Arial" font-size="35" x="210" y="350">G</text><text font-family="Arial" font-size="35" x="250" y="350">J</text><text font-family="Arial" font-size="35" x="290" y="350">P</text><text font-family="Arial" font-size="35" x="330" y="350">P</text><text font-family="Arial" font-size="35" x="370" y="350">I</text><text font-family="Arial" font-size="35" x="410" y="350">A</text><text font-family="Arial" font-size="35" x="450" y="350">Z</text><text font-family="Arial" font-size="35" x="490" y="350">Z</text><text font-family="Arial" font-size="35" x="530" y="350">A</text><text font-family="Arial" font-size="35" x="570" y="350">S</text><text font-family="Arial" font-size="35" x="610" y="350">C</text><text font-family="Arial" font-size="35" x="650" y="350">X</text><text font-family="Arial" font-size="35" x="690" y="350">M</text><text font-family="Arial" font-size="35" x="730" y="350">Q</text><text font-family="Arial" font-size="35" x="770" y="350">U</text><text font-family="Arial" font-size="35" x="10" y="390">S</text><text font-family="Arial" font-size="35" x="50" y="390">U</text><text font-family="Arial" font-size="35" x="90" y="390">T</text><text font-family="Arial" font-size="35" x="130" y="390">Q</text><text font-family="Arial" font-size="35" x="170" y="390">T</text><text font-family="Arial" font-size="35" x="210" y="390">I</text><text font-family="Arial" font-size="35" x="250" y="390">Y</text><text font-family="Arial" font-size="35" x="290" y="390">W</text><text font-family="Arial" font-size="35" x="330" y="390">O</text><text font-family="Arial" font-size="35" x="370" y="390">L</text><text font-family="Arial" font-size="35" x="410" y="390">I</text><text font-family="Arial" font-size="35" x="450" y="390">H</text><text font-family="Arial" font-size="35" x="490" y="390">O</text><text font-family="Arial" font-size="35" x="530" y="390">E</text><text font-family="Arial" font-size="35" x="570" y="390">Q</text><text font-family="Arial" font-size="35" x="610" y="390">A</text><text font-family="Arial" font-size="35" x="650" y="390">Y</text><text font-family="Arial" font-size="35" x="690" y="390">N</text><text font-family="Arial" font-size="35" x="730" y="390">A</text><text font-family="Arial" font-size="35" x="770" y="390">C</text><text font-family="Arial" font-size="35" x="10" y="430">O</text><text font-family="Arial" font-size="35" x="50" y="430">D</text><text font-family="Arial" font-size="35" x="90" y="430">N</text><text font-family="Arial" font-size="35" x="130" y="430">O</text><text font-family="Arial" font-size="35" x="170" y="430">G</text><text font-family="Arial" font-size="35" x="210" y="430">Q</text><text font-family="Arial" font-size="35" x="250" y="430">I</text><text font-family="Arial" font-size="35" x="290" y="430">C</text><text font-family="Arial" font-size="35" x="330" y="430">K</text><text font-family="Arial" font-size="35" x="370" y="430">E</text><text font-family="Arial" font-size="35" x="410" y="430">R</text><text font-family="Arial" font-size="35" x="450" y="430">K</text><text font-family="Arial" font-size="35" x="490" y="430">G</text><text font-family="Arial" font-size="35" x="530" y="430">S</text><text font-family="Arial" font-size="35" x="570" y="430">Z</text><text font-family="Arial" font-size="35" x="610" y="430">P</text><text font-family="Arial" font-size="35" x="650" y="430">D</text><text font-family="Arial" font-size="35" x="690" y="430">W</text><text font-family="Arial" font-size="35" x="730" y="430">A</text><text font-family="Arial" font-size="35" x="770" y="430">L</text><text font-family="Arial" font-size="35" x="10" y="470">B</text><text font-family="Arial" font-size="35" x="50" y="470">V</text><text font-family="Arial" font-size="35" x="90" y="470">U</text><text font-family="Arial" font-size="35" x="130" y="470">I</text><text font-family="Arial" font-size="35" x="170" y="470">V</text><text font-family="Arial" font-size="35" x="210" y="470">N</text><text font-family="Arial" font-size="35" x="250" y="470">J</text><text font-family="Arial" font-size="35" x="290" y="470">H</text><text font-family="Arial" font-size="35" x="330" y="470">X</text><text font-family="Arial" font-size="35" x="370" y="470">O</text><text font-family="Arial" font-size="35" x="410" y="470">O</text><text font-family="Arial" font-size="35" x="450" y="470">R</text><text font-family="Arial" font-size="35" x="490" y="470">S</text><text font-family="Arial" font-size="35" x="530" y="470">P</text><text font-family="Arial" font-size="35" x="570" y="470">E</text><text font-family="Arial" font-size="35" x="610" y="470">R</text><text font-family="Arial" font-size="35" x="650" y="470">E</text><text font-family="Arial" font-size="35" x="690" y="470">O</text><text font-family="Arial" font-size="35" x="730" y="470">N</text><text font-family="Arial" font-size="35" x="770" y="470">V</text><text font-family="Arial" font-size="35" x="10" y="510">C</text><text font-family="Arial" font-size="35" x="50" y="510">D</text><text font-family="Arial" font-size="35" x="90" y="510">A</text><text font-family="Arial" font-size="35" x="130" y="510">C</text><text font-family="Arial" font-size="35" x="170" y="510">A</text><text font-family="Arial" font-size="35" x="210" y="510">G</text><text font-family="Arial" font-size="35" x="250" y="510">E</text><text font-family="Arial" font-size="35" x="290" y="510">E</text><text font-family="Arial" font-size="35" x="330" y="510">U</text><text font-family="Arial" font-size="35" x="370" y="510">N</text><text font-family="Arial" font-size="35" x="410" y="510">S</text><text font-family="Arial" font-size="35" x="450" y="510">V</text><text font-family="Arial" font-size="35" x="490" y="510">G</text><text font-family="Arial" font-size="35" x="530" y="510">R</text><text font-family="Arial" font-size="35" x="570" y="510">M</text><text font-family="Arial" font-size="35" x="610" y="510">I</text><text font-family="Arial" font-size="35" x="650" y="510">B</text><text font-family="Arial" font-size="35" x="690" y="510">I</text><text font-family="Arial" font-size="35" x="730" y="510">L</text><text font-family="Arial" font-size="35" x="770" y="510">N</text><text font-family="Arial" font-size="35" x="10" y="550">F</text><text font-family="Arial" font-size="35" x="50" y="550">L</text><text font-family="Arial" font-size="35" x="90" y="550">F</text><text font-family="Arial" font-size="35" x="130" y="550">T</text><text font-family="Arial" font-size="35" x="170" y="550">A</text><text font-family="Arial" font-size="35" x="210" y="550">Q</text><text font-family="Arial" font-size="35" x="250" y="550">E</text><text font-family="Arial" font-size="35" x="290" y="550">F</text><text font-family="Arial" font-size="35" x="330" y="550">J</text><text font-family="Arial" font-size="35" x="370" y="550">A</text><text font-family="Arial" font-size="35" x="410" y="550">E</text><text font-family="Arial" font-size="35" x="450" y="550">I</text><text font-family="Arial" font-size="35" x="490" y="550">E</text><text font-family="Arial" font-size="35" x="530" y="550">E</text><text font-family="Arial" font-size="35" x="570" y="550">M</text><text font-family="Arial" font-size="35" x="610" y="550">Q</text><text font-family="Arial" font-size="35" x="650" y="550">S</text><text font-family="Arial" font-size="35" x="690" y="550">T</text><text font-family="Arial" font-size="35" x="730" y="550">Q</text><text font-family="Arial" font-size="35" x="770" y="550">E</text><text font-family="Arial" font-size="35" x="10" y="590">G</text><text font-family="Arial" font-size="35" x="50" y="590">D</text><text font-family="Arial" font-size="35" x="90" y="590">L</text><text font-family="Arial" font-size="35" x="130" y="590">A</text><text font-family="Arial" font-size="35" x="170" y="590">I</text><text font-family="Arial" font-size="35" x="210" y="590">I</text><text font-family="Arial" font-size="35" x="250" y="590">L</text><text font-family="Arial" font-size="35" x="290" y="590">I</text><text font-family="Arial" font-size="35" x="330" y="590">L</text><text font-family="Arial" font-size="35" x="370" y="590">R</text><text font-family="Arial" font-size="35" x="410" y="590">C</text><text font-family="Arial" font-size="35" x="450" y="590">T</text><text font-family="Arial" font-size="35" x="490" y="590">Y</text><text font-family="Arial" font-size="35" x="530" y="590">S</text><text font-family="Arial" font-size="35" x="570" y="590">I</text><text font-family="Arial" font-size="35" x="610" y="590">F</text><text font-family="Arial" font-size="35" x="650" y="590">L</text><text font-family="Arial" font-size="35" x="690" y="590">F</text><text font-family="Arial" font-size="35" x="730" y="590">K</text><text font-family="Arial" font-size="35" x="770" y="590">E</text><text font-family="Arial" font-size="35" x="10" y="630">P</text><text font-family="Arial" font-size="35" x="50" y="630">N</text><text font-family="Arial" font-size="35" x="90" y="630">I</text><text font-family="Arial" font-size="35" x="130" y="630">J</text><text font-family="Arial" font-size="35" x="170" y="630">R</text><text font-family="Arial" font-size="35" x="210" y="630">C</text><text font-family="Arial" font-size="35" x="250" y="630">H</text><text font-family="Arial" font-size="35" x="290" y="630">A</text><text font-family="Arial" font-size="35" x="330" y="630">J</text><text font-family="Arial" font-size="35" x="370" y="630">D</text><text font-family="Arial" font-size="35" x="410" y="630">R</text><text font-family="Arial" font-size="35" x="450" y="630">E</text><text font-family="Arial" font-size="35" x="490" y="630">B</text><text font-family="Arial" font-size="35" x="530" y="630">S</text><text font-family="Arial" font-size="35" x="570" y="630">N</text><text font-family="Arial" font-size="35" x="610" y="630">T</text><text font-family="Arial" font-size="35" x="650" y="630">K</text><text font-family="Arial" font-size="35" x="690" y="630">M</text><text font-family="Arial" font-size="35" x="730" y="630">I</text><text font-family="Arial" font-size="35" x="770" y="630">Z</text><text font-family="Arial" font-size="35" x="10" y="670">I</text><text font-family="Arial" font-size="35" x="50" y="670">B</text><text font-family="Arial" font-size="35" x="90" y="670">A</text><text font-family="Arial" font-size="35" x="130" y="670">W</text><text font-family="Arial" font-size="35" x="170" y="670">O</text><text font-family="Arial" font-size="35" x="210" y="670">C</text><text font-family="Arial" font-size="35" x="250" y="670">A</text><text font-family="Arial" font-size="35" x="290" y="670">T</text><text font-family="Arial" font-size="35" x="330" y="670">A</text><text font-family="Arial" font-size="35" x="370" y="670">O</text><text font-family="Arial" font-size="35" x="410" y="670">T</text><text font-family="Arial" font-size="35" x="450" y="670">P</text><text font-family="Arial" font-size="35" x="490" y="670">W</text><text font-family="Arial" font-size="35" x="530" y="670">O</text><text font-family="Arial" font-size="35" x="570" y="670">M</text><text font-family="Arial" font-size="35" x="610" y="670">H</text><text font-family="Arial" font-size="35" x="650" y="670">V</text><text font-family="Arial" font-size="35" x="690" y="670">Z</text><text font-family="Arial" font-size="35" x="730" y="670">Y</text><text font-family="Arial" font-size="35" x="770" y="670">U</text><text font-family="Arial" font-size="35" x="10" y="710">Z</text><text font-family="Arial" font-size="35" x="50" y="710">S</text><text font-family="Arial" font-size="35" x="90" y="710">Q</text><text font-family="Arial" font-size="35" x="130" y="710">L</text><text font-family="Arial" font-size="35" x="170" y="710">M</text><text font-family="Arial" font-size="35" x="210" y="710">A</text><text font-family="Arial" font-size="35" x="250" y="710">K</text><text font-family="Arial" font-size="35" x="290" y="710">N</text><text font-family="Arial" font-size="35" x="330" y="710">S</text><text font-family="Arial" font-size="35" x="370" y="710">Z</text><text font-family="Arial" font-size="35" x="410" y="710">Y</text><text font-family="Arial" font-size="35" x="450" y="710">P</text><text font-family="Arial" font-size="35" x="490" y="710">N</text><text font-family="Arial" font-size="35" x="530" y="710">Q</text><text font-family="Arial" font-size="35" x="570" y="710">E</text><text font-family="Arial" font-size="35" x="610" y="710">P</text><text font-family="Arial" font-size="35" x="650" y="710">K</text><text font-family="Arial" font-size="35" x="690" y="710">P</text><text font-family="Arial" font-size="35" x="730" y="710">P</text><text font-family="Arial" font-size="35" x="770" y="710">Y</text><text font-family="Arial" font-size="35" x="10" y="750">Z</text><text font-family="Arial" font-size="35" x="50" y="750">V</text><text font-family="Arial" font-size="35" x="90" y="750">L</text><text font-family="Arial" font-size="35" x="130" y="750">B</text><text font-family="Arial" font-size="35" x="170" y="750">E</text><text font-family="Arial" font-size="35" x="210" y="750">T</text><text font-family="Arial" font-size="35" x="250" y="750">U</text><text font-family="Arial" font-size="35" x="290" y="750">F</text><text font-family="Arial" font-size="35" x="330" y="750">Y</text><text font-family="Arial" font-size="35" x="370" y="750">A</text><text font-family="Arial" font-size="35" x="410" y="750">T</text><text font-family="Arial" font-size="35" x="450" y="750">S</text><text font-family="Arial" font-size="35" x="490" y="750">A</text><text font-family="Arial" font-size="35" x="530" y="750">P</text><text font-family="Arial" font-size="35" x="570" y="750">G</text><text font-family="Arial" font-size="35" x="610" y="750">P</text><text font-family="Arial" font-size="35" x="650" y="750">D</text><text font-family="Arial" font-size="35" x="690" y="750">U</text><text font-family="Arial" font-size="35" x="730" y="750">O</text><text font-family="Arial" font-size="35" x="770" y="750">I</text><text font-family="Arial" font-size="35" x="10" y="790">A</text><text font-family="Arial" font-size="35" x="50" y="790">F</text><text font-family="Arial" font-size="35" x="90" y="790">H</text><text font-family="Arial" font-size="35" x="130" y="790">W</text><text font-family="Arial" font-size="35" x="170" y="790">F</text><text font-family="Arial" font-size="35" x="210" y="790">H</text><text font-family="Arial" font-size="35" x="250" y="790">T</text><text font-family="Arial" font-size="35" x="290" y="790">N</text><text font-family="Arial" font-size="35" x="330" y="790">P</text><text font-family="Arial" font-size="35" x="370" y="790">Y</text><text font-family="Arial" font-size="35" x="410" y="790">E</text><text font-family="Arial" font-size="35" x="450" y="790">A</text><text font-family="Arial" font-size="35" x="490" y="790">H</text><text font-family="Arial" font-size="35" x="530" y="790">J</text><text font-family="Arial" font-size="35" x="570" y="790">O</text><text font-family="Arial" font-size="35" x="610" y="790">G</text><text font-family="Arial" font-size="35" x="650" y="790">D</text><text font-family="Arial" font-size="35" x="690" y="790">Y</text><text font-family="Arial" font-size="35" x="730" y="790">F</text><text font-family="Arial" font-size="35" x="770" y="790">G</text><text font-family="Arial" font-size="35" x="20" y="850">PIZZA</text><text font-family="Arial" font-size="35" x="20" y="890">PASTA</text><text font-family="Arial" font-size="35" x="20" y="930">GELATO</text><text font-family="Arial" font-size="35" x="20" y="970">ESPRESSO</text><text font-family="Arial" font-size="35" x="20" y="1010">COLOSSEUM</text><text font-family="Arial" font-size="35" x="20" y="1050">VENICE</text><text font-family="Arial" font-size="35" x="20" y="1090">FLORENCE</text><text font-family="Arial" font-size="35" x="274.75" y="850">ROME</text><text font-family="Arial" font-size="35" x="274.75" y="890">TUSCANY</text><text font-family="Arial" font-size="35" x="274.75" y="930">AMALFI</text><text font-family="Arial" font-size="35" x="274.75" y="970">VATICAN</text><text font-family="Arial" font-size="35" x="274.75" y="1010">PIAZZA</text><text font-family="Arial" font-size="35" x="274.75" y="1050">GONDOLA</text><text font-family="Arial" font-size="35" x="274.75" y="1090">CAPRI</text><text font-family="Arial" font-size="35" x="529.5" y="850">POMPEII</text><text font-family="Arial" font-size="35" x="529.5" y="890">MILAN</text><text font-family="Arial" font-size="35" x="529.5" y="930">CHIANTI</text><text font-family="Arial" font-size="35" x="529.5" y="970">LEONARDO</text><text font-family="Arial" font-size="35" x="529.5" y="1010">MICHELANGELO</text><text font-family="Arial" font-size="35" x="529.5" y="1050">RENAISSANCE</text><text font-family="Arial" font-size="35" x="529.5" y="1090">FIAT</text></svg>