<?xml version="1.0" encoding="utf-8" ?>
<svg baseProfile="full" height="800" version="1.1" width="800" xmlns="http://www.w3.org/2000/svg" xmlns:ev="http://www.w3.org/2001/xml-events" xmlns:xlink="http://www.w3.org/1999/xlink"><defs /><rect fill="white" height="800" stroke="black" stroke-width="2" width="800" x="0" y="0" /><text font-family="Arial" font-size="20" x="10" y="30"> </text><text font-family="Arial" font-size="20" x="50" y="30"> </text><text font-family="Arial" font-size="20" x="90" y="30"> </text><text font-family="Arial" font-size="20" x="130" y="30"> </text><text font-family="Arial" font-size="20" x="170" y="30"> </text><text font-family="Arial" font-size="20" x="210" y="30"> </text><text font-family="Arial" font-size="20" x="250" y="30"> </text><text font-family="Arial" font-size="20" x="290" y="30"> </text><text font-family="Arial" font-size="20" x="330" y="30"> </text><text font-family="Arial" font-size="20" x="370" y="30">C</text><text font-family="Arial" font-size="20" x="410" y="30">B</text><text font-family="Arial" font-size="20" x="450" y="30">U</text><text font-family="Arial" font-size="20" x="490" y="30">O</text><text font-family="Arial" font-size="20" x="530" y="30">N</text><text font-family="Arial" font-size="20" x="570" y="30">A</text><text font-family="Arial" font-size="20" x="610" y="30">S</text><text font-family="Arial" font-size="20" x="650" y="30">E</text><text font-family="Arial" font-size="20" x="690" y="30">R</text><text font-family="Arial" font-size="20" x="730" y="30">A</text><text font-family="Arial" font-size="20" x="770" y="30">P</text><text font-family="Arial" font-size="20" x="10" y="70"> </text><text font-family="Arial" font-size="20" x="50" y="70"> </text><text font-family="Arial" font-size="20" x="90" y="70">P</text><text font-family="Arial" font-size="20" x="130" y="70"> </text><text font-family="Arial" font-size="20" x="170" y="70"> </text><text font-family="Arial" font-size="20" x="210" y="70"> </text><text font-family="Arial" font-size="20" x="250" y="70"> </text><text font-family="Arial" font-size="20" x="290" y="70"> </text><text font-family="Arial" font-size="20" x="330" y="70"> </text><text font-family="Arial" font-size="20" x="370" y="70"> </text><text font-family="Arial" font-size="20" x="410" y="70">I</text><text font-family="Arial" font-size="20" x="450" y="70"> </text><text font-family="Arial" font-size="20" x="490" y="70"> </text><text font-family="Arial" font-size="20" x="530" y="70"> </text><text font-family="Arial" font-size="20" x="570" y="70"> </text><text font-family="Arial" font-size="20" x="610" y="70"> </text><text font-family="Arial" font-size="20" x="650" y="70"> </text><text font-family="Arial" font-size="20" x="690" y="70"> </text><text font-family="Arial" font-size="20" x="730" y="70"> </text><text font-family="Arial" font-size="20" x="770" y="70">R</text><text font-family="Arial" font-size="20" x="10" y="110"> </text><text font-family="Arial" font-size="20" x="50" y="110"> </text><text font-family="Arial" font-size="20" x="90" y="110">U</text><text font-family="Arial" font-size="20" x="130" y="110"> </text><text font-family="Arial" font-size="20" x="170" y="110"> </text><text font-family="Arial" font-size="20" x="210" y="110"> </text><text font-family="Arial" font-size="20" x="250" y="110"> </text><text font-family="Arial" font-size="20" x="290" y="110"> </text><text font-family="Arial" font-size="20" x="330" y="110"> </text><text font-family="Arial" font-size="20" x="370" y="110"> </text><text font-family="Arial" font-size="20" x="410" y="110"> </text><text font-family="Arial" font-size="20" x="450" y="110">A</text><text font-family="Arial" font-size="20" x="490" y="110"> </text><text font-family="Arial" font-size="20" x="530" y="110"> </text><text font-family="Arial" font-size="20" x="570" y="110"> </text><text font-family="Arial" font-size="20" x="610" y="110"> </text><text font-family="Arial" font-size="20" x="650" y="110"> </text><text font-family="Arial" font-size="20" x="690" y="110"> </text><text font-family="Arial" font-size="20" x="730" y="110"> </text><text font-family="Arial" font-size="20" x="770" y="110">O</text><text font-family="Arial" font-size="20" x="10" y="150"> </text><text font-family="Arial" font-size="20" x="50" y="150"> </text><text font-family="Arial" font-size="20" x="90" y="150">G</text><text font-family="Arial" font-size="20" x="130" y="150"> </text><text font-family="Arial" font-size="20" x="170" y="150"> </text><text font-family="Arial" font-size="20" x="210" y="150"> </text><text font-family="Arial" font-size="20" x="250" y="150"> </text><text font-family="Arial" font-size="20" x="290" y="150"> </text><text font-family="Arial" font-size="20" x="330" y="150"> </text><text font-family="Arial" font-size="20" x="370" y="150"> </text><text font-family="Arial" font-size="20" x="410" y="150"> </text><text font-family="Arial" font-size="20" x="450" y="150"> </text><text font-family="Arial" font-size="20" x="490" y="150">O</text><text font-family="Arial" font-size="20" x="530" y="150"> </text><text font-family="Arial" font-size="20" x="570" y="150"> </text><text font-family="Arial" font-size="20" x="610" y="150"> </text><text font-family="Arial" font-size="20" x="650" y="150"> </text><text font-family="Arial" font-size="20" x="690" y="150"> </text><text font-family="Arial" font-size="20" x="730" y="150">T</text><text font-family="Arial" font-size="20" x="770" y="150">S</text><text font-family="Arial" font-size="20" x="10" y="190"> </text><text font-family="Arial" font-size="20" x="50" y="190"> </text><text font-family="Arial" font-size="20" x="90" y="190">L</text><text font-family="Arial" font-size="20" x="130" y="190">C</text><text font-family="Arial" font-size="20" x="170" y="190">A</text><text font-family="Arial" font-size="20" x="210" y="190">P</text><text font-family="Arial" font-size="20" x="250" y="190">P</text><text font-family="Arial" font-size="20" x="290" y="190">U</text><text font-family="Arial" font-size="20" x="330" y="190">C</text><text font-family="Arial" font-size="20" x="370" y="190">C</text><text font-family="Arial" font-size="20" x="410" y="190">I</text><text font-family="Arial" font-size="20" x="450" y="190">N</text><text font-family="Arial" font-size="20" x="490" y="190">O</text><text font-family="Arial" font-size="20" x="530" y="190"> </text><text font-family="Arial" font-size="20" x="570" y="190"> </text><text font-family="Arial" font-size="20" x="610" y="190"> </text><text font-family="Arial" font-size="20" x="650" y="190"> </text><text font-family="Arial" font-size="20" x="690" y="190"> </text><text font-family="Arial" font-size="20" x="730" y="190">R</text><text font-family="Arial" font-size="20" x="770" y="190">C</text><text font-family="Arial" font-size="20" x="10" y="230"> </text><text font-family="Arial" font-size="20" x="50" y="230"> </text><text font-family="Arial" font-size="20" x="90" y="230">I</text><text font-family="Arial" font-size="20" x="130" y="230"> </text><text font-family="Arial" font-size="20" x="170" y="230"> </text><text font-family="Arial" font-size="20" x="210" y="230"> </text><text font-family="Arial" font-size="20" x="250" y="230">C</text><text font-family="Arial" font-size="20" x="290" y="230"> </text><text font-family="Arial" font-size="20" x="330" y="230"> </text><text font-family="Arial" font-size="20" x="370" y="230"> </text><text font-family="Arial" font-size="20" x="410" y="230"> </text><text font-family="Arial" font-size="20" x="450" y="230"> </text><text font-family="Arial" font-size="20" x="490" y="230"> </text><text font-family="Arial" font-size="20" x="530" y="230"> </text><text font-family="Arial" font-size="20" x="570" y="230"> </text><text font-family="Arial" font-size="20" x="610" y="230"> </text><text font-family="Arial" font-size="20" x="650" y="230"> </text><text font-family="Arial" font-size="20" x="690" y="230"> </text><text font-family="Arial" font-size="20" x="730" y="230">A</text><text font-family="Arial" font-size="20" x="770" y="230">I</text><text font-family="Arial" font-size="20" x="10" y="270"> </text><text font-family="Arial" font-size="20" x="50" y="270"> </text><text font-family="Arial" font-size="20" x="90" y="270">A</text><text font-family="Arial" font-size="20" x="130" y="270"> </text><text font-family="Arial" font-size="20" x="170" y="270"> </text><text font-family="Arial" font-size="20" x="210" y="270"> </text><text font-family="Arial" font-size="20" x="250" y="270">A</text><text font-family="Arial" font-size="20" x="290" y="270"> </text><text font-family="Arial" font-size="20" x="330" y="270"> </text><text font-family="Arial" font-size="20" x="370" y="270"> </text><text font-family="Arial" font-size="20" x="410" y="270"> </text><text font-family="Arial" font-size="20" x="450" y="270"> </text><text font-family="Arial" font-size="20" x="490" y="270"> </text><text font-family="Arial" font-size="20" x="530" y="270"> </text><text font-family="Arial" font-size="20" x="570" y="270"> </text><text font-family="Arial" font-size="20" x="610" y="270"> </text><text font-family="Arial" font-size="20" x="650" y="270"> </text><text font-family="Arial" font-size="20" x="690" y="270">B</text><text font-family="Arial" font-size="20" x="730" y="270">S</text><text font-family="Arial" font-size="20" x="770" y="270">U</text><text font-family="Arial" font-size="20" x="10" y="310"> </text><text font-family="Arial" font-size="20" x="50" y="310"> </text><text font-family="Arial" font-size="20" x="90" y="310"> </text><text font-family="Arial" font-size="20" x="130" y="310"> </text><text font-family="Arial" font-size="20" x="170" y="310">M</text><text font-family="Arial" font-size="20" x="210" y="310">O</text><text font-family="Arial" font-size="20" x="250" y="310">N</text><text font-family="Arial" font-size="20" x="290" y="310">T</text><text font-family="Arial" font-size="20" x="330" y="310">E</text><text font-family="Arial" font-size="20" x="370" y="310">P</text><text font-family="Arial" font-size="20" x="410" y="310">U</text><text font-family="Arial" font-size="20" x="450" y="310">L</text><text font-family="Arial" font-size="20" x="490" y="310">C</text><text font-family="Arial" font-size="20" x="530" y="310">I</text><text font-family="Arial" font-size="20" x="570" y="310">A</text><text font-family="Arial" font-size="20" x="610" y="310">N</text><text font-family="Arial" font-size="20" x="650" y="310">O</text><text font-family="Arial" font-size="20" x="690" y="310">O</text><text font-family="Arial" font-size="20" x="730" y="310">T</text><text font-family="Arial" font-size="20" x="770" y="310">T</text><text font-family="Arial" font-size="20" x="10" y="350">Z</text><text font-family="Arial" font-size="20" x="50" y="350">U</text><text font-family="Arial" font-size="20" x="90" y="350">C</text><text font-family="Arial" font-size="20" x="130" y="350">C</text><text font-family="Arial" font-size="20" x="170" y="350">H</text><text font-family="Arial" font-size="20" x="210" y="350">I</text><text font-family="Arial" font-size="20" x="250" y="350">N</text><text font-family="Arial" font-size="20" x="290" y="350">I</text><text font-family="Arial" font-size="20" x="330" y="350"> </text><text font-family="Arial" font-size="20" x="370" y="350"> </text><text font-family="Arial" font-size="20" x="410" y="350"> </text><text font-family="Arial" font-size="20" x="450" y="350"> </text><text font-family="Arial" font-size="20" x="490" y="350"> </text><text font-family="Arial" font-size="20" x="530" y="350"> </text><text font-family="Arial" font-size="20" x="570" y="350"> </text><text font-family="Arial" font-size="20" x="610" y="350"> </text><text font-family="Arial" font-size="20" x="650" y="350"> </text><text font-family="Arial" font-size="20" x="690" y="350">T</text><text font-family="Arial" font-size="20" x="730" y="350">E</text><text font-family="Arial" font-size="20" x="770" y="350">T</text><text font-family="Arial" font-size="20" x="10" y="390">F</text><text font-family="Arial" font-size="20" x="50" y="390"> </text><text font-family="Arial" font-size="20" x="90" y="390"> </text><text font-family="Arial" font-size="20" x="130" y="390">T</text><text font-family="Arial" font-size="20" x="170" y="390"> </text><text font-family="Arial" font-size="20" x="210" y="390"> </text><text font-family="Arial" font-size="20" x="250" y="390">O</text><text font-family="Arial" font-size="20" x="290" y="390">G</text><text font-family="Arial" font-size="20" x="330" y="390">I</text><text font-family="Arial" font-size="20" x="370" y="390">O</text><text font-family="Arial" font-size="20" x="410" y="390">T</text><text font-family="Arial" font-size="20" x="450" y="390">T</text><text font-family="Arial" font-size="20" x="490" y="390">O</text><text font-family="Arial" font-size="20" x="530" y="390"> </text><text font-family="Arial" font-size="20" x="570" y="390"> </text><text font-family="Arial" font-size="20" x="610" y="390"> </text><text font-family="Arial" font-size="20" x="650" y="390"> </text><text font-family="Arial" font-size="20" x="690" y="390">T</text><text font-family="Arial" font-size="20" x="730" y="390">V</text><text font-family="Arial" font-size="20" x="770" y="390">O</text><text font-family="Arial" font-size="20" x="10" y="430">E</text><text font-family="Arial" font-size="20" x="50" y="430"> </text><text font-family="Arial" font-size="20" x="90" y="430"> </text><text font-family="Arial" font-size="20" x="130" y="430"> </text><text font-family="Arial" font-size="20" x="170" y="430">I</text><text font-family="Arial" font-size="20" x="210" y="430"> </text><text font-family="Arial" font-size="20" x="250" y="430">L</text><text font-family="Arial" font-size="20" x="290" y="430">C</text><text font-family="Arial" font-size="20" x="330" y="430">A</text><text font-family="Arial" font-size="20" x="370" y="430">N</text><text font-family="Arial" font-size="20" x="410" y="430">N</text><text font-family="Arial" font-size="20" x="450" y="430">E</text><text font-family="Arial" font-size="20" x="490" y="430">L</text><text font-family="Arial" font-size="20" x="530" y="430">L</text><text font-family="Arial" font-size="20" x="570" y="430">O</text><text font-family="Arial" font-size="20" x="610" y="430">N</text><text font-family="Arial" font-size="20" x="650" y="430">I</text><text font-family="Arial" font-size="20" x="690" y="430">I</text><text font-family="Arial" font-size="20" x="730" y="430">E</text><text font-family="Arial" font-size="20" x="770" y="430">A</text><text font-family="Arial" font-size="20" x="10" y="470">T</text><text font-family="Arial" font-size="20" x="50" y="470"> </text><text font-family="Arial" font-size="20" x="90" y="470"> </text><text font-family="Arial" font-size="20" x="130" y="470"> </text><text font-family="Arial" font-size="20" x="170" y="470"> </text><text font-family="Arial" font-size="20" x="210" y="470">R</text><text font-family="Arial" font-size="20" x="250" y="470">I</text><text font-family="Arial" font-size="20" x="290" y="470"> </text><text font-family="Arial" font-size="20" x="330" y="470"> </text><text font-family="Arial" font-size="20" x="370" y="470"> </text><text font-family="Arial" font-size="20" x="410" y="470"> </text><text font-family="Arial" font-size="20" x="450" y="470"> </text><text font-family="Arial" font-size="20" x="490" y="470"> </text><text font-family="Arial" font-size="20" x="530" y="470"> </text><text font-family="Arial" font-size="20" x="570" y="470"> </text><text font-family="Arial" font-size="20" x="610" y="470"> </text><text font-family="Arial" font-size="20" x="650" y="470"> </text><text font-family="Arial" font-size="20" x="690" y="470">C</text><text font-family="Arial" font-size="20" x="730" y="470">R</text><text font-family="Arial" font-size="20" x="770" y="470">P</text><text font-family="Arial" font-size="20" x="10" y="510">T</text><text font-family="Arial" font-size="20" x="50" y="510"> </text><text font-family="Arial" font-size="20" x="90" y="510"> </text><text font-family="Arial" font-size="20" x="130" y="510"> </text><text font-family="Arial" font-size="20" x="170" y="510">B</text><text font-family="Arial" font-size="20" x="210" y="510"> </text><text font-family="Arial" font-size="20" x="250" y="510">A</text><text font-family="Arial" font-size="20" x="290" y="510"> </text><text font-family="Arial" font-size="20" x="330" y="510"> </text><text font-family="Arial" font-size="20" x="370" y="510">R</text><text font-family="Arial" font-size="20" x="410" y="510">A</text><text font-family="Arial" font-size="20" x="450" y="510">V</text><text font-family="Arial" font-size="20" x="490" y="510">I</text><text font-family="Arial" font-size="20" x="530" y="510">O</text><text font-family="Arial" font-size="20" x="570" y="510">L</text><text font-family="Arial" font-size="20" x="610" y="510">I</text><text font-family="Arial" font-size="20" x="650" y="510"> </text><text font-family="Arial" font-size="20" x="690" y="510">E</text><text font-family="Arial" font-size="20" x="730" y="510">E</text><text font-family="Arial" font-size="20" x="770" y="510">E</text><text font-family="Arial" font-size="20" x="10" y="550">U</text><text font-family="Arial" font-size="20" x="50" y="550"> </text><text font-family="Arial" font-size="20" x="90" y="550"> </text><text font-family="Arial" font-size="20" x="130" y="550"> </text><text font-family="Arial" font-size="20" x="170" y="550">A</text><text font-family="Arial" font-size="20" x="210" y="550"> </text><text font-family="Arial" font-size="20" x="250" y="550"> </text><text font-family="Arial" font-size="20" x="290" y="550">M</text><text font-family="Arial" font-size="20" x="330" y="550"> </text><text font-family="Arial" font-size="20" x="370" y="550"> </text><text font-family="Arial" font-size="20" x="410" y="550"> </text><text font-family="Arial" font-size="20" x="450" y="550">U</text><text font-family="Arial" font-size="20" x="490" y="550">F</text><text font-family="Arial" font-size="20" x="530" y="550">F</text><text font-family="Arial" font-size="20" x="570" y="550">I</text><text font-family="Arial" font-size="20" x="610" y="550">Z</text><text font-family="Arial" font-size="20" x="650" y="550">I</text><text font-family="Arial" font-size="20" x="690" y="550">L</text><text font-family="Arial" font-size="20" x="730" y="550"> </text><text font-family="Arial" font-size="20" x="770" y="550">R</text><text font-family="Arial" font-size="20" x="10" y="590">C</text><text font-family="Arial" font-size="20" x="50" y="590"> </text><text font-family="Arial" font-size="20" x="90" y="590"> </text><text font-family="Arial" font-size="20" x="130" y="590"> </text><text font-family="Arial" font-size="20" x="170" y="590">S</text><text font-family="Arial" font-size="20" x="210" y="590"> </text><text font-family="Arial" font-size="20" x="250" y="590"> </text><text font-family="Arial" font-size="20" x="290" y="590"> </text><text font-family="Arial" font-size="20" x="330" y="590">I</text><text font-family="Arial" font-size="20" x="370" y="590"> </text><text font-family="Arial" font-size="20" x="410" y="590"> </text><text font-family="Arial" font-size="20" x="450" y="590"> </text><text font-family="Arial" font-size="20" x="490" y="590"> </text><text font-family="Arial" font-size="20" x="530" y="590"> </text><text font-family="Arial" font-size="20" x="570" y="590"> </text><text font-family="Arial" font-size="20" x="610" y="590"> </text><text font-family="Arial" font-size="20" x="650" y="590"> </text><text font-family="Arial" font-size="20" x="690" y="590">L</text><text font-family="Arial" font-size="20" x="730" y="590"> </text><text font-family="Arial" font-size="20" x="770" y="590">I</text><text font-family="Arial" font-size="20" x="10" y="630">C</text><text font-family="Arial" font-size="20" x="50" y="630"> </text><text font-family="Arial" font-size="20" x="90" y="630"> </text><text font-family="Arial" font-size="20" x="130" y="630"> </text><text font-family="Arial" font-size="20" x="170" y="630">I</text><text font-family="Arial" font-size="20" x="210" y="630"> </text><text font-family="Arial" font-size="20" x="250" y="630"> </text><text font-family="Arial" font-size="20" x="290" y="630"> </text><text font-family="Arial" font-size="20" x="330" y="630"> </text><text font-family="Arial" font-size="20" x="370" y="630">S</text><text font-family="Arial" font-size="20" x="410" y="630"> </text><text font-family="Arial" font-size="20" x="450" y="630"> </text><text font-family="Arial" font-size="20" x="490" y="630"> </text><text font-family="Arial" font-size="20" x="530" y="630"> </text><text font-family="Arial" font-size="20" x="570" y="630"> </text><text font-family="Arial" font-size="20" x="610" y="630"> </text><text font-family="Arial" font-size="20" x="650" y="630"> </text><text font-family="Arial" font-size="20" x="690" y="630">I</text><text font-family="Arial" font-size="20" x="730" y="630"> </text><text font-family="Arial" font-size="20" x="770" y="630">T</text><text font-family="Arial" font-size="20" x="10" y="670">I</text><text font-family="Arial" font-size="20" x="50" y="670"> </text><text font-family="Arial" font-size="20" x="90" y="670"> </text><text font-family="Arial" font-size="20" x="130" y="670"> </text><text font-family="Arial" font-size="20" x="170" y="670">L</text><text font-family="Arial" font-size="20" x="210" y="670"> </text><text font-family="Arial" font-size="20" x="250" y="670"> </text><text font-family="Arial" font-size="20" x="290" y="670"> </text><text font-family="Arial" font-size="20" x="330" y="670"> </text><text font-family="Arial" font-size="20" x="370" y="670"> </text><text font-family="Arial" font-size="20" x="410" y="670">U</text><text font-family="Arial" font-size="20" x="450" y="670"> </text><text font-family="Arial" font-size="20" x="490" y="670"> </text><text font-family="Arial" font-size="20" x="530" y="670"> </text><text font-family="Arial" font-size="20" x="570" y="670"> </text><text font-family="Arial" font-size="20" x="610" y="670"> </text><text font-family="Arial" font-size="20" x="650" y="670"> </text><text font-family="Arial" font-size="20" x="690" y="670"> </text><text font-family="Arial" font-size="20" x="730" y="670"> </text><text font-family="Arial" font-size="20" x="770" y="670">I</text><text font-family="Arial" font-size="20" x="10" y="710">N</text><text font-family="Arial" font-size="20" x="50" y="710"> </text><text font-family="Arial" font-size="20" x="90" y="710"> </text><text font-family="Arial" font-size="20" x="130" y="710"> </text><text font-family="Arial" font-size="20" x="170" y="710">I</text><text font-family="Arial" font-size="20" x="210" y="710">P</text><text font-family="Arial" font-size="20" x="250" y="710">A</text><text font-family="Arial" font-size="20" x="290" y="710">R</text><text font-family="Arial" font-size="20" x="330" y="710">M</text><text font-family="Arial" font-size="20" x="370" y="710">E</text><text font-family="Arial" font-size="20" x="410" y="710">S</text><text font-family="Arial" font-size="20" x="450" y="710">A</text><text font-family="Arial" font-size="20" x="490" y="710">N</text><text font-family="Arial" font-size="20" x="530" y="710"> </text><text font-family="Arial" font-size="20" x="570" y="710"> </text><text font-family="Arial" font-size="20" x="610" y="710"> </text><text font-family="Arial" font-size="20" x="650" y="710"> </text><text font-family="Arial" font-size="20" x="690" y="710"> </text><text font-family="Arial" font-size="20" x="730" y="710"> </text><text font-family="Arial" font-size="20" x="770" y="710">V</text><text font-family="Arial" font-size="20" x="10" y="750">E</text><text font-family="Arial" font-size="20" x="50" y="750"> </text><text font-family="Arial" font-size="20" x="90" y="750"> </text><text font-family="Arial" font-size="20" x="130" y="750"> </text><text font-family="Arial" font-size="20" x="170" y="750">C</text><text font-family="Arial" font-size="20" x="210" y="750"> </text><text font-family="Arial" font-size="20" x="250" y="750"> </text><text font-family="Arial" font-size="20" x="290" y="750">B</text><text font-family="Arial" font-size="20" x="330" y="750">U</text><text font-family="Arial" font-size="20" x="370" y="750">O</text><text font-family="Arial" font-size="20" x="410" y="750">N</text><text font-family="Arial" font-size="20" x="450" y="750">G</text><text font-family="Arial" font-size="20" x="490" y="750">I</text><text font-family="Arial" font-size="20" x="530" y="750">O</text><text font-family="Arial" font-size="20" x="570" y="750">R</text><text font-family="Arial" font-size="20" x="610" y="750">N</text><text font-family="Arial" font-size="20" x="650" y="750">O</text><text font-family="Arial" font-size="20" x="690" y="750"> </text><text font-family="Arial" font-size="20" x="730" y="750"> </text><text font-family="Arial" font-size="20" x="770" y="750">O</text><text font-family="Arial" font-size="20" x="10" y="790"> </text><text font-family="Arial" font-size="20" x="50" y="790"> </text><text font-family="Arial" font-size="20" x="90" y="790"> </text><text font-family="Arial" font-size="20" x="130" y="790"> </text><text font-family="Arial" font-size="20" x="170" y="790">A</text><text font-family="Arial" font-size="20" x="210" y="790"> </text><text font-family="Arial" font-size="20" x="250" y="790"> </text><text font-family="Arial" font-size="20" x="290" y="790"> </text><text font-family="Arial" font-size="20" x="330" y="790"> </text><text font-family="Arial" font-size="20" x="370" y="790"> </text><text font-family="Arial" font-size="20" x="410" y="790"> </text><text font-family="Arial" font-size="20" x="450" y="790"> </text><text font-family="Arial" font-size="20" x="490" y="790"> </text><text font-family="Arial" font-size="20" x="530" y="790"> </text><text font-family="Arial" font-size="20" x="570" y="790"> </text><text font-family="Arial" font-size="20" x="610" y="790"> </text><text font-family="Arial" font-size="20" x="650" y="790"> </text><text font-family="Arial" font-size="20" x="690" y="790"> </text><text font-family="Arial" font-size="20" x="730" y="790"> </text><text font-family="Arial" font-size="20" x="770" y="790"> </text></svg>