<?xml version="1.0" encoding="utf-8" ?>
<svg baseProfile="full" height="1070" version="1.1" width="800" xmlns="http://www.w3.org/2000/svg" xmlns:ev="http://www.w3.org/2001/xml-events" xmlns:xlink="http://www.w3.org/1999/xlink"><defs /><rect fill="white" height="800" width="800" x="0" y="0" /><text font-family="Arial" font-size="20" x="10" y="30">Y</text><text font-family="Arial" font-size="20" x="50" y="30">Q</text><text font-family="Arial" font-size="20" x="90" y="30">Y</text><text font-family="Arial" font-size="20" x="130" y="30">C</text><text font-family="Arial" font-size="20" x="170" y="30">Z</text><text font-family="Arial" font-size="20" x="210" y="30">W</text><text font-family="Arial" font-size="20" x="250" y="30">X</text><text font-family="Arial" font-size="20" x="290" y="30">M</text><text font-family="Arial" font-size="20" x="330" y="30">Y</text><text font-family="Arial" font-size="20" x="370" y="30">F</text><text font-family="Arial" font-size="20" x="410" y="30">J</text><text font-family="Arial" font-size="20" x="450" y="30">T</text><text font-family="Arial" font-size="20" x="490" y="30">P</text><text font-family="Arial" font-size="20" x="530" y="30">F</text><text font-family="Arial" font-size="20" x="570" y="30">S</text><text font-family="Arial" font-size="20" x="610" y="30">B</text><text font-family="Arial" font-size="20" x="650" y="30">V</text><text font-family="Arial" font-size="20" x="690" y="30">N</text><text font-family="Arial" font-size="20" x="730" y="30">N</text><text font-family="Arial" font-size="20" x="770" y="30">Y</text><text font-family="Arial" font-size="20" x="10" y="70">G</text><text font-family="Arial" font-size="20" x="50" y="70">X</text><text font-family="Arial" font-size="20" x="90" y="70">Z</text><text font-family="Arial" font-size="20" x="130" y="70">N</text><text font-family="Arial" font-size="20" x="170" y="70">S</text><text font-family="Arial" font-size="20" x="210" y="70">F</text><text font-family="Arial" font-size="20" x="250" y="70">O</text><text font-family="Arial" font-size="20" x="290" y="70">J</text><text font-family="Arial" font-size="20" x="330" y="70">Z</text><text font-family="Arial" font-size="20" x="370" y="70">Z</text><text font-family="Arial" font-size="20" x="410" y="70">F</text><text font-family="Arial" font-size="20" x="450" y="70">I</text><text font-family="Arial" font-size="20" x="490" y="70">B</text><text font-family="Arial" font-size="20" x="530" y="70">C</text><text font-family="Arial" font-size="20" x="570" y="70">T</text><text font-family="Arial" font-size="20" x="610" y="70">F</text><text font-family="Arial" font-size="20" x="650" y="70">Z</text><text font-family="Arial" font-size="20" x="690" y="70">D</text><text font-family="Arial" font-size="20" x="730" y="70">F</text><text font-family="Arial" font-size="20" x="770" y="70">M</text><text font-family="Arial" font-size="20" x="10" y="110">C</text><text font-family="Arial" font-size="20" x="50" y="110">E</text><text font-family="Arial" font-size="20" x="90" y="110">E</text><text font-family="Arial" font-size="20" x="130" y="110">N</text><text font-family="Arial" font-size="20" x="170" y="110">A</text><text font-family="Arial" font-size="20" x="210" y="110">U</text><text font-family="Arial" font-size="20" x="250" y="110">T</text><text font-family="Arial" font-size="20" x="290" y="110">O</text><text font-family="Arial" font-size="20" x="330" y="110">R</text><text font-family="Arial" font-size="20" x="370" y="110">X</text><text font-family="Arial" font-size="20" x="410" y="110">F</text><text font-family="Arial" font-size="20" x="450" y="110">R</text><text font-family="Arial" font-size="20" x="490" y="110">N</text><text font-family="Arial" font-size="20" x="530" y="110">O</text><text font-family="Arial" font-size="20" x="570" y="110">V</text><text font-family="Arial" font-size="20" x="610" y="110">X</text><text font-family="Arial" font-size="20" x="650" y="110">Z</text><text font-family="Arial" font-size="20" x="690" y="110">D</text><text font-family="Arial" font-size="20" x="730" y="110">K</text><text font-family="Arial" font-size="20" x="770" y="110">F</text><text font-family="Arial" font-size="20" x="10" y="150">J</text><text font-family="Arial" font-size="20" x="50" y="150">L</text><text font-family="Arial" font-size="20" x="90" y="150">U</text><text font-family="Arial" font-size="20" x="130" y="150">M</text><text font-family="Arial" font-size="20" x="170" y="150">Q</text><text font-family="Arial" font-size="20" x="210" y="150">C</text><text font-family="Arial" font-size="20" x="250" y="150">A</text><text font-family="Arial" font-size="20" x="290" y="150">M</text><text font-family="Arial" font-size="20" x="330" y="150">P</text><text font-family="Arial" font-size="20" x="370" y="150">A</text><text font-family="Arial" font-size="20" x="410" y="150">N</text><text font-family="Arial" font-size="20" x="450" y="150">I</text><text font-family="Arial" font-size="20" x="490" y="150">A</text><text font-family="Arial" font-size="20" x="530" y="150">B</text><text font-family="Arial" font-size="20" x="570" y="150">Q</text><text font-family="Arial" font-size="20" x="610" y="150">H</text><text font-family="Arial" font-size="20" x="650" y="150">Y</text><text font-family="Arial" font-size="20" x="690" y="150">F</text><text font-family="Arial" font-size="20" x="730" y="150">Q</text><text font-family="Arial" font-size="20" x="770" y="150">Y</text><text font-family="Arial" font-size="20" x="10" y="190">K</text><text font-family="Arial" font-size="20" x="50" y="190">I</text><text font-family="Arial" font-size="20" x="90" y="190">J</text><text font-family="Arial" font-size="20" x="130" y="190">A</text><text font-family="Arial" font-size="20" x="170" y="190">R</text><text font-family="Arial" font-size="20" x="210" y="190">D</text><text font-family="Arial" font-size="20" x="250" y="190">S</text><text font-family="Arial" font-size="20" x="290" y="190">Q</text><text font-family="Arial" font-size="20" x="330" y="190">C</text><text font-family="Arial" font-size="20" x="370" y="190">E</text><text font-family="Arial" font-size="20" x="410" y="190">Z</text><text font-family="Arial" font-size="20" x="450" y="190">B</text><text font-family="Arial" font-size="20" x="490" y="190">D</text><text font-family="Arial" font-size="20" x="530" y="190">D</text><text font-family="Arial" font-size="20" x="570" y="190">M</text><text font-family="Arial" font-size="20" x="610" y="190">M</text><text font-family="Arial" font-size="20" x="650" y="190">G</text><text font-family="Arial" font-size="20" x="690" y="190">P</text><text font-family="Arial" font-size="20" x="730" y="190">B</text><text font-family="Arial" font-size="20" x="770" y="190">H</text><text font-family="Arial" font-size="20" x="10" y="230">J</text><text font-family="Arial" font-size="20" x="50" y="230">C</text><text font-family="Arial" font-size="20" x="90" y="230">S</text><text font-family="Arial" font-size="20" x="130" y="230">M</text><text font-family="Arial" font-size="20" x="170" y="230">C</text><text font-family="Arial" font-size="20" x="210" y="230">K</text><text font-family="Arial" font-size="20" x="250" y="230">E</text><text font-family="Arial" font-size="20" x="290" y="230">T</text><text font-family="Arial" font-size="20" x="330" y="230">U</text><text font-family="Arial" font-size="20" x="370" y="230">S</text><text font-family="Arial" font-size="20" x="410" y="230">C</text><text font-family="Arial" font-size="20" x="450" y="230">A</text><text font-family="Arial" font-size="20" x="490" y="230">N</text><text font-family="Arial" font-size="20" x="530" y="230">L</text><text font-family="Arial" font-size="20" x="570" y="230">T</text><text font-family="Arial" font-size="20" x="610" y="230">Y</text><text font-family="Arial" font-size="20" x="650" y="230">G</text><text font-family="Arial" font-size="20" x="690" y="230">Y</text><text font-family="Arial" font-size="20" x="730" y="230">H</text><text font-family="Arial" font-size="20" x="770" y="230">T</text><text font-family="Arial" font-size="20" x="10" y="270">B</text><text font-family="Arial" font-size="20" x="50" y="270">U</text><text font-family="Arial" font-size="20" x="90" y="270">L</text><text font-family="Arial" font-size="20" x="130" y="270">V</text><text font-family="Arial" font-size="20" x="170" y="270">V</text><text font-family="Arial" font-size="20" x="210" y="270">M</text><text font-family="Arial" font-size="20" x="250" y="270">A</text><text font-family="Arial" font-size="20" x="290" y="270">R</text><text font-family="Arial" font-size="20" x="330" y="270">C</text><text font-family="Arial" font-size="20" x="370" y="270">H</text><text font-family="Arial" font-size="20" x="410" y="270">E</text><text font-family="Arial" font-size="20" x="450" y="270">J</text><text font-family="Arial" font-size="20" x="490" y="270">Q</text><text font-family="Arial" font-size="20" x="530" y="270">N</text><text font-family="Arial" font-size="20" x="570" y="270">C</text><text font-family="Arial" font-size="20" x="610" y="270">P</text><text font-family="Arial" font-size="20" x="650" y="270">G</text><text font-family="Arial" font-size="20" x="690" y="270">T</text><text font-family="Arial" font-size="20" x="730" y="270">B</text><text font-family="Arial" font-size="20" x="770" y="270">L</text><text font-family="Arial" font-size="20" x="10" y="310">F</text><text font-family="Arial" font-size="20" x="50" y="310">C</text><text font-family="Arial" font-size="20" x="90" y="310">G</text><text font-family="Arial" font-size="20" x="130" y="310">F</text><text font-family="Arial" font-size="20" x="170" y="310">F</text><text font-family="Arial" font-size="20" x="210" y="310">V</text><text font-family="Arial" font-size="20" x="250" y="310">H</text><text font-family="Arial" font-size="20" x="290" y="310">H</text><text font-family="Arial" font-size="20" x="330" y="310">Z</text><text font-family="Arial" font-size="20" x="370" y="310">M</text><text font-family="Arial" font-size="20" x="410" y="310">R</text><text font-family="Arial" font-size="20" x="450" y="310">O</text><text font-family="Arial" font-size="20" x="490" y="310">H</text><text font-family="Arial" font-size="20" x="530" y="310">W</text><text font-family="Arial" font-size="20" x="570" y="310">A</text><text font-family="Arial" font-size="20" x="610" y="310">S</text><text font-family="Arial" font-size="20" x="650" y="310">R</text><text font-family="Arial" font-size="20" x="690" y="310">G</text><text font-family="Arial" font-size="20" x="730" y="310">F</text><text font-family="Arial" font-size="20" x="770" y="310">T</text><text font-family="Arial" font-size="20" x="10" y="350">J</text><text font-family="Arial" font-size="20" x="50" y="350">H</text><text font-family="Arial" font-size="20" x="90" y="350">S</text><text font-family="Arial" font-size="20" x="130" y="350">I</text><text font-family="Arial" font-size="20" x="170" y="350">C</text><text font-family="Arial" font-size="20" x="210" y="350">I</text><text font-family="Arial" font-size="20" x="250" y="350">L</text><text font-family="Arial" font-size="20" x="290" y="350">I</text><text font-family="Arial" font-size="20" x="330" y="350">A</text><text font-family="Arial" font-size="20" x="370" y="350">N</text><text font-family="Arial" font-size="20" x="410" y="350">L</text><text font-family="Arial" font-size="20" x="450" y="350">G</text><text font-family="Arial" font-size="20" x="490" y="350">I</text><text font-family="Arial" font-size="20" x="530" y="350">W</text><text font-family="Arial" font-size="20" x="570" y="350">I</text><text font-family="Arial" font-size="20" x="610" y="350">K</text><text font-family="Arial" font-size="20" x="650" y="350">X</text><text font-family="Arial" font-size="20" x="690" y="350">B</text><text font-family="Arial" font-size="20" x="730" y="350">V</text><text font-family="Arial" font-size="20" x="770" y="350">P</text><text font-family="Arial" font-size="20" x="10" y="390">W</text><text font-family="Arial" font-size="20" x="50" y="390">L</text><text font-family="Arial" font-size="20" x="90" y="390">P</text><text font-family="Arial" font-size="20" x="130" y="390">W</text><text font-family="Arial" font-size="20" x="170" y="390">Z</text><text font-family="Arial" font-size="20" x="210" y="390">N</text><text font-family="Arial" font-size="20" x="250" y="390">Q</text><text font-family="Arial" font-size="20" x="290" y="390">L</text><text font-family="Arial" font-size="20" x="330" y="390">U</text><text font-family="Arial" font-size="20" x="370" y="390">E</text><text font-family="Arial" font-size="20" x="410" y="390">O</text><text font-family="Arial" font-size="20" x="450" y="390">X</text><text font-family="Arial" font-size="20" x="490" y="390">K</text><text font-family="Arial" font-size="20" x="530" y="390">Z</text><text font-family="Arial" font-size="20" x="570" y="390">X</text><text font-family="Arial" font-size="20" x="610" y="390">N</text><text font-family="Arial" font-size="20" x="650" y="390">L</text><text font-family="Arial" font-size="20" x="690" y="390">Z</text><text font-family="Arial" font-size="20" x="730" y="390">V</text><text font-family="Arial" font-size="20" x="770" y="390">J</text><text font-family="Arial" font-size="20" x="10" y="430">F</text><text font-family="Arial" font-size="20" x="50" y="430">L</text><text font-family="Arial" font-size="20" x="90" y="430">O</text><text font-family="Arial" font-size="20" x="130" y="430">M</text><text font-family="Arial" font-size="20" x="170" y="430">B</text><text font-family="Arial" font-size="20" x="210" y="430">A</text><text font-family="Arial" font-size="20" x="250" y="430">R</text><text font-family="Arial" font-size="20" x="290" y="430">D</text><text font-family="Arial" font-size="20" x="330" y="430">Y</text><text font-family="Arial" font-size="20" x="370" y="430">X</text><text font-family="Arial" font-size="20" x="410" y="430">N</text><text font-family="Arial" font-size="20" x="450" y="430">E</text><text font-family="Arial" font-size="20" x="490" y="430">A</text><text font-family="Arial" font-size="20" x="530" y="430">P</text><text font-family="Arial" font-size="20" x="570" y="430">O</text><text font-family="Arial" font-size="20" x="610" y="430">L</text><text font-family="Arial" font-size="20" x="650" y="430">I</text><text font-family="Arial" font-size="20" x="690" y="430">T</text><text font-family="Arial" font-size="20" x="730" y="430">A</text><text font-family="Arial" font-size="20" x="770" y="430">N</text><text font-family="Arial" font-size="20" x="10" y="470">L</text><text font-family="Arial" font-size="20" x="50" y="470">H</text><text font-family="Arial" font-size="20" x="90" y="470">N</text><text font-family="Arial" font-size="20" x="130" y="470">V</text><text font-family="Arial" font-size="20" x="170" y="470">D</text><text font-family="Arial" font-size="20" x="210" y="470">Z</text><text font-family="Arial" font-size="20" x="250" y="470">J</text><text font-family="Arial" font-size="20" x="290" y="470">L</text><text font-family="Arial" font-size="20" x="330" y="470">A</text><text font-family="Arial" font-size="20" x="370" y="470">F</text><text font-family="Arial" font-size="20" x="410" y="470">F</text><text font-family="Arial" font-size="20" x="450" y="470">L</text><text font-family="Arial" font-size="20" x="490" y="470">L</text><text font-family="Arial" font-size="20" x="530" y="470">M</text><text font-family="Arial" font-size="20" x="570" y="470">S</text><text font-family="Arial" font-size="20" x="610" y="470">B</text><text font-family="Arial" font-size="20" x="650" y="470">J</text><text font-family="Arial" font-size="20" x="690" y="470">E</text><text font-family="Arial" font-size="20" x="730" y="470">B</text><text font-family="Arial" font-size="20" x="770" y="470">S</text><text font-family="Arial" font-size="20" x="10" y="510">L</text><text font-family="Arial" font-size="20" x="50" y="510">I</text><text font-family="Arial" font-size="20" x="90" y="510">H</text><text font-family="Arial" font-size="20" x="130" y="510">S</text><text font-family="Arial" font-size="20" x="170" y="510">C</text><text font-family="Arial" font-size="20" x="210" y="510">M</text><text font-family="Arial" font-size="20" x="250" y="510">I</text><text font-family="Arial" font-size="20" x="290" y="510">S</text><text font-family="Arial" font-size="20" x="330" y="510">G</text><text font-family="Arial" font-size="20" x="370" y="510">K</text><text font-family="Arial" font-size="20" x="410" y="510">Y</text><text font-family="Arial" font-size="20" x="450" y="510">L</text><text font-family="Arial" font-size="20" x="490" y="510">A</text><text font-family="Arial" font-size="20" x="530" y="510">I</text><text font-family="Arial" font-size="20" x="570" y="510">G</text><text font-family="Arial" font-size="20" x="610" y="510">Y</text><text font-family="Arial" font-size="20" x="650" y="510">I</text><text font-family="Arial" font-size="20" x="690" y="510">M</text><text font-family="Arial" font-size="20" x="730" y="510">Y</text><text font-family="Arial" font-size="20" x="770" y="510">S</text><text font-family="Arial" font-size="20" x="10" y="550">H</text><text font-family="Arial" font-size="20" x="50" y="550">K</text><text font-family="Arial" font-size="20" x="90" y="550">L</text><text font-family="Arial" font-size="20" x="130" y="550">A</text><text font-family="Arial" font-size="20" x="170" y="550">C</text><text font-family="Arial" font-size="20" x="210" y="550">J</text><text font-family="Arial" font-size="20" x="250" y="550">S</text><text font-family="Arial" font-size="20" x="290" y="550">Z</text><text font-family="Arial" font-size="20" x="330" y="550">A</text><text font-family="Arial" font-size="20" x="370" y="550">A</text><text font-family="Arial" font-size="20" x="410" y="550">B</text><text font-family="Arial" font-size="20" x="450" y="550">I</text><text font-family="Arial" font-size="20" x="490" y="550">G</text><text font-family="Arial" font-size="20" x="530" y="550">L</text><text font-family="Arial" font-size="20" x="570" y="550">Q</text><text font-family="Arial" font-size="20" x="610" y="550">N</text><text font-family="Arial" font-size="20" x="650" y="550">B</text><text font-family="Arial" font-size="20" x="690" y="550">Z</text><text font-family="Arial" font-size="20" x="730" y="550">M</text><text font-family="Arial" font-size="20" x="770" y="550">M</text><text font-family="Arial" font-size="20" x="10" y="590">R</text><text font-family="Arial" font-size="20" x="50" y="590">O</text><text font-family="Arial" font-size="20" x="90" y="590">M</text><text font-family="Arial" font-size="20" x="130" y="590">A</text><text font-family="Arial" font-size="20" x="170" y="590">N</text><text font-family="Arial" font-size="20" x="210" y="590">W</text><text font-family="Arial" font-size="20" x="250" y="590">P</text><text font-family="Arial" font-size="20" x="290" y="590">H</text><text font-family="Arial" font-size="20" x="330" y="590">U</text><text font-family="Arial" font-size="20" x="370" y="590">S</text><text font-family="Arial" font-size="20" x="410" y="590">K</text><text font-family="Arial" font-size="20" x="450" y="590">G</text><text font-family="Arial" font-size="20" x="490" y="590">U</text><text font-family="Arial" font-size="20" x="530" y="590">A</text><text font-family="Arial" font-size="20" x="570" y="590">Q</text><text font-family="Arial" font-size="20" x="610" y="590">S</text><text font-family="Arial" font-size="20" x="650" y="590">U</text><text font-family="Arial" font-size="20" x="690" y="590">W</text><text font-family="Arial" font-size="20" x="730" y="590">J</text><text font-family="Arial" font-size="20" x="770" y="590">F</text><text font-family="Arial" font-size="20" x="10" y="630">A</text><text font-family="Arial" font-size="20" x="50" y="630">Q</text><text font-family="Arial" font-size="20" x="90" y="630">L</text><text font-family="Arial" font-size="20" x="130" y="630">G</text><text font-family="Arial" font-size="20" x="170" y="630">U</text><text font-family="Arial" font-size="20" x="210" y="630">E</text><text font-family="Arial" font-size="20" x="250" y="630">S</text><text font-family="Arial" font-size="20" x="290" y="630">G</text><text font-family="Arial" font-size="20" x="330" y="630">M</text><text font-family="Arial" font-size="20" x="370" y="630">P</text><text font-family="Arial" font-size="20" x="410" y="630">N</text><text font-family="Arial" font-size="20" x="450" y="630">U</text><text font-family="Arial" font-size="20" x="490" y="630">A</text><text font-family="Arial" font-size="20" x="530" y="630">N</text><text font-family="Arial" font-size="20" x="570" y="630">P</text><text font-family="Arial" font-size="20" x="610" y="630">X</text><text font-family="Arial" font-size="20" x="650" y="630">K</text><text font-family="Arial" font-size="20" x="690" y="630">M</text><text font-family="Arial" font-size="20" x="730" y="630">L</text><text font-family="Arial" font-size="20" x="770" y="630">D</text><text font-family="Arial" font-size="20" x="10" y="670">Z</text><text font-family="Arial" font-size="20" x="50" y="670">N</text><text font-family="Arial" font-size="20" x="90" y="670">X</text><text font-family="Arial" font-size="20" x="130" y="670">P</text><text font-family="Arial" font-size="20" x="170" y="670">W</text><text font-family="Arial" font-size="20" x="210" y="670">V</text><text font-family="Arial" font-size="20" x="250" y="670">F</text><text font-family="Arial" font-size="20" x="290" y="670">R</text><text font-family="Arial" font-size="20" x="330" y="670">S</text><text font-family="Arial" font-size="20" x="370" y="670">W</text><text font-family="Arial" font-size="20" x="410" y="670">D</text><text font-family="Arial" font-size="20" x="450" y="670">R</text><text font-family="Arial" font-size="20" x="490" y="670">F</text><text font-family="Arial" font-size="20" x="530" y="670">E</text><text font-family="Arial" font-size="20" x="570" y="670">C</text><text font-family="Arial" font-size="20" x="610" y="670">Y</text><text font-family="Arial" font-size="20" x="650" y="670">Q</text><text font-family="Arial" font-size="20" x="690" y="670">E</text><text font-family="Arial" font-size="20" x="730" y="670">Q</text><text font-family="Arial" font-size="20" x="770" y="670">G</text><text font-family="Arial" font-size="20" x="10" y="710">Z</text><text font-family="Arial" font-size="20" x="50" y="710">W</text><text font-family="Arial" font-size="20" x="90" y="710">A</text><text font-family="Arial" font-size="20" x="130" y="710">Q</text><text font-family="Arial" font-size="20" x="170" y="710">T</text><text font-family="Arial" font-size="20" x="210" y="710">B</text><text font-family="Arial" font-size="20" x="250" y="710">V</text><text font-family="Arial" font-size="20" x="290" y="710">C</text><text font-family="Arial" font-size="20" x="330" y="710">U</text><text font-family="Arial" font-size="20" x="370" y="710">E</text><text font-family="Arial" font-size="20" x="410" y="710">N</text><text font-family="Arial" font-size="20" x="450" y="710">I</text><text font-family="Arial" font-size="20" x="490" y="710">A</text><text font-family="Arial" font-size="20" x="530" y="710">S</text><text font-family="Arial" font-size="20" x="570" y="710">Z</text><text font-family="Arial" font-size="20" x="610" y="710">U</text><text font-family="Arial" font-size="20" x="650" y="710">I</text><text font-family="Arial" font-size="20" x="690" y="710">R</text><text font-family="Arial" font-size="20" x="730" y="710">J</text><text font-family="Arial" font-size="20" x="770" y="710">F</text><text font-family="Arial" font-size="20" x="10" y="750">F</text><text font-family="Arial" font-size="20" x="50" y="750">L</text><text font-family="Arial" font-size="20" x="90" y="750">O</text><text font-family="Arial" font-size="20" x="130" y="750">R</text><text font-family="Arial" font-size="20" x="170" y="750">E</text><text font-family="Arial" font-size="20" x="210" y="750">N</text><text font-family="Arial" font-size="20" x="250" y="750">T</text><text font-family="Arial" font-size="20" x="290" y="750">I</text><text font-family="Arial" font-size="20" x="330" y="750">N</text><text font-family="Arial" font-size="20" x="370" y="750">E</text><text font-family="Arial" font-size="20" x="410" y="750">L</text><text font-family="Arial" font-size="20" x="450" y="750">A</text><text font-family="Arial" font-size="20" x="490" y="750">U</text><text font-family="Arial" font-size="20" x="530" y="750">E</text><text font-family="Arial" font-size="20" x="570" y="750">C</text><text font-family="Arial" font-size="20" x="610" y="750">P</text><text font-family="Arial" font-size="20" x="650" y="750">Q</text><text font-family="Arial" font-size="20" x="690" y="750">U</text><text font-family="Arial" font-size="20" x="730" y="750">B</text><text font-family="Arial" font-size="20" x="770" y="750">V</text><text font-family="Arial" font-size="20" x="10" y="790">E</text><text font-family="Arial" font-size="20" x="50" y="790">N</text><text font-family="Arial" font-size="20" x="90" y="790">M</text><text font-family="Arial" font-size="20" x="130" y="790">X</text><text font-family="Arial" font-size="20" x="170" y="790">F</text><text font-family="Arial" font-size="20" x="210" y="790">D</text><text font-family="Arial" font-size="20" x="250" y="790">M</text><text font-family="Arial" font-size="20" x="290" y="790">Y</text><text font-family="Arial" font-size="20" x="330" y="790">T</text><text font-family="Arial" font-size="20" x="370" y="790">D</text><text font-family="Arial" font-size="20" x="410" y="790">Z</text><text font-family="Arial" font-size="20" x="450" y="790">N</text><text font-family="Arial" font-size="20" x="490" y="790">J</text><text font-family="Arial" font-size="20" x="530" y="790">P</text><text font-family="Arial" font-size="20" x="570" y="790">F</text><text font-family="Arial" font-size="20" x="610" y="790">O</text><text font-family="Arial" font-size="20" x="650" y="790">U</text><text font-family="Arial" font-size="20" x="690" y="790">R</text><text font-family="Arial" font-size="20" x="730" y="790">T</text><text font-family="Arial" font-size="20" x="770" y="790">L</text><text font-family="Arial" font-size="20" x="10" y="820">MARCHE</text><text font-family="Arial" font-size="20" x="10" y="845">LOMBARDY</text><text font-family="Arial" font-size="20" x="10" y="870">CAMPANIA</text><text font-family="Arial" font-size="20" x="10" y="895">LIGURIAN</text><text font-family="Arial" font-size="20" x="10" y="920">TUSCAN</text><text font-family="Arial" font-size="20" x="10" y="945">ROMAN</text><text font-family="Arial" font-size="20" x="10" y="970">NEAPOLITAN</text><text font-family="Arial" font-size="20" x="10" y="995">SICILIAN</text><text font-family="Arial" font-size="20" x="10" y="1020">FLORENTINE</text><text font-family="Arial" font-size="20" x="10" y="1045">MILANESE</text></svg>